<?xml version="1.0" standalone="no"?>
<!DOCTYPE svg PUBLIC "-//W3C//DTD SVG 1.1//EN" "http://www.w3.org/Graphics/SVG/1.1/DTD/svg11.dtd" >
<svg xmlns="http://www.w3.org/2000/svg" xmlns:xlink="http://www.w3.org/1999/xlink" version="1.1">
<metadata></metadata>
<defs>
<font id="freshbotregular" horiz-adv-x="970" >
<font-face units-per-em="2048" ascent="1638" descent="-410" />
<missing-glyph horiz-adv-x="419" />
<glyph horiz-adv-x="0" />
<glyph unicode="&#xd;" horiz-adv-x="419" />
<glyph unicode=" "  horiz-adv-x="419" />
<glyph unicode="&#x09;" horiz-adv-x="419" />
<glyph unicode="&#xa0;" horiz-adv-x="419" />
<glyph unicode="!" horiz-adv-x="325" d="M121 287v493q0 117 60.5 200t144.5 83v-494q0 -117 -60.5 -199.5t-144.5 -82.5zM123 0v29q0 119 59.5 200.5t143.5 81.5v-28q0 -117 -59.5 -200t-143.5 -83z" />
<glyph unicode="&#x22;" horiz-adv-x="563" d="M121 850v213q84 0 143.5 -83t59.5 -200v-213q-84 0 -143.5 83t-59.5 200zM360 850v213q84 0 143.5 -83t59.5 -200v-213q-84 0 -143.5 83t-59.5 200z" />
<glyph unicode="#" d="M121 0v494q0 117 60.5 199.5t144.5 82.5v-194h215q20 86 73.5 140t120.5 54v-196q100 -12 168 -69.5t68 -133.5h-236v-35q100 -12 168 -69.5t68 -133.5h-264q-59 -139 -177 -139v139h-233q-59 -139 -176 -139zM326 344h204v33h-204v-33z" />
<glyph unicode="$" horiz-adv-x="976" d="M121 0q0 84 83 143.5t199 59.5l302 2q61 0 61 61v2q0 61 -61 62h-299q-117 0 -200 59.5t-83 142.5l582 3q111 0 188.5 -78t77.5 -189v-2q0 -111 -78 -188.5t-188 -77.5h-584zM121 573q0 84 83 143.5t199 59.5h572q0 -84 -83 -143.5t-200 -59.5h-571zM150 1012h212 q117 0 200 -59.5t83 -143.5h-213q-117 0 -199.5 59.5t-82.5 143.5zM475 -37h213q117 0 200 -59.5t83 -143.5h-213q-117 0 -200 59.5t-83 143.5z" />
<glyph unicode="%" d="M121 547v106q0 51 36 87t87 36h106q51 0 87 -35.5t36 -87.5v-106q0 -51 -36 -87t-87 -36h-106q-51 0 -87 36t-36 87zM236 25l309 579q41 80 107.5 126t131.5 46q41 0 74 -18l-309 -580q-41 -78 -107.5 -125t-132.5 -47q-39 0 -73 19zM618 123v106q0 51 36 87t87 36h107 q51 0 87 -35.5t36 -87.5v-106q0 -51 -36 -87t-87 -36h-107q-51 0 -87 36t-36 87z" />
<glyph unicode="&#x26;" horiz-adv-x="974" d="M121 313q0 84 83 143.5t199 59.5h41v324q84 0 143.5 -83t59.5 -200v-41h324q0 -84 -83 -143.5t-200 -59.5h-41v-323q-84 0 -143.5 83t-59.5 199v41h-323z" />
<glyph unicode="'" horiz-adv-x="323" d="M121 850v213q84 0 143.5 -83t59.5 -200v-213q-84 0 -143.5 83t-59.5 200z" />
<glyph unicode="(" horiz-adv-x="690" d="M121 225v318q0 111 77.5 188.5t188.5 77.5h305q0 -82 -81 -137.5t-201 -65.5l-23 -2q-61 -6 -61 -61v-318q0 -55 61 -61l23 -2q121 -10 201.5 -65.5t80.5 -137.5h-305q-111 0 -188.5 78t-77.5 188z" />
<glyph unicode=")" horiz-adv-x="692" d="M121 -41q0 82 84 137q78 55 198 66l23 2q61 6 61 61v318q0 55 -61 61l-23 2q-121 10 -198 66q-84 55 -84 137h305q111 0 188.5 -78t77.5 -188v-318q0 -111 -77.5 -188.5t-188.5 -77.5h-305z" />
<glyph unicode="*" horiz-adv-x="911" d="M121 61v89q0 61 61 61h88q61 0 62 -61v-89q0 -61 -62 -61h-88q-61 0 -61 61zM121 356v88q0 61 61 62h88q61 0 62 -62v-88q0 -61 -62 -61h-88q-61 0 -61 61zM121 627v88q0 61 61 61h88q61 0 62 -61v-88q0 -61 -62 -62h-88q-61 0 -61 62zM360 43v61q0 43 43 43h62 q43 0 43 -43v-61q0 -43 -43 -43h-62q-43 0 -43 43zM360 256v61q0 43 43 43h62q43 0 43 -43v-61q0 -43 -43 -43h-62q-43 0 -43 43zM360 463v61q0 43 43 43h62q43 0 43 -43v-61q0 -43 -43 -43h-62q-43 0 -43 43zM360 672v61q0 43 43 43h62q43 0 43 -43v-61q0 -43 -43 -43h-62 q-43 0 -43 43zM551 31v43q0 29 31 28h43q31 0 30 -28v-43q0 -31 -30 -31h-43q-31 0 -31 31zM551 158v43q0 31 31 30h43q31 0 30 -30v-43q0 -29 -30 -29h-43q-31 0 -31 29zM551 303v43q0 31 31 31h43q31 0 30 -31v-43q0 -29 -30 -29h-43q-31 0 -31 29zM551 444v43q0 31 31 31 h43q31 0 30 -31v-43q0 -29 -30 -28h-43q-31 0 -31 28zM551 578v43q0 29 31 28h43q31 0 30 -28v-43q0 -31 -30 -31h-43q-31 0 -31 31zM551 702v43q0 31 31 31h43q31 0 30 -31v-43q0 -29 -30 -28h-43q-31 0 -31 28zM688 20v31q0 20 21 21h30q20 0 21 -21v-31q0 -20 -21 -20 h-30q-20 0 -21 20zM688 131v31q0 20 21 20h30q20 0 21 -20v-31q0 -20 -21 -20h-30q-20 0 -21 20zM688 233v31q0 20 21 21h30q20 0 21 -21v-31q0 -20 -21 -20h-30q-20 0 -21 20zM688 344v31q0 20 21 20h30q20 0 21 -20v-31q0 -20 -21 -20h-30q-20 0 -21 20zM688 446v29 q0 23 21 23h30q20 0 21 -23v-29q0 -23 -21 -22h-30q-20 0 -21 22zM688 545v30q0 20 21 21h30q20 0 21 -21v-30q0 -23 -21 -23h-30q-20 0 -21 23zM688 637v31q0 20 21 20h30q20 0 21 -20v-31q0 -23 -21 -23h-30q-20 0 -21 23zM688 725v31q0 20 21 20h30q20 0 21 -20v-31 q0 -20 -21 -20h-30q-20 0 -21 20zM793 14v23q0 14 16 14h20q14 0 15 -14v-23q0 -14 -15 -14h-20q-16 0 -16 14zM793 92v21q0 14 16 14h20q14 0 15 -14v-21q0 -14 -15 -14h-20q-16 0 -16 14zM793 164v20q0 14 16 15h20q14 0 15 -15v-20q0 -14 -15 -14h-20q-16 0 -16 14z M793 248v20q0 14 16 15h20q14 0 15 -15v-20q0 -14 -15 -15h-20q-16 0 -16 15zM793 326v20q0 14 16 14h20q14 0 15 -14v-20q0 -16 -15 -17h-20q-16 0 -16 17zM793 395v23q0 14 16 14h20q14 0 15 -14v-23q0 -14 -15 -14h-20q-16 0 -16 14zM793 473v21q0 16 16 16h20 q14 0 15 -16v-21q0 -14 -15 -14h-20q-16 0 -16 14zM793 545v20q0 16 16 17h20q14 0 15 -17v-20q0 -14 -15 -15h-20q-16 0 -16 15zM793 614v21q0 14 16 14h20q14 0 15 -14v-21q0 -14 -15 -14h-20q-16 0 -16 14zM793 678v22q0 14 16 15h20q14 0 15 -15v-22q0 -14 -15 -14h-20 q-16 0 -16 14zM793 739v23q0 14 16 14h20q14 0 15 -14v-23q0 -14 -15 -14h-20q-16 0 -16 14zM872 10v15q0 10 11 10h14q10 0 10 -10v-15q0 -10 -10 -10h-14q-10 0 -11 10zM872 59v17q0 10 11 10h14q10 0 10 -10v-17q0 -10 -10 -10h-14q-10 0 -11 10zM872 109v14q0 10 11 10 h14q10 0 10 -10v-14q0 -10 -10 -11h-14q-10 0 -11 11zM872 154v14q0 10 11 10h14q10 0 10 -10v-14q0 -10 -10 -11h-14q-10 0 -11 11zM872 197v14q0 12 11 12h14q10 0 10 -12v-14q0 -10 -10 -11h-14q-10 0 -11 11zM872 244v14q0 10 11 10h14q10 0 10 -10v-14q0 -10 -10 -11 h-14q-10 0 -11 11zM872 297v14q0 10 11 11h14q10 0 10 -11v-14q0 -10 -10 -10h-14q-10 0 -11 10zM872 348v14q0 10 11 11h14q10 0 10 -11v-14q0 -10 -10 -10h-14q-10 0 -11 10zM872 406v16q0 10 11 10h14q10 0 10 -10v-16q0 -10 -10 -11h-14q-10 0 -11 11zM872 461v14 q0 10 11 10h14q10 0 10 -10v-14q0 -10 -10 -10h-14q-10 0 -11 10zM872 510v14q0 10 11 11h14q10 0 10 -11v-14q0 -10 -10 -10h-14q-10 0 -11 10zM872 565v15q0 10 11 10h14q10 0 10 -10v-15q0 -12 -10 -12h-14q-10 0 -11 12zM872 614v15q0 10 11 10h14q10 0 10 -10v-15 q0 -10 -10 -10h-14q-10 0 -11 10zM872 664v14q0 10 11 10h14q10 0 10 -10v-14q0 -12 -10 -13h-14q-10 0 -11 13zM872 709v14q0 10 11 10h14q10 0 10 -10v-14q0 -10 -10 -11h-14q-10 0 -11 11zM872 752v14q0 10 11 10h14q10 0 10 -10v-14q0 -10 -10 -11h-14q-10 0 -11 11z " />
<glyph unicode="+" d="M121 313q0 84 83 143.5t199 59.5h41v324q84 0 143.5 -83t59.5 -200v-41h324q0 -84 -83 -143.5t-200 -59.5h-41v-323q-84 0 -143.5 83t-59.5 199v41h-323z" />
<glyph unicode="," horiz-adv-x="325" d="M-172 -240q0 84 83 143.5t200 59.5h213q0 -84 -83 -143.5t-200 -59.5h-213zM121 61v80q0 61 61 62h80q61 0 62 -62v-80q0 -61 -62 -61h-80q-61 0 -61 61z" />
<glyph unicode="-" horiz-adv-x="708" d="M121 313q0 84 83 143.5t199 59.5h302q0 -84 -83 -143.5t-200 -59.5h-301z" />
<glyph unicode="." horiz-adv-x="323" d="M121 61v80q0 61 61 62h80q61 0 62 -62v-80q0 -61 -62 -61h-80q-61 0 -61 61z" />
<glyph unicode="/" horiz-adv-x="749" d="M121 25l309 579q41 80 107.5 126t132.5 46q38 0 73 -18l-309 -580q-41 -78 -107.5 -125t-131.5 -47q-41 0 -74 19z" />
<glyph unicode="0" horiz-adv-x="974" d="M121 266v244q0 111 77.5 188.5t188.5 77.5h318q111 0 188.5 -77.5t77.5 -188.5v-244q0 -111 -78 -188.5t-188 -77.5h-318q-111 0 -188.5 78t-77.5 188zM326 266q0 -61 61 -61h318q61 0 61 61v244q0 61 -61 61h-318q-61 0 -61 -61v-244z" />
<glyph unicode="1" horiz-adv-x="690" d="M121 776h303q111 0 188.5 -77.5t77.5 -188.5v-510q-84 0 -142.5 83t-60.5 200l-2 227q0 61 -61 61h-21q-117 0 -199.5 60.5t-82.5 144.5z" />
<glyph unicode="2" d="M121 203h571q117 0 200 -59.5t83 -143.5h-572q-117 0 -199.5 59.5t-82.5 143.5zM121 776h584q111 0 188.5 -77.5t77.5 -188.5v-2q0 -111 -78 -188.5t-188 -77.5l-582 2q0 84 83 143t200 59h299q61 0 61 62v2q0 61 -61 61l-302 2q-117 0 -199.5 59.5t-82.5 143.5z" />
<glyph unicode="3" d="M121 0q0 84 83 143.5t199 59.5l302 2q61 0 61 61v244q0 61 -61 61l-302 2q-117 0 -199.5 59.5t-82.5 143.5h584q111 0 188.5 -77.5t77.5 -188.5v-244q0 -111 -78 -188.5t-188 -77.5h-584zM221 496h213q117 0 200 -59.5t83 -143.5h-213q-117 0 -200 59.5t-83 143.5z" />
<glyph unicode="4" d="M121 485v291q82 0 138 -81t65 -201l2 -29q2 -41 61 -41h318q61 0 61 61l2 9q2 117 60.5 199.5t142.5 82.5v-776q-72 0 -127.5 62.5t-69.5 156.5h-387q-111 0 -188.5 78t-77.5 188z" />
<glyph unicode="5" horiz-adv-x="974" d="M121 0q0 84 83 143.5t199 59.5h572q0 -84 -83 -143.5t-200 -59.5h-571zM125 508v2q0 111 78 188.5t188 77.5h584q0 -84 -83 -143.5t-200 -59.5l-301 -2q-61 0 -61 -61v-2q0 -61 61 -62h299q117 0 200 -59t83 -143l-582 -2q-111 0 -188.5 77.5t-77.5 188.5z" />
<glyph unicode="6" horiz-adv-x="974" d="M121 266v244q0 111 77.5 188.5t188.5 77.5h584q0 -84 -83 -143.5t-200 -59.5l-301 -2q-61 0 -61 -61v-244q0 -61 61 -61h318q61 0 61 61v2q0 51 -61 62l-13 2q-117 0 -199.5 59.5t-82.5 143.5h295q111 0 188.5 -78t77.5 -189v-2q0 -111 -78 -188.5t-188 -77.5h-318 q-111 0 -188.5 78t-77.5 188z" />
<glyph unicode="7" d="M121 776h584q111 0 188.5 -77.5t77.5 -188.5v-510q-84 0 -142.5 83t-60.5 200l-2 227q0 61 -61 61h-302q-117 0 -199.5 60.5t-82.5 144.5z" />
<glyph unicode="8" d="M121 266v4q0 61 26 119q-27 55 -26 117v4q0 111 77.5 188.5t188.5 77.5h318q111 0 188.5 -77.5t77.5 -188.5v-4q0 -61 -27 -117q27 -57 27 -119v-4q0 -111 -78 -188.5t-188 -77.5h-318q-111 0 -188.5 78t-77.5 188zM326 506q0 -61 61 -62h318q61 1 61 62v4q0 61 -61 61 h-318q-61 0 -61 -61v-4zM330 246q14 -41 57 -41h318q43 0 57 41q-29 -6 -57 -6h-318q-29 0 -57 6z" />
<glyph unicode="9" d="M121 0q0 84 83 143.5t199 59.5l302 2q61 0 61 61v244q0 61 -61 61h-318q-61 0 -61 -61v-2q0 -61 61 -62h340q0 -84 -82 -141t-201 -61l-57 -2q-109 -4 -187.5 75.5t-78.5 190.5v2q0 111 77.5 188.5t188.5 77.5h318q111 0 188.5 -77.5t77.5 -188.5v-244q0 -111 -78 -188.5 t-188 -77.5h-584z" />
<glyph unicode=":" horiz-adv-x="323" d="M121 61v80q0 61 61 62h80q61 0 62 -62v-80q0 -61 -62 -61h-80q-61 0 -61 61zM121 635v80q0 61 61 61h80q61 0 62 -61v-80q0 -61 -62 -62h-80q-61 0 -61 62z" />
<glyph unicode=";" horiz-adv-x="325" d="M-172 -240q0 84 83 143.5t200 59.5h213q0 -84 -83 -143.5t-200 -59.5h-213zM121 61v80q0 61 61 62h80q61 0 62 -62v-80q0 -61 -62 -61h-80q-61 0 -61 61zM121 635v80q0 61 61 61h80q61 0 62 -61v-80q0 -61 -62 -62h-80q-61 0 -61 62z" />
<glyph unicode="&#x3c;" horiz-adv-x="905" d="M121 61v89q0 61 61 61h88q61 0 62 -61v-89q0 -61 -62 -61h-88q-61 0 -61 61zM121 356v88q0 61 61 62h88q61 0 62 -62v-88q0 -61 -62 -61h-88q-61 0 -61 61zM121 627v88q0 61 61 61h88q61 0 62 -61v-88q0 -61 -62 -62h-88q-61 0 -61 62zM360 43v61q0 43 43 43h62 q43 0 43 -43v-61q0 -43 -43 -43h-62q-43 0 -43 43zM360 256v61q0 43 43 43h62q43 0 43 -43v-61q0 -43 -43 -43h-62q-43 0 -43 43zM360 463v61q0 43 43 43h62q43 0 43 -43v-61q0 -43 -43 -43h-62q-43 0 -43 43zM360 672v61q0 43 43 43h62q43 0 43 -43v-61q0 -43 -43 -43h-62 q-43 0 -43 43zM551 31v43q0 29 31 28h43q31 0 30 -28v-43q0 -31 -30 -31h-43q-31 0 -31 31zM551 158v43q0 31 31 30h43q31 0 30 -30v-43q0 -29 -30 -29h-43q-31 0 -31 29zM551 303v43q0 31 31 31h43q31 0 30 -31v-43q0 -29 -30 -29h-43q-31 0 -31 29zM551 444v43q0 31 31 31 h43q31 0 30 -31v-43q0 -29 -30 -28h-43q-31 0 -31 28zM551 578v43q0 29 31 28h43q31 0 30 -28v-43q0 -31 -30 -31h-43q-31 0 -31 31zM551 702v43q0 31 31 31h43q31 0 30 -31v-43q0 -29 -30 -28h-43q-31 0 -31 28zM688 20v31q0 20 21 21h30q20 0 21 -21v-31q0 -20 -21 -20 h-30q-20 0 -21 20zM688 131v31q0 20 21 20h30q20 0 21 -20v-31q0 -20 -21 -20h-30q-20 0 -21 20zM688 233v31q0 20 21 21h30q20 0 21 -21v-31q0 -20 -21 -20h-30q-20 0 -21 20zM688 344v31q0 20 21 20h30q20 0 21 -20v-31q0 -20 -21 -20h-30q-20 0 -21 20zM688 446v29 q0 23 21 23h30q20 0 21 -23v-29q0 -23 -21 -22h-30q-20 0 -21 22zM688 545v30q0 20 21 21h30q20 0 21 -21v-30q0 -23 -21 -23h-30q-20 0 -21 23zM688 637v31q0 20 21 20h30q20 0 21 -20v-31q0 -23 -21 -23h-30q-20 0 -21 23zM688 725v31q0 20 21 20h30q20 0 21 -20v-31 q0 -20 -21 -20h-30q-20 0 -21 20zM793 14v23q0 14 16 14h20q14 0 15 -14v-23q0 -14 -15 -14h-20q-16 0 -16 14zM793 92v21q0 14 16 14h20q14 0 15 -14v-21q0 -14 -15 -14h-20q-16 0 -16 14zM793 164v20q0 14 16 15h20q14 0 15 -15v-20q0 -14 -15 -14h-20q-16 0 -16 14z M793 248v20q0 14 16 15h20q14 0 15 -15v-20q0 -14 -15 -15h-20q-16 0 -16 15zM793 326v20q0 14 16 14h20q14 0 15 -14v-20q0 -16 -15 -17h-20q-16 0 -16 17zM793 395v23q0 14 16 14h20q14 0 15 -14v-23q0 -14 -15 -14h-20q-16 0 -16 14zM793 473v21q0 16 16 16h20 q14 0 15 -16v-21q0 -14 -15 -14h-20q-16 0 -16 14zM793 545v20q0 16 16 17h20q14 0 15 -17v-20q0 -14 -15 -15h-20q-16 0 -16 15zM793 614v21q0 14 16 14h20q14 0 15 -14v-21q0 -14 -15 -14h-20q-16 0 -16 14zM793 678v22q0 14 16 15h20q14 0 15 -15v-22q0 -14 -15 -14h-20 q-16 0 -16 14zM793 739v23q0 14 16 14h20q14 0 15 -14v-23q0 -14 -15 -14h-20q-16 0 -16 14zM872 10v15q0 10 11 10h14q10 0 10 -10v-15q0 -10 -10 -10h-14q-10 0 -11 10zM872 59v17q0 10 11 10h14q10 0 10 -10v-17q0 -10 -10 -10h-14q-10 0 -11 10zM872 109v14q0 10 11 10 h14q10 0 10 -10v-14q0 -10 -10 -11h-14q-10 0 -11 11zM872 154v14q0 10 11 10h14q10 0 10 -10v-14q0 -10 -10 -11h-14q-10 0 -11 11zM872 197v14q0 12 11 12h14q10 0 10 -12v-14q0 -10 -10 -11h-14q-10 0 -11 11zM872 244v14q0 10 11 10h14q10 0 10 -10v-14q0 -10 -10 -11 h-14q-10 0 -11 11zM872 297v14q0 10 11 11h14q10 0 10 -11v-14q0 -10 -10 -10h-14q-10 0 -11 10zM872 348v14q0 10 11 11h14q10 0 10 -11v-14q0 -10 -10 -10h-14q-10 0 -11 10zM872 406v16q0 10 11 10h14q10 0 10 -10v-16q0 -10 -10 -11h-14q-10 0 -11 11zM872 461v14 q0 10 11 10h14q10 0 10 -10v-14q0 -10 -10 -10h-14q-10 0 -11 10zM872 510v14q0 10 11 11h14q10 0 10 -11v-14q0 -10 -10 -10h-14q-10 0 -11 10zM872 565v15q0 10 11 10h14q10 0 10 -10v-15q0 -12 -10 -12h-14q-10 0 -11 12zM872 614v15q0 10 11 10h14q10 0 10 -10v-15 q0 -10 -10 -10h-14q-10 0 -11 10zM872 664v14q0 10 11 10h14q10 0 10 -10v-14q0 -12 -10 -13h-14q-10 0 -11 13zM872 709v14q0 10 11 10h14q10 0 10 -10v-14q0 -10 -10 -11h-14q-10 0 -11 11zM872 752v14q0 10 11 10h14q10 0 10 -10v-14q0 -10 -10 -11h-14q-10 0 -11 11z " />
<glyph unicode="=" horiz-adv-x="944" d="M119 299v342q0 57 41 94t98 33q270 -27 381 -16l164 16q57 4 98 -33t41 -94v-342q0 -131 -122 -220t-290 -89t-289.5 89t-121.5 220zM147 299q0 -117 113 -199t270 -82q158 0 270.5 82t112.5 199v342q0 45 -31.5 73.5t-76.5 24.5l-162 -16q-115 -10 -227 0l-160 16 q-45 4 -77 -24.5t-32 -73.5v-342zM158 551q0 6 6 6t6 -6t-6 -6t-6 6zM158 627q0 6 8 6t8 -6q0 -8 -8 -9q-8 0 -8 9zM158 633q12 88 92 94q29 0 170 -12q121 -10 158 -6q-139 -23 -240 -9q-27 4 -51 5q-113 0 -129 -72zM162 590q0 27 24 26h7q-2 2 -3 7q0 12 13 12 q12 0 12 -12t-12 -13q10 -8 10 -20q0 -25 -27 -25q-25 0 -24 25zM178 528q0 10 10 11q9 -1 9 -11t-9 -10q-10 0 -10 10zM354 440q-2 37 37 37h176q10 23 23 21q10 -2 14 -21h66q39 0 37 -37l-7 -96q-2 -37 -36 -37h-123q-8 -16 -23 -16q-14 0 -22 16h-99q-35 0 -37 37z M381 174v47h301v-47h-301zM381 436q0 -14 2 -51h2q16 18 25 18q6 0 12 -6q8 18 18.5 39t22.5 19q10 0 20 -64q37 20 64 -6h4v4q6 25 20 72h-174q-16 -12 -16 -25zM383 160q0 4 6 4q4 0 4 -4t-4 -4q-6 0 -6 4zM383 383q0 -29 14 -57h101q-6 20 -15 57h-8q-2 -2 -6 -4 q-18 -12 -25 -10q-8 2 -16 14h-10l-2 -4q-8 -14 -13 -14q-8 -2 -18 18h-2zM387 383q10 -16 16 -16q2 0 11 14l2 2h-29zM387 385h29l4 8q-6 6 -10 8q-8 0 -23 -16zM391 199q0 -10 10 -11q11 1 11 11q0 8 -11 8q-10 0 -10 -8zM399 160q0 4 7 4q4 0 4 -4t-4 -4q-6 0 -7 4z M416 160q0 4 6 4q4 0 4 -4t-4 -4q-6 0 -6 4zM418 385h8q-2 4 -4 6zM422 395q2 -2 6 -8v-2h45q4 2 8 6q-2 31 -18 62q-10 2 -21 -17q-2 -6 -20 -41zM424 199q0 -10 8 -11q10 1 10 11q0 8 -10 8q-8 0 -8 -8zM430 383q8 -12 14 -12q6 -2 23 10q2 0 4 2h-41zM432 160q0 4 6 4 q4 0 4 -4t-4 -4q-6 0 -6 4zM449 160q0 4 6 4q4 0 4 -4t-4 -4q-6 0 -6 4zM455 199q0 -10 10 -11q10 1 10 11q0 8 -10 8t-10 -8zM465 160q0 4 4 4q6 0 6 -4t-6 -4q-4 0 -4 4zM477 385h6v4q-2 -2 -6 -4zM481 160q0 4 4 4q7 0 7 -4t-7 -4q-4 0 -4 4zM485 383q8 -39 17 -57h33 q4 12 14 53q0 2 -2 4h-62zM485 385h58q-27 23 -58 4v-4zM487 199q0 -10 11 -11q10 1 10 11q0 8 -10 8t-11 -8zM498 160q0 4 4 4q6 0 6 -4t-6 -4q-4 0 -4 4zM504 317q6 -14 14 -14t14 14h-28zM514 160q0 4 4 4q6 0 6 -4t-6 -4q-4 0 -4 4zM520 199q0 -10 10 -11q11 1 11 11 q0 8 -11 8q-10 0 -10 -8zM530 160q0 4 5 4q6 0 6 -4t-6 -4q-4 0 -5 4zM537 326h127q18 0 18 18l2 39h-35q-20 -55 -33 -51q-8 2 -14 51h-4q-10 -14 -23 -14q-12 -2 -24 10q-4 -18 -14 -53zM547 160q0 4 4 4q6 0 6 -4t-6 -4q-4 0 -4 4zM549 383h1h1h-2zM553 199q0 -10 10 -11 q10 1 10 11q0 8 -10 8t-10 -8zM553 381q12 -10 22 -10q11 2 21 12h-43v-2zM553 385h45q2 4 4 6q-2 23 -6 70h-23q-8 -33 -20 -76zM563 160q0 4 4 4q6 0 6 -4t-6 -4q-4 0 -4 4zM565 47q23 35 72 31q14 0 29 8q36 23 73 82q-16 -33 -39 -59q-55 -59 -135 -62zM575 467h19 q-2 16 -6 18q-6 -2 -13 -18zM580 160q0 4 4 4q6 0 6 -4t-6 -4q-4 0 -4 4zM586 199q0 -10 10 -11q10 1 10 11q0 8 -10 8t-10 -8zM596 160q0 4 4 4q6 0 6 -4t-6 -4q-4 0 -4 4zM598 461q2 -31 6 -68q10 14 27 17q10 0 22 -7q6 12 13 13q4 0 12 -27l2 -4h4l4 57q0 18 -18 19h-72 zM600 385h2v2zM604 383q2 -25 12 -49q12 -4 25 35q2 6 6 14h-43zM604 385h43q0 2 6 14v2q-12 6 -22 7q-14 -2 -27 -19v-4zM612 160q0 4 4 4q7 0 7 -4t-7 -4q-4 0 -4 4zM618 199q0 -10 11 -11q8 1 8 11q0 8 -8 8q-10 0 -11 -8zM629 160q0 4 4 4t4 -4t-4 -4t-4 4zM643 160 q0 4 6 4q4 0 4 -4t-4 -4q-6 0 -6 4zM649 199q0 -10 10 -11q11 1 11 11q0 8 -11 8q-10 0 -10 -8zM649 385h25q-12 12 -19 14v-2zM655 401q13 -6 23 -16l-2 2q-6 27 -10 27q-4 -2 -11 -13zM659 160q0 4 7 4q4 0 4 -4t-4 -4q-6 0 -7 4zM770 147q0 14 14 15q13 -1 13 -15 q0 -12 -13 -12q-14 0 -14 12zM772 125q0 4 4 4t4 -4t-4 -4t-4 4zM786 127q0 6 5 6q6 0 6 -6t-6 -6q-4 0 -5 6zM797 137q0 10 10 10t10 -10l-2 -2q78 94 78 211v256q-2 16 -8 35q-14 43 -54 88q72 -14 72 -123v-309q-2 -31 -12 -57q-23 -66 -80 -107l2 2q-4 -2 -6 -2 q-10 0 -10 8zM805 172q0 12 12 12q10 0 10 -12q0 -10 -10 -10q-12 0 -12 10z" />
<glyph unicode="&#x3e;" horiz-adv-x="911" d="M121 61v89q0 61 61 61h88q61 0 62 -61v-89q0 -61 -62 -61h-88q-61 0 -61 61zM121 356v88q0 61 61 62h88q61 0 62 -62v-88q0 -61 -62 -61h-88q-61 0 -61 61zM121 627v88q0 61 61 61h88q61 0 62 -61v-88q0 -61 -62 -62h-88q-61 0 -61 62zM360 43v61q0 43 43 43h62 q43 0 43 -43v-61q0 -43 -43 -43h-62q-43 0 -43 43zM360 256v61q0 43 43 43h62q43 0 43 -43v-61q0 -43 -43 -43h-62q-43 0 -43 43zM360 463v61q0 43 43 43h62q43 0 43 -43v-61q0 -43 -43 -43h-62q-43 0 -43 43zM360 672v61q0 43 43 43h62q43 0 43 -43v-61q0 -43 -43 -43h-62 q-43 0 -43 43zM551 31v43q0 29 31 28h43q31 0 30 -28v-43q0 -31 -30 -31h-43q-31 0 -31 31zM551 158v43q0 31 31 30h43q31 0 30 -30v-43q0 -29 -30 -29h-43q-31 0 -31 29zM551 303v43q0 31 31 31h43q31 0 30 -31v-43q0 -29 -30 -29h-43q-31 0 -31 29zM551 444v43q0 31 31 31 h43q31 0 30 -31v-43q0 -29 -30 -28h-43q-31 0 -31 28zM551 578v43q0 29 31 28h43q31 0 30 -28v-43q0 -31 -30 -31h-43q-31 0 -31 31zM551 702v43q0 31 31 31h43q31 0 30 -31v-43q0 -29 -30 -28h-43q-31 0 -31 28zM688 20v31q0 20 21 21h30q20 0 21 -21v-31q0 -20 -21 -20 h-30q-20 0 -21 20zM688 131v31q0 20 21 20h30q20 0 21 -20v-31q0 -20 -21 -20h-30q-20 0 -21 20zM688 233v31q0 20 21 21h30q20 0 21 -21v-31q0 -20 -21 -20h-30q-20 0 -21 20zM688 344v31q0 20 21 20h30q20 0 21 -20v-31q0 -20 -21 -20h-30q-20 0 -21 20zM688 446v29 q0 23 21 23h30q20 0 21 -23v-29q0 -23 -21 -22h-30q-20 0 -21 22zM688 545v30q0 20 21 21h30q20 0 21 -21v-30q0 -23 -21 -23h-30q-20 0 -21 23zM688 637v31q0 20 21 20h30q20 0 21 -20v-31q0 -23 -21 -23h-30q-20 0 -21 23zM688 725v31q0 20 21 20h30q20 0 21 -20v-31 q0 -20 -21 -20h-30q-20 0 -21 20zM793 14v23q0 14 16 14h20q14 0 15 -14v-23q0 -14 -15 -14h-20q-16 0 -16 14zM793 92v21q0 14 16 14h20q14 0 15 -14v-21q0 -14 -15 -14h-20q-16 0 -16 14zM793 164v20q0 14 16 15h20q14 0 15 -15v-20q0 -14 -15 -14h-20q-16 0 -16 14z M793 248v20q0 14 16 15h20q14 0 15 -15v-20q0 -14 -15 -15h-20q-16 0 -16 15zM793 326v20q0 14 16 14h20q14 0 15 -14v-20q0 -16 -15 -17h-20q-16 0 -16 17zM793 395v23q0 14 16 14h20q14 0 15 -14v-23q0 -14 -15 -14h-20q-16 0 -16 14zM793 473v21q0 16 16 16h20 q14 0 15 -16v-21q0 -14 -15 -14h-20q-16 0 -16 14zM793 545v20q0 16 16 17h20q14 0 15 -17v-20q0 -14 -15 -15h-20q-16 0 -16 15zM793 614v21q0 14 16 14h20q14 0 15 -14v-21q0 -14 -15 -14h-20q-16 0 -16 14zM793 678v22q0 14 16 15h20q14 0 15 -15v-22q0 -14 -15 -14h-20 q-16 0 -16 14zM793 739v23q0 14 16 14h20q14 0 15 -14v-23q0 -14 -15 -14h-20q-16 0 -16 14zM872 10v15q0 10 11 10h14q10 0 10 -10v-15q0 -10 -10 -10h-14q-10 0 -11 10zM872 59v17q0 10 11 10h14q10 0 10 -10v-17q0 -10 -10 -10h-14q-10 0 -11 10zM872 109v14q0 10 11 10 h14q10 0 10 -10v-14q0 -10 -10 -11h-14q-10 0 -11 11zM872 154v14q0 10 11 10h14q10 0 10 -10v-14q0 -10 -10 -11h-14q-10 0 -11 11zM872 197v14q0 12 11 12h14q10 0 10 -12v-14q0 -10 -10 -11h-14q-10 0 -11 11zM872 244v14q0 10 11 10h14q10 0 10 -10v-14q0 -10 -10 -11 h-14q-10 0 -11 11zM872 297v14q0 10 11 11h14q10 0 10 -11v-14q0 -10 -10 -10h-14q-10 0 -11 10zM872 348v14q0 10 11 11h14q10 0 10 -11v-14q0 -10 -10 -10h-14q-10 0 -11 10zM872 406v16q0 10 11 10h14q10 0 10 -10v-16q0 -10 -10 -11h-14q-10 0 -11 11zM872 461v14 q0 10 11 10h14q10 0 10 -10v-14q0 -10 -10 -10h-14q-10 0 -11 10zM872 510v14q0 10 11 11h14q10 0 10 -11v-14q0 -10 -10 -10h-14q-10 0 -11 10zM872 565v15q0 10 11 10h14q10 0 10 -10v-15q0 -12 -10 -12h-14q-10 0 -11 12zM872 614v15q0 10 11 10h14q10 0 10 -10v-15 q0 -10 -10 -10h-14q-10 0 -11 10zM872 664v14q0 10 11 10h14q10 0 10 -10v-14q0 -12 -10 -13h-14q-10 0 -11 13zM872 709v14q0 10 11 10h14q10 0 10 -10v-14q0 -10 -10 -11h-14q-10 0 -11 11zM872 752v14q0 10 11 10h14q10 0 10 -10v-14q0 -10 -10 -11h-14q-10 0 -11 11z " />
<glyph unicode="?" horiz-adv-x="974" d="M121 203h213q117 0 199.5 -59.5t82.5 -143.5h-213q-117 0 -199.5 59.5t-82.5 143.5zM121 231q0 84 83 143.5t199 59.5l302 2q61 0 61 62v12q0 61 -61 61l-302 2q-117 0 -199.5 59.5t-82.5 143.5h584q111 0 188.5 -77.5t77.5 -188.5v-12q0 -111 -78 -189t-188 -78h-584z " />
<glyph unicode="@" d="M121 0v510q0 111 77.5 188.5t188.5 77.5h318q111 0 188.5 -77.5t77.5 -188.5v-244q0 -111 -78 -188.5t-188 -77.5h-17q-111 0 -188.5 78t-77.5 188v2q0 111 78 189t188 78h72q-14 37 -55 36h-318q-61 0 -61 -61l-2 -227q-2 -117 -60.5 -200t-142.5 -83zM627 266 q0 -61 61 -61h17q61 0 61 61v64l-80 2q-59 0 -59 -64v-2z" />
<glyph unicode="A" d="M121 0v510q0 111 77.5 188.5t188.5 77.5h318q111 0 188.5 -77.5t77.5 -188.5v-510q-84 0 -142.5 83t-60.5 200l-2 227q0 61 -61 61h-318q-61 0 -61 -61l-2 -139h141q117 0 200 -60.5t83 -144.5h-443q-53 -166 -184 -166z" />
<glyph unicode="B" d="M121 266v797q84 0 143.5 -83t59.5 -200l2 -514q0 -61 61 -61h318q61 0 61 61v244q0 59 -61 61l-62 2q-119 4 -201 61.5t-82 141.5h345q111 0 188.5 -77.5t77.5 -188.5v-244q0 -111 -78 -188.5t-188 -77.5h-318q-111 0 -188.5 78t-77.5 188z" />
<glyph unicode="C" d="M121 266v244q0 111 77.5 188.5t188.5 77.5h584q0 -84 -83 -143.5t-200 -59.5l-301 -2q-61 0 -61 -61v-244q0 -61 61 -61l301 -2q117 0 200 -59.5t83 -143.5h-584q-111 0 -188.5 78t-77.5 188z" />
<glyph unicode="D" d="M121 266v244q0 111 77.5 188.5t188.5 77.5h344q0 -84 -82 -141t-200 -62l-62 -2q-61 -2 -61 -61v-244q0 -61 61 -61h318q61 0 61 61l2 514q0 117 59.5 200t143.5 83v-797q0 -111 -78 -188.5t-188 -77.5h-318q-111 0 -188.5 78t-77.5 188z" />
<glyph unicode="E" d="M121 266v244q0 111 77.5 188.5t188.5 77.5h318q111 0 188.5 -77.5t77.5 -188.5v-2q0 -111 -78 -188.5t-188 -77.5h-295q0 84 82.5 143t199.5 59l13 2q61 10 61 62v2q0 61 -61 61h-318q-61 0 -61 -61v-244q0 -61 61 -61l301 -2q117 0 200 -59.5t83 -143.5h-584 q-111 0 -188.5 78t-77.5 188z" />
<glyph unicode="F" horiz-adv-x="974" d="M121 0v510q0 111 77.5 188.5t188.5 77.5h584q0 -84 -83 -144.5t-200 -60.5h-301q-61 0 -61 -61v-23h450q0 -84 -83 -143t-199 -59h-170v-2q-2 -117 -60.5 -200t-142.5 -83z" />
<glyph unicode="G" horiz-adv-x="974" d="M121 266v244q0 111 77.5 188.5t188.5 77.5h584q0 -84 -83 -143.5t-200 -59.5l-301 -2q-61 0 -61 -61v-244q0 -61 61 -61h318q61 0 61 61v2q0 51 -61 62l-13 2q-117 0 -199.5 59.5t-82.5 143.5h295q111 0 188.5 -78t77.5 -189v-2q0 -111 -78 -188.5t-188 -77.5h-318 q-111 0 -188.5 78t-77.5 188z" />
<glyph unicode="H" d="M121 0v494q0 117 60.5 199.5t144.5 82.5v-284h440v2q0 117 60.5 199.5t144.5 82.5v-493q0 -117 -60.5 -200t-144.5 -83v287h-440v-4q0 -117 -60.5 -200t-144.5 -83z" />
<glyph unicode="I" horiz-adv-x="325" d="M121 0v494q0 117 60.5 199.5t144.5 82.5v-493q0 -117 -60.5 -200t-144.5 -83z" />
<glyph unicode="J" horiz-adv-x="974" d="M121 0q0 84 83 144.5t199 60.5h302q61 0 61 61l2 228q2 117 60.5 199.5t142.5 82.5v-510q0 -111 -78 -188.5t-188 -77.5h-584z" />
<glyph unicode="K" d="M121 776q84 0 144.5 -83t60.5 -199v-43h379q49 0 61 61l2 10q0 117 59.5 200t143.5 83v-293q0 -111 -78 -188.5t-188 -77.5h-127q18 -41 55 -41h55q117 0 200 -60.5t83 -144.5h-338q-104 0 -181 70.5t-85 175.5h-41v-246q-84 0 -143.5 83t-59.5 200z" />
<glyph unicode="L" d="M121 266v510q84 0 142.5 -83t60.5 -199l2 -228q0 -61 61 -61h301q117 0 200 -60.5t83 -144.5h-584q-111 0 -188.5 78t-77.5 188z" />
<glyph unicode="M" horiz-adv-x="1288" d="M121 0v510q0 111 77.5 188.5t188.5 77.5h635q111 0 188.5 -77.5t77.5 -188.5v-510q-84 0 -142.5 83t-60.5 200l-2 227q0 61 -61 61h-57q6 -31 6 -61v-510q-84 0 -142.5 83t-60.5 200l-2 227q0 61 -61 61t-62 -61l-2 -227q-2 -117 -60.5 -200t-142.5 -83v510q0 31 6 61 h-57q-61 0 -61 -61l-2 -227q-2 -117 -60.5 -200t-142.5 -83z" />
<glyph unicode="N" d="M121 0v510q0 111 77.5 188.5t188.5 77.5h318q111 0 188.5 -77.5t77.5 -188.5v-510q-84 0 -142.5 83t-60.5 200l-2 227q0 61 -61 61h-318q-61 0 -61 -61l-2 -227q-2 -117 -60.5 -200t-142.5 -83z" />
<glyph unicode="O" d="M121 266v244q0 111 77.5 188.5t188.5 77.5h318q111 0 188.5 -77.5t77.5 -188.5v-244q0 -111 -78 -188.5t-188 -77.5h-318q-111 0 -188.5 78t-77.5 188zM326 266q0 -61 61 -61h318q61 0 61 61v244q0 61 -61 61h-318q-61 0 -61 -61v-244z" />
<glyph unicode="P" d="M121 0v510q0 111 77.5 188.5t188.5 77.5h318q111 0 188.5 -77.5t77.5 -188.5v-12q0 -111 -78 -189t-188 -78h-345q0 84 82 141.5t201 61.5l62 2q61 2 61 62v12q0 61 -61 61h-318q-61 0 -61 -61l-2 -172q-2 -123 -60 -227q-63 -111 -143 -111z" />
<glyph unicode="Q" horiz-adv-x="974" d="M121 266v244q0 111 77.5 188.5t188.5 77.5h318q111 0 188.5 -77.5t77.5 -188.5v-244q0 -111 -78 -188.5t-188 -77.5h-318q-111 0 -188.5 78t-77.5 188zM326 266q0 -61 61 -61h318q61 0 61 61v244q0 61 -61 61h-318q-61 0 -61 -61v-244zM475 -37h213q117 0 200 -59.5 t83 -143.5h-213q-117 0 -200 59.5t-83 143.5z" />
<glyph unicode="R" d="M121 0v510q0 111 77.5 188.5t188.5 77.5h318q111 0 188.5 -77.5t77.5 -188.5v-4q0 -111 -78 -188.5t-188 -77.5h-132q18 -35 54 -35h55q117 0 200 -60.5t83 -144.5h-338q-102 0 -179 69.5t-88 170.5q0 84 82 141t201 61l62 2q61 2 61 62v4q0 61 -61 61h-318 q-61 0 -61 -61l-2 -172q-2 -123 -60 -227q-63 -111 -143 -111z" />
<glyph unicode="S" horiz-adv-x="974" d="M121 0q0 84 83 143.5t199 59.5l302 2q61 0 61 61v2q0 61 -61 62h-299q-117 0 -200 59.5t-83 142.5l582 3q111 0 188.5 -78t77.5 -189v-2q0 -111 -78 -188.5t-188 -77.5h-584zM121 573q0 84 83 143.5t199 59.5h572q0 -84 -83 -143.5t-200 -59.5h-571z" />
<glyph unicode="T" horiz-adv-x="974" d="M121 573q0 84 83 143.5t199 59.5h46q0 -84 -83 -143.5t-200 -59.5h-45zM387 0v510q0 111 78 188.5t188 77.5h318q0 -82 -82 -139t-201 -64l-35 -2q-61 -4 -61 -61v-227q0 -117 -60.5 -200t-144.5 -83z" />
<glyph unicode="U" d="M121 266v510q84 0 142.5 -83t60.5 -199l2 -228q0 -61 61 -61h318q61 0 61 61l2 228q2 117 60.5 199.5t142.5 82.5v-510q0 -111 -78 -188.5t-188 -77.5h-318q-111 0 -188.5 78t-77.5 188z" />
<glyph unicode="V" d="M121 266v510q84 0 142.5 -83t60.5 -199l2 -228q0 -61 61 -61h318q61 0 61 61l2 228q2 117 60.5 199.5t142.5 82.5v-510q0 -111 -78 -188.5t-188 -77.5h-318q-111 0 -188.5 78t-77.5 188z" />
<glyph unicode="W" horiz-adv-x="1288" d="M121 266v510q84 0 142.5 -83t60.5 -199l2 -228q0 -61 61 -61h57q-6 31 -6 61v510q84 0 142.5 -83t60.5 -199l2 -228q0 -61 62 -61q61 0 61 61l2 228q2 117 60.5 199.5t142.5 82.5v-510q0 -31 -6 -61h57q61 0 61 61l2 228q2 117 60.5 199.5t142.5 82.5v-510 q0 -111 -77.5 -188.5t-188.5 -77.5h-635q-111 0 -188.5 78t-77.5 188z" />
<glyph unicode="X" horiz-adv-x="1030" d="M121 0q0 84 83 143.5t199 59.5l9 2q61 16 61 61v244q0 47 -61 61l-9 2q-117 0 -199.5 59.5t-82.5 143.5h291q92 0 163 -57q72 57 164 57h291q0 -84 -83 -143.5t-199 -59.5l-9 -2q-61 -14 -61 -61v-244q0 -45 61 -61l9 -2q117 0 199.5 -59.5t82.5 -143.5h-291 q-92 0 -164 57q-72 -57 -163 -57h-291z" />
<glyph unicode="Y" d="M121 0q0 84 83 143.5t199 59.5l302 2q33 0 49 28h-367q-111 0 -188.5 78t-77.5 189v288q84 0 143.5 -82.5t59.5 -199.5l2 -12q10 -61 61 -62h318q51 0 61 62l2 12q0 117 59.5 199.5t143.5 82.5v-522q0 -111 -78 -188.5t-188 -77.5h-584z" />
<glyph unicode="Z" horiz-adv-x="976" d="M121 776h571q117 0 200 -59.5t83 -143.5h-572q-117 0 -199.5 59.5t-82.5 143.5zM125 266v2q0 111 78 189t188 78l582 -3q0 -84 -83 -143t-200 -59h-299q-61 0 -61 -62v-2q0 -61 61 -61l301 -2q117 0 200 -59.5t83 -143.5h-584q-111 0 -188.5 78t-77.5 188z" />
<glyph unicode="[" horiz-adv-x="696" d="M121 225v318q0 111 77.5 188.5t188.5 77.5h305q0 -82 -81 -137.5t-201 -65.5l-23 -2q-61 -6 -61 -61v-318q0 -55 61 -61l23 -2q121 -10 201.5 -65.5t80.5 -137.5h-305q-111 0 -188.5 78t-77.5 188z" />
<glyph unicode="\" horiz-adv-x="743" d="M121 758l309 -580q41 -78 107.5 -125t132.5 -47q39 0 73 19l-309 579q-41 80 -107.5 126t-131.5 46q-41 0 -74 -18z" />
<glyph unicode="]" horiz-adv-x="692" d="M121 -41q0 82 84 137q78 55 198 66l23 2q61 6 61 61v318q0 55 -61 61l-23 2q-121 10 -198 66q-84 55 -84 137h305q111 0 188.5 -78t77.5 -188v-318q0 -111 -77.5 -188.5t-188.5 -77.5h-305z" />
<glyph unicode="^" horiz-adv-x="946" d="M119 299v342q0 57 41 94t98 33q270 -27 381 -16l164 16q57 4 98 -33t41 -94v-342q0 -131 -122 -220t-290 -89t-289.5 89t-121.5 220zM147 299q0 -117 113 -199t270 -82q158 0 270.5 82t112.5 199v342q0 45 -31.5 73.5t-76.5 24.5l-162 -16q-115 -10 -227 0l-160 16 q-45 4 -77 -24.5t-32 -73.5v-342zM158 551q0 6 6 6t6 -6t-6 -6t-6 6zM158 627q0 6 8 6t8 -6q0 -8 -8 -9q-8 0 -8 9zM158 633q12 88 92 94q29 0 170 -12q121 -10 158 -6q-139 -23 -240 -9q-27 4 -51 5q-113 0 -129 -72zM162 590q0 27 24 26h7q-2 2 -3 7q0 12 13 12 q12 0 12 -12t-12 -13q10 -8 10 -20q0 -25 -27 -25q-25 0 -24 25zM178 528q0 10 10 11q9 -1 9 -11t-9 -10q-10 0 -10 10zM354 440q-2 37 37 37h176q10 23 23 21q10 -2 14 -21h66q39 0 37 -37l-7 -96q-2 -37 -36 -37h-123q-8 -16 -23 -16q-14 0 -22 16h-99q-35 0 -37 37z M381 174v47h301v-47h-301zM381 436q0 -14 2 -51h2q16 18 25 18q6 0 12 -6q8 18 18.5 39t22.5 19q10 0 20 -64q37 20 64 -6h4v4q6 25 20 72h-174q-16 -12 -16 -25zM383 160q0 4 6 4q4 0 4 -4t-4 -4q-6 0 -6 4zM383 383q0 -29 14 -57h101q-6 20 -15 57h-8q-2 -2 -6 -4 q-18 -12 -25 -10q-8 2 -16 14h-10l-2 -4q-8 -14 -13 -14q-8 -2 -18 18h-2zM387 383q10 -16 16 -16q2 0 11 14l2 2h-29zM387 385h29l4 8q-6 6 -10 8q-8 0 -23 -16zM391 199q0 -10 10 -11q11 1 11 11q0 8 -11 8q-10 0 -10 -8zM399 160q0 4 7 4q4 0 4 -4t-4 -4q-6 0 -7 4z M416 160q0 4 6 4q4 0 4 -4t-4 -4q-6 0 -6 4zM418 385h8q-2 4 -4 6zM422 395q2 -2 6 -8v-2h45q4 2 8 6q-2 31 -18 62q-10 2 -21 -17q-2 -6 -20 -41zM424 199q0 -10 8 -11q10 1 10 11q0 8 -10 8q-8 0 -8 -8zM430 383q8 -12 14 -12q6 -2 23 10q2 0 4 2h-41zM432 160q0 4 6 4 q4 0 4 -4t-4 -4q-6 0 -6 4zM449 160q0 4 6 4q4 0 4 -4t-4 -4q-6 0 -6 4zM455 199q0 -10 10 -11q10 1 10 11q0 8 -10 8t-10 -8zM465 160q0 4 4 4q6 0 6 -4t-6 -4q-4 0 -4 4zM477 385h6v4q-2 -2 -6 -4zM481 160q0 4 4 4q7 0 7 -4t-7 -4q-4 0 -4 4zM485 383q8 -39 17 -57h33 q4 12 14 53q0 2 -2 4h-62zM485 385h58q-27 23 -58 4v-4zM487 199q0 -10 11 -11q10 1 10 11q0 8 -10 8t-11 -8zM498 160q0 4 4 4q6 0 6 -4t-6 -4q-4 0 -4 4zM504 317q6 -14 14 -14t14 14h-28zM514 160q0 4 4 4q6 0 6 -4t-6 -4q-4 0 -4 4zM520 199q0 -10 10 -11q11 1 11 11 q0 8 -11 8q-10 0 -10 -8zM530 160q0 4 5 4q6 0 6 -4t-6 -4q-4 0 -5 4zM537 326h127q18 0 18 18l2 39h-35q-20 -55 -33 -51q-8 2 -14 51h-4q-10 -14 -23 -14q-12 -2 -24 10q-4 -18 -14 -53zM547 160q0 4 4 4q6 0 6 -4t-6 -4q-4 0 -4 4zM549 383h1h1h-2zM553 199q0 -10 10 -11 q10 1 10 11q0 8 -10 8t-10 -8zM553 381q12 -10 22 -10q11 2 21 12h-43v-2zM553 385h45q2 4 4 6q-2 23 -6 70h-23q-8 -33 -20 -76zM563 160q0 4 4 4q6 0 6 -4t-6 -4q-4 0 -4 4zM565 47q23 35 72 31q14 0 29 8q36 23 73 82q-16 -33 -39 -59q-55 -59 -135 -62zM575 467h19 q-2 16 -6 18q-6 -2 -13 -18zM580 160q0 4 4 4q6 0 6 -4t-6 -4q-4 0 -4 4zM586 199q0 -10 10 -11q10 1 10 11q0 8 -10 8t-10 -8zM596 160q0 4 4 4q6 0 6 -4t-6 -4q-4 0 -4 4zM598 461q2 -31 6 -68q10 14 27 17q10 0 22 -7q6 12 13 13q4 0 12 -27l2 -4h4l4 57q0 18 -18 19h-72 zM600 385h2v2zM604 383q2 -25 12 -49q12 -4 25 35q2 6 6 14h-43zM604 385h43q0 2 6 14v2q-12 6 -22 7q-14 -2 -27 -19v-4zM612 160q0 4 4 4q7 0 7 -4t-7 -4q-4 0 -4 4zM618 199q0 -10 11 -11q8 1 8 11q0 8 -8 8q-10 0 -11 -8zM629 160q0 4 4 4t4 -4t-4 -4t-4 4zM643 160 q0 4 6 4q4 0 4 -4t-4 -4q-6 0 -6 4zM649 199q0 -10 10 -11q11 1 11 11q0 8 -11 8q-10 0 -10 -8zM649 385h25q-12 12 -19 14v-2zM655 401q13 -6 23 -16l-2 2q-6 27 -10 27q-4 -2 -11 -13zM659 160q0 4 7 4q4 0 4 -4t-4 -4q-6 0 -7 4zM770 147q0 14 14 15q13 -1 13 -15 q0 -12 -13 -12q-14 0 -14 12zM772 125q0 4 4 4t4 -4t-4 -4t-4 4zM786 127q0 6 5 6q6 0 6 -6t-6 -6q-4 0 -5 6zM797 137q0 10 10 10t10 -10l-2 -2q78 94 78 211v256q-2 16 -8 35q-14 43 -54 88q72 -14 72 -123v-309q-2 -31 -12 -57q-23 -66 -80 -107l2 2q-4 -2 -6 -2 q-10 0 -10 8zM805 172q0 12 12 12q10 0 10 -12q0 -10 -10 -10q-12 0 -12 10z" />
<glyph unicode="_" horiz-adv-x="978" d="M123 205h565q117 0 200 -60.5t83 -144.5h-565q-117 0 -200 60.5t-83 144.5z" />
<glyph unicode="`" horiz-adv-x="593" d="M121 1022q43 35 102 35q131 0 234 -127l133 -166q-43 -35 -103 -35q-131 0 -233 127z" />
<glyph unicode="a" d="M121 266v244q0 111 77.5 188.5t188.5 77.5h318q111 0 188.5 -77.5t77.5 -188.5v-510q-84 0 -142.5 83t-60.5 200l-2 227q0 61 -61 61h-318q-61 0 -61 -61v-244q0 -61 61 -61l137 -2q117 -2 200 -60.5t83 -142.5h-420q-111 0 -188.5 78t-77.5 188z" />
<glyph unicode="b" d="M121 266v797q84 0 143.5 -83t59.5 -200l2 -514q0 -61 61 -61h318q61 0 61 61v244q0 59 -61 61l-62 2q-119 4 -201 61.5t-82 141.5h345q111 0 188.5 -77.5t77.5 -188.5v-244q0 -111 -78 -188.5t-188 -77.5h-318q-111 0 -188.5 78t-77.5 188z" />
<glyph unicode="c" d="M121 266v244q0 111 77.5 188.5t188.5 77.5h584q0 -84 -83 -143.5t-200 -59.5l-301 -2q-61 0 -61 -61v-244q0 -61 61 -61l301 -2q117 0 200 -59.5t83 -143.5h-584q-111 0 -188.5 78t-77.5 188z" />
<glyph unicode="d" d="M121 266v244q0 111 77.5 188.5t188.5 77.5h344q0 -84 -82 -141t-200 -62l-62 -2q-61 -2 -61 -61v-244q0 -61 61 -61h318q61 0 61 61l2 514q0 117 59.5 200t143.5 83v-797q0 -111 -78 -188.5t-188 -77.5h-318q-111 0 -188.5 78t-77.5 188z" />
<glyph unicode="e" d="M121 266v244q0 111 77.5 188.5t188.5 77.5h318q111 0 188.5 -77.5t77.5 -188.5v-2q0 -111 -78 -188.5t-188 -77.5h-295q0 84 82.5 143t199.5 59l13 2q61 10 61 62v2q0 61 -61 61h-318q-61 0 -61 -61v-244q0 -61 61 -61l301 -2q117 0 200 -59.5t83 -143.5h-584 q-111 0 -188.5 78t-77.5 188z" />
<glyph unicode="f" d="M121 0v797q0 111 77.5 188.5t188.5 77.5h318q111 0 188.5 -78t77.5 -188v-310q-82 0 -140 84q-53 78 -63 199l-2 27q-4 61 -61 61h-318q-61 0 -61 -61l-2 -297h364q117 -2 200 -61.5t83 -141.5h-647v-14q0 -117 -59.5 -200t-143.5 -83z" />
<glyph unicode="g" horiz-adv-x="976" d="M121 14v496q0 111 77.5 188.5t188.5 77.5h318q111 0 188.5 -77.5t77.5 -188.5v-244q0 -111 -78 -188.5t-188 -77.5h-291q0 84 83 144.5t199 60.5h9q61 0 61 61v244q0 61 -61 61h-318q-61 0 -61 -61v-496q0 -61 61 -61h395q111 0 189 -78t78 -188v-6q0 -111 -78 -189 t-189 -78h-661q0 84 83 143.5t199 59.5l379 2q61 0 62 62v6q0 61 -62 61h-395q-111 0 -188.5 78t-77.5 188z" />
<glyph unicode="h" d="M121 0v1063q84 0 143.5 -83t59.5 -200v-4h381q111 0 188.5 -77.5t77.5 -188.5v-510q-84 0 -142.5 83t-60.5 200l-2 227q0 61 -61 61h-318q-61 0 -61 -61l-2 -227q-2 -117 -60.5 -200t-142.5 -83z" />
<glyph unicode="i" horiz-adv-x="327" d="M121 0v494q0 117 60.5 199.5t144.5 82.5v-493q0 -117 -60.5 -200t-144.5 -83zM121 752v28q0 117 59.5 200t143.5 83v-29q0 -119 -59.5 -200.5t-143.5 -81.5z" />
<glyph unicode="j" d="M121 266v289q84 0 143.5 -83t59.5 -200l2 -6q20 -61 61 -61h318q61 0 61 61l2 228q2 117 60.5 199.5t142.5 82.5v-510q0 -111 -78 -188.5t-188 -77.5h-318q-111 0 -188.5 78t-77.5 188zM768 752v28q0 117 59.5 200t143.5 83v-29q0 -119 -59.5 -200.5t-143.5 -81.5z" />
<glyph unicode="k" d="M121 776q84 0 144.5 -83t60.5 -199v-43h379q49 0 61 61l2 10q0 117 59.5 200t143.5 83v-293q0 -111 -78 -188.5t-188 -77.5h-127q18 -41 55 -41h55q117 0 200 -60.5t83 -144.5h-338q-104 0 -181 70.5t-85 175.5h-41v-246q-84 0 -143.5 83t-59.5 200z" />
<glyph unicode="l" d="M121 266v510q84 0 142.5 -83t60.5 -199l2 -228q0 -61 61 -61h301q117 0 200 -60.5t83 -144.5h-584q-111 0 -188.5 78t-77.5 188z" />
<glyph unicode="m" horiz-adv-x="1288" d="M121 0v510q0 111 77.5 188.5t188.5 77.5h635q111 0 188.5 -77.5t77.5 -188.5v-510q-84 0 -142.5 83t-60.5 200l-2 227q0 61 -61 61h-57q6 -31 6 -61v-510q-84 0 -142.5 83t-60.5 200l-2 227q0 61 -61 61t-62 -61l-2 -227q-2 -117 -60.5 -200t-142.5 -83v510q0 31 6 61 h-57q-61 0 -61 -61l-2 -227q-2 -117 -60.5 -200t-142.5 -83z" />
<glyph unicode="n" d="M121 0v510q0 111 77.5 188.5t188.5 77.5h318q111 0 188.5 -77.5t77.5 -188.5v-510q-84 0 -142.5 83t-60.5 200l-2 227q0 61 -61 61h-318q-61 0 -61 -61l-2 -227q-2 -117 -60.5 -200t-142.5 -83z" />
<glyph unicode="o" d="M121 266v244q0 111 77.5 188.5t188.5 77.5h318q111 0 188.5 -77.5t77.5 -188.5v-244q0 -111 -78 -188.5t-188 -77.5h-318q-111 0 -188.5 78t-77.5 188zM326 266q0 -61 61 -61h318q61 0 61 61v244q0 61 -61 61h-318q-61 0 -61 -61v-244z" />
<glyph unicode="p" d="M121 0v510q0 111 77.5 188.5t188.5 77.5h318q111 0 188.5 -77.5t77.5 -188.5v-12q0 -111 -78 -189t-188 -78h-345q0 84 82 141.5t201 61.5l62 2q61 2 61 62v12q0 61 -61 61h-318q-61 0 -61 -61l-2 -172q-2 -123 -60 -227q-63 -111 -143 -111z" />
<glyph unicode="q" horiz-adv-x="974" d="M121 266v244q0 111 77.5 188.5t188.5 77.5h318q111 0 188.5 -77.5t77.5 -188.5v-244q0 -111 -78 -188.5t-188 -77.5h-318q-111 0 -188.5 78t-77.5 188zM326 266q0 -61 61 -61h318q61 0 61 61v244q0 61 -61 61h-318q-61 0 -61 -61v-244zM475 -37h213q117 0 200 -59.5 t83 -143.5h-213q-117 0 -200 59.5t-83 143.5z" />
<glyph unicode="r" d="M121 0v510q0 111 77.5 188.5t188.5 77.5h318q111 0 188.5 -77.5t77.5 -188.5v-283q-84 0 -142.5 83t-60.5 200q0 61 -63 61h-318q-61 0 -61 -61l-2 -227q-2 -117 -60.5 -200t-142.5 -83z" />
<glyph unicode="s" horiz-adv-x="974" d="M121 0q0 84 83 143.5t199 59.5l302 2q61 0 61 61v2q0 61 -61 62h-299q-117 0 -200 59.5t-83 142.5l582 3q111 0 188.5 -78t77.5 -189v-2q0 -111 -78 -188.5t-188 -77.5h-584zM121 573q0 84 83 143.5t199 59.5h572q0 -84 -83 -143.5t-200 -59.5h-571z" />
<glyph unicode="t" horiz-adv-x="974" d="M121 573q0 84 83 143.5t199 59.5h46q0 -84 -83 -143.5t-200 -59.5h-45zM387 0v510q0 111 78 188.5t188 77.5h318q0 -82 -82 -139t-201 -64l-35 -2q-61 -4 -61 -61v-227q0 -117 -60.5 -200t-144.5 -83z" />
<glyph unicode="u" d="M121 266v510q84 0 142.5 -83t60.5 -199l2 -228q0 -61 61 -61h318q61 0 61 61l2 228q2 117 60.5 199.5t142.5 82.5v-510q0 -111 -78 -188.5t-188 -77.5h-318q-111 0 -188.5 78t-77.5 188z" />
<glyph unicode="v" d="M121 266v510q84 0 142.5 -83t60.5 -199l2 -228q0 -61 61 -61h318q61 0 61 61l2 228q2 117 60.5 199.5t142.5 82.5v-510q0 -111 -78 -188.5t-188 -77.5h-318q-111 0 -188.5 78t-77.5 188z" />
<glyph unicode="w" horiz-adv-x="1288" d="M121 266v510q84 0 142.5 -83t60.5 -199l2 -228q0 -61 61 -61h57q-6 31 -6 61v510q84 0 142.5 -83t60.5 -199l2 -228q0 -61 62 -61q61 0 61 61l2 228q2 117 60.5 199.5t142.5 82.5v-510q0 -31 -6 -61h57q61 0 61 61l2 228q2 117 60.5 199.5t142.5 82.5v-510 q0 -111 -77.5 -188.5t-188.5 -77.5h-635q-111 0 -188.5 78t-77.5 188z" />
<glyph unicode="x" horiz-adv-x="1030" d="M121 0q0 84 83 143.5t199 59.5l9 2q61 16 61 61v244q0 47 -61 61l-9 2q-117 0 -199.5 59.5t-82.5 143.5h291q92 0 163 -57q72 57 164 57h291q0 -84 -83 -143.5t-199 -59.5l-9 -2q-61 -14 -61 -61v-244q0 -45 61 -61l9 -2q117 0 199.5 -59.5t82.5 -143.5h-291 q-92 0 -164 57q-72 -57 -163 -57h-291z" />
<glyph unicode="y" d="M121 0q0 84 83 143.5t199 59.5l302 2q33 0 49 28h-367q-111 0 -188.5 78t-77.5 189v288q84 0 143.5 -82.5t59.5 -199.5l2 -12q10 -61 61 -62h318q51 0 61 62l2 12q0 117 59.5 199.5t143.5 82.5v-522q0 -111 -78 -188.5t-188 -77.5h-584z" />
<glyph unicode="z" horiz-adv-x="976" d="M121 776h571q117 0 200 -59.5t83 -143.5h-572q-117 0 -199.5 59.5t-82.5 143.5zM125 266v2q0 111 78 189t188 78l582 -3q0 -84 -83 -143t-200 -59h-299q-61 0 -61 -62v-2q0 -61 61 -61l301 -2q117 0 200 -59.5t83 -143.5h-584q-111 0 -188.5 78t-77.5 188z" />
<glyph unicode="{" horiz-adv-x="692" d="M121 225v318q0 111 77.5 188.5t188.5 77.5h305q0 -82 -81 -137.5t-201 -65.5l-23 -2q-61 -6 -61 -61v-318q0 -55 61 -61l23 -2q121 -10 201.5 -65.5t80.5 -137.5h-305q-111 0 -188.5 78t-77.5 188z" />
<glyph unicode="|" horiz-adv-x="325" d="M121 -184v964q0 117 60.5 200t144.5 83v-965q0 -117 -60.5 -199.5t-144.5 -82.5z" />
<glyph unicode="}" horiz-adv-x="692" d="M121 -41q0 82 84 137q78 55 198 66l23 2q61 6 61 61v318q0 55 -61 61l-23 2q-121 10 -198 66q-84 55 -84 137h305q111 0 188.5 -78t77.5 -188v-318q0 -111 -77.5 -188.5t-188.5 -77.5h-305z" />
<glyph unicode="~" horiz-adv-x="1028" d="M127 848l166 133q100 80 209 80q90 -1 139 -60l-166 -133q-98 -80 -207 -80q-92 0 -141 60zM510 846l164 133q100 80 209 80q90 -1 139 -60l-166 -133q-98 -82 -207 -82q-92 0 -139 62z" />
<glyph unicode="&#xa2;" horiz-adv-x="1013" d="M121 61v89q0 61 61 61h88q61 0 62 -61v-89q0 -61 -62 -61h-88q-61 0 -61 61zM121 356v88q0 61 61 62h88q61 0 62 -62v-88q0 -61 -62 -61h-88q-61 0 -61 61zM121 627v88q0 61 61 61h88q61 0 62 -61v-88q0 -61 -62 -62h-88q-61 0 -61 62zM360 43v61q0 43 43 43h62 q43 0 43 -43v-61q0 -43 -43 -43h-62q-43 0 -43 43zM360 256v61q0 43 43 43h62q43 0 43 -43v-61q0 -43 -43 -43h-62q-43 0 -43 43zM360 463v61q0 43 43 43h62q43 0 43 -43v-61q0 -43 -43 -43h-62q-43 0 -43 43zM360 672v61q0 43 43 43h62q43 0 43 -43v-61q0 -43 -43 -43h-62 q-43 0 -43 43zM551 31v43q0 29 31 28h43q31 0 30 -28v-43q0 -31 -30 -31h-43q-31 0 -31 31zM551 158v43q0 31 31 30h43q31 0 30 -30v-43q0 -29 -30 -29h-43q-31 0 -31 29zM551 303v43q0 31 31 31h43q31 0 30 -31v-43q0 -29 -30 -29h-43q-31 0 -31 29zM551 444v43q0 31 31 31 h43q31 0 30 -31v-43q0 -29 -30 -28h-43q-31 0 -31 28zM551 578v43q0 29 31 28h43q31 0 30 -28v-43q0 -31 -30 -31h-43q-31 0 -31 31zM551 702v43q0 31 31 31h43q31 0 30 -31v-43q0 -29 -30 -28h-43q-31 0 -31 28zM688 20v31q0 20 21 21h30q20 0 21 -21v-31q0 -20 -21 -20 h-30q-20 0 -21 20zM688 131v31q0 20 21 20h30q20 0 21 -20v-31q0 -20 -21 -20h-30q-20 0 -21 20zM688 233v31q0 20 21 21h30q20 0 21 -21v-31q0 -20 -21 -20h-30q-20 0 -21 20zM688 344v31q0 20 21 20h30q20 0 21 -20v-31q0 -20 -21 -20h-30q-20 0 -21 20zM688 446v29 q0 23 21 23h30q20 0 21 -23v-29q0 -23 -21 -22h-30q-20 0 -21 22zM688 545v30q0 20 21 21h30q20 0 21 -21v-30q0 -23 -21 -23h-30q-20 0 -21 23zM688 637v31q0 20 21 20h30q20 0 21 -20v-31q0 -23 -21 -23h-30q-20 0 -21 23zM688 725v31q0 20 21 20h30q20 0 21 -20v-31 q0 -20 -21 -20h-30q-20 0 -21 20zM793 14v23q0 14 16 14h20q14 0 15 -14v-23q0 -14 -15 -14h-20q-16 0 -16 14zM793 92v21q0 14 16 14h20q14 0 15 -14v-21q0 -14 -15 -14h-20q-16 0 -16 14zM793 164v20q0 14 16 15h20q14 0 15 -15v-20q0 -14 -15 -14h-20q-16 0 -16 14z M793 248v20q0 14 16 15h20q14 0 15 -15v-20q0 -14 -15 -15h-20q-16 0 -16 15zM793 326v20q0 14 16 14h20q14 0 15 -14v-20q0 -16 -15 -17h-20q-16 0 -16 17zM793 395v23q0 14 16 14h20q14 0 15 -14v-23q0 -14 -15 -14h-20q-16 0 -16 14zM793 473v21q0 16 16 16h20 q14 0 15 -16v-21q0 -14 -15 -14h-20q-16 0 -16 14zM793 545v20q0 16 16 17h20q14 0 15 -17v-20q0 -14 -15 -15h-20q-16 0 -16 15zM793 614v21q0 14 16 14h20q14 0 15 -14v-21q0 -14 -15 -14h-20q-16 0 -16 14zM793 678v22q0 14 16 15h20q14 0 15 -15v-22q0 -14 -15 -14h-20 q-16 0 -16 14zM793 739v23q0 14 16 14h20q14 0 15 -14v-23q0 -14 -15 -14h-20q-16 0 -16 14zM872 10v15q0 10 11 10h14q10 0 10 -10v-15q0 -10 -10 -10h-14q-10 0 -11 10zM872 59v17q0 10 11 10h14q10 0 10 -10v-17q0 -10 -10 -10h-14q-10 0 -11 10zM872 109v14q0 10 11 10 h14q10 0 10 -10v-14q0 -10 -10 -11h-14q-10 0 -11 11zM872 154v14q0 10 11 10h14q10 0 10 -10v-14q0 -10 -10 -11h-14q-10 0 -11 11zM872 197v14q0 12 11 12h14q10 0 10 -12v-14q0 -10 -10 -11h-14q-10 0 -11 11zM872 244v14q0 10 11 10h14q10 0 10 -10v-14q0 -10 -10 -11 h-14q-10 0 -11 11zM872 297v14q0 10 11 11h14q10 0 10 -11v-14q0 -10 -10 -10h-14q-10 0 -11 10zM872 348v14q0 10 11 11h14q10 0 10 -11v-14q0 -10 -10 -10h-14q-10 0 -11 10zM872 406v16q0 10 11 10h14q10 0 10 -10v-16q0 -10 -10 -11h-14q-10 0 -11 11zM872 461v14 q0 10 11 10h14q10 0 10 -10v-14q0 -10 -10 -10h-14q-10 0 -11 10zM872 510v14q0 10 11 11h14q10 0 10 -11v-14q0 -10 -10 -10h-14q-10 0 -11 10zM872 565v15q0 10 11 10h14q10 0 10 -10v-15q0 -12 -10 -12h-14q-10 0 -11 12zM872 614v15q0 10 11 10h14q10 0 10 -10v-15 q0 -10 -10 -10h-14q-10 0 -11 10zM872 664v14q0 10 11 10h14q10 0 10 -10v-14q0 -12 -10 -13h-14q-10 0 -11 13zM872 709v14q0 10 11 10h14q10 0 10 -10v-14q0 -10 -10 -11h-14q-10 0 -11 11zM872 752v14q0 10 11 10h14q10 0 10 -10v-14q0 -10 -10 -11h-14q-10 0 -11 11z " />
<glyph unicode="&#xa3;" horiz-adv-x="1073" d="M119 299v342q0 57 41 94t98 33q270 -27 381 -16l164 16q57 4 98 -33t41 -94v-342q0 -131 -122 -220t-290 -89t-289.5 89t-121.5 220zM147 299q0 -117 113 -199t270 -82q158 0 270.5 82t112.5 199v342q0 45 -31.5 73.5t-76.5 24.5l-162 -16q-115 -10 -227 0l-160 16 q-45 4 -77 -24.5t-32 -73.5v-342zM158 551q0 6 6 6t6 -6t-6 -6t-6 6zM158 627q0 6 8 6t8 -6q0 -8 -8 -9q-8 0 -8 9zM158 633q12 88 92 94q29 0 170 -12q121 -10 158 -6q-139 -23 -240 -9q-27 4 -51 5q-113 0 -129 -72zM162 590q0 27 24 26h7q-2 2 -3 7q0 12 13 12 q12 0 12 -12t-12 -13q10 -8 10 -20q0 -25 -27 -25q-25 0 -24 25zM178 528q0 10 10 11q9 -1 9 -11t-9 -10q-10 0 -10 10zM354 440q-2 37 37 37h176q10 23 23 21q10 -2 14 -21h66q39 0 37 -37l-7 -96q-2 -37 -36 -37h-123q-8 -16 -23 -16q-14 0 -22 16h-99q-35 0 -37 37z M381 174v47h301v-47h-301zM381 436q0 -14 2 -51h2q16 18 25 18q6 0 12 -6q8 18 18.5 39t22.5 19q10 0 20 -64q37 20 64 -6h4v4q6 25 20 72h-174q-16 -12 -16 -25zM383 160q0 4 6 4q4 0 4 -4t-4 -4q-6 0 -6 4zM383 383q0 -29 14 -57h101q-6 20 -15 57h-8q-2 -2 -6 -4 q-18 -12 -25 -10q-8 2 -16 14h-10l-2 -4q-8 -14 -13 -14q-8 -2 -18 18h-2zM387 383q10 -16 16 -16q2 0 11 14l2 2h-29zM387 385h29l4 8q-6 6 -10 8q-8 0 -23 -16zM391 199q0 -10 10 -11q11 1 11 11q0 8 -11 8q-10 0 -10 -8zM399 160q0 4 7 4q4 0 4 -4t-4 -4q-6 0 -7 4z M416 160q0 4 6 4q4 0 4 -4t-4 -4q-6 0 -6 4zM418 385h8q-2 4 -4 6zM422 395q2 -2 6 -8v-2h45q4 2 8 6q-2 31 -18 62q-10 2 -21 -17q-2 -6 -20 -41zM424 199q0 -10 8 -11q10 1 10 11q0 8 -10 8q-8 0 -8 -8zM430 383q8 -12 14 -12q6 -2 23 10q2 0 4 2h-41zM432 160q0 4 6 4 q4 0 4 -4t-4 -4q-6 0 -6 4zM449 160q0 4 6 4q4 0 4 -4t-4 -4q-6 0 -6 4zM455 199q0 -10 10 -11q10 1 10 11q0 8 -10 8t-10 -8zM465 160q0 4 4 4q6 0 6 -4t-6 -4q-4 0 -4 4zM477 385h6v4q-2 -2 -6 -4zM481 160q0 4 4 4q7 0 7 -4t-7 -4q-4 0 -4 4zM485 383q8 -39 17 -57h33 q4 12 14 53q0 2 -2 4h-62zM485 385h58q-27 23 -58 4v-4zM487 199q0 -10 11 -11q10 1 10 11q0 8 -10 8t-11 -8zM498 160q0 4 4 4q6 0 6 -4t-6 -4q-4 0 -4 4zM504 317q6 -14 14 -14t14 14h-28zM514 160q0 4 4 4q6 0 6 -4t-6 -4q-4 0 -4 4zM520 199q0 -10 10 -11q11 1 11 11 q0 8 -11 8q-10 0 -10 -8zM530 160q0 4 5 4q6 0 6 -4t-6 -4q-4 0 -5 4zM537 326h127q18 0 18 18l2 39h-35q-20 -55 -33 -51q-8 2 -14 51h-4q-10 -14 -23 -14q-12 -2 -24 10q-4 -18 -14 -53zM547 160q0 4 4 4q6 0 6 -4t-6 -4q-4 0 -4 4zM549 383h1h1h-2zM553 199q0 -10 10 -11 q10 1 10 11q0 8 -10 8t-10 -8zM553 381q12 -10 22 -10q11 2 21 12h-43v-2zM553 385h45q2 4 4 6q-2 23 -6 70h-23q-8 -33 -20 -76zM563 160q0 4 4 4q6 0 6 -4t-6 -4q-4 0 -4 4zM565 47q23 35 72 31q14 0 29 8q36 23 73 82q-16 -33 -39 -59q-55 -59 -135 -62zM575 467h19 q-2 16 -6 18q-6 -2 -13 -18zM580 160q0 4 4 4q6 0 6 -4t-6 -4q-4 0 -4 4zM586 199q0 -10 10 -11q10 1 10 11q0 8 -10 8t-10 -8zM596 160q0 4 4 4q6 0 6 -4t-6 -4q-4 0 -4 4zM598 461q2 -31 6 -68q10 14 27 17q10 0 22 -7q6 12 13 13q4 0 12 -27l2 -4h4l4 57q0 18 -18 19h-72 zM600 385h2v2zM604 383q2 -25 12 -49q12 -4 25 35q2 6 6 14h-43zM604 385h43q0 2 6 14v2q-12 6 -22 7q-14 -2 -27 -19v-4zM612 160q0 4 4 4q7 0 7 -4t-7 -4q-4 0 -4 4zM618 199q0 -10 11 -11q8 1 8 11q0 8 -8 8q-10 0 -11 -8zM629 160q0 4 4 4t4 -4t-4 -4t-4 4zM643 160 q0 4 6 4q4 0 4 -4t-4 -4q-6 0 -6 4zM649 199q0 -10 10 -11q11 1 11 11q0 8 -11 8q-10 0 -10 -8zM649 385h25q-12 12 -19 14v-2zM655 401q13 -6 23 -16l-2 2q-6 27 -10 27q-4 -2 -11 -13zM659 160q0 4 7 4q4 0 4 -4t-4 -4q-6 0 -7 4zM770 147q0 14 14 15q13 -1 13 -15 q0 -12 -13 -12q-14 0 -14 12zM772 125q0 4 4 4t4 -4t-4 -4t-4 4zM786 127q0 6 5 6q6 0 6 -6t-6 -6q-4 0 -5 6zM797 137q0 10 10 10t10 -10l-2 -2q78 94 78 211v256q-2 16 -8 35q-14 43 -54 88q72 -14 72 -123v-309q-2 -31 -12 -57q-23 -66 -80 -107l2 2q-4 -2 -6 -2 q-10 0 -10 8zM805 172q0 12 12 12q10 0 10 -12q0 -10 -10 -10q-12 0 -12 10z" />
<glyph unicode="&#xa5;" horiz-adv-x="1013" d="M121 61v89q0 61 61 61h88q61 0 62 -61v-89q0 -61 -62 -61h-88q-61 0 -61 61zM121 356v88q0 61 61 62h88q61 0 62 -62v-88q0 -61 -62 -61h-88q-61 0 -61 61zM121 627v88q0 61 61 61h88q61 0 62 -61v-88q0 -61 -62 -62h-88q-61 0 -61 62zM360 43v61q0 43 43 43h62 q43 0 43 -43v-61q0 -43 -43 -43h-62q-43 0 -43 43zM360 256v61q0 43 43 43h62q43 0 43 -43v-61q0 -43 -43 -43h-62q-43 0 -43 43zM360 463v61q0 43 43 43h62q43 0 43 -43v-61q0 -43 -43 -43h-62q-43 0 -43 43zM360 672v61q0 43 43 43h62q43 0 43 -43v-61q0 -43 -43 -43h-62 q-43 0 -43 43zM551 31v43q0 29 31 28h43q31 0 30 -28v-43q0 -31 -30 -31h-43q-31 0 -31 31zM551 158v43q0 31 31 30h43q31 0 30 -30v-43q0 -29 -30 -29h-43q-31 0 -31 29zM551 303v43q0 31 31 31h43q31 0 30 -31v-43q0 -29 -30 -29h-43q-31 0 -31 29zM551 444v43q0 31 31 31 h43q31 0 30 -31v-43q0 -29 -30 -28h-43q-31 0 -31 28zM551 578v43q0 29 31 28h43q31 0 30 -28v-43q0 -31 -30 -31h-43q-31 0 -31 31zM551 702v43q0 31 31 31h43q31 0 30 -31v-43q0 -29 -30 -28h-43q-31 0 -31 28zM688 20v31q0 20 21 21h30q20 0 21 -21v-31q0 -20 -21 -20 h-30q-20 0 -21 20zM688 131v31q0 20 21 20h30q20 0 21 -20v-31q0 -20 -21 -20h-30q-20 0 -21 20zM688 233v31q0 20 21 21h30q20 0 21 -21v-31q0 -20 -21 -20h-30q-20 0 -21 20zM688 344v31q0 20 21 20h30q20 0 21 -20v-31q0 -20 -21 -20h-30q-20 0 -21 20zM688 446v29 q0 23 21 23h30q20 0 21 -23v-29q0 -23 -21 -22h-30q-20 0 -21 22zM688 545v30q0 20 21 21h30q20 0 21 -21v-30q0 -23 -21 -23h-30q-20 0 -21 23zM688 637v31q0 20 21 20h30q20 0 21 -20v-31q0 -23 -21 -23h-30q-20 0 -21 23zM688 725v31q0 20 21 20h30q20 0 21 -20v-31 q0 -20 -21 -20h-30q-20 0 -21 20zM793 14v23q0 14 16 14h20q14 0 15 -14v-23q0 -14 -15 -14h-20q-16 0 -16 14zM793 92v21q0 14 16 14h20q14 0 15 -14v-21q0 -14 -15 -14h-20q-16 0 -16 14zM793 164v20q0 14 16 15h20q14 0 15 -15v-20q0 -14 -15 -14h-20q-16 0 -16 14z M793 248v20q0 14 16 15h20q14 0 15 -15v-20q0 -14 -15 -15h-20q-16 0 -16 15zM793 326v20q0 14 16 14h20q14 0 15 -14v-20q0 -16 -15 -17h-20q-16 0 -16 17zM793 395v23q0 14 16 14h20q14 0 15 -14v-23q0 -14 -15 -14h-20q-16 0 -16 14zM793 473v21q0 16 16 16h20 q14 0 15 -16v-21q0 -14 -15 -14h-20q-16 0 -16 14zM793 545v20q0 16 16 17h20q14 0 15 -17v-20q0 -14 -15 -15h-20q-16 0 -16 15zM793 614v21q0 14 16 14h20q14 0 15 -14v-21q0 -14 -15 -14h-20q-16 0 -16 14zM793 678v22q0 14 16 15h20q14 0 15 -15v-22q0 -14 -15 -14h-20 q-16 0 -16 14zM793 739v23q0 14 16 14h20q14 0 15 -14v-23q0 -14 -15 -14h-20q-16 0 -16 14zM872 10v15q0 10 11 10h14q10 0 10 -10v-15q0 -10 -10 -10h-14q-10 0 -11 10zM872 59v17q0 10 11 10h14q10 0 10 -10v-17q0 -10 -10 -10h-14q-10 0 -11 10zM872 109v14q0 10 11 10 h14q10 0 10 -10v-14q0 -10 -10 -11h-14q-10 0 -11 11zM872 154v14q0 10 11 10h14q10 0 10 -10v-14q0 -10 -10 -11h-14q-10 0 -11 11zM872 197v14q0 12 11 12h14q10 0 10 -12v-14q0 -10 -10 -11h-14q-10 0 -11 11zM872 244v14q0 10 11 10h14q10 0 10 -10v-14q0 -10 -10 -11 h-14q-10 0 -11 11zM872 297v14q0 10 11 11h14q10 0 10 -11v-14q0 -10 -10 -10h-14q-10 0 -11 10zM872 348v14q0 10 11 11h14q10 0 10 -11v-14q0 -10 -10 -10h-14q-10 0 -11 10zM872 406v16q0 10 11 10h14q10 0 10 -10v-16q0 -10 -10 -11h-14q-10 0 -11 11zM872 461v14 q0 10 11 10h14q10 0 10 -10v-14q0 -10 -10 -10h-14q-10 0 -11 10zM872 510v14q0 10 11 11h14q10 0 10 -11v-14q0 -10 -10 -10h-14q-10 0 -11 10zM872 565v15q0 10 11 10h14q10 0 10 -10v-15q0 -12 -10 -12h-14q-10 0 -11 12zM872 614v15q0 10 11 10h14q10 0 10 -10v-15 q0 -10 -10 -10h-14q-10 0 -11 10zM872 664v14q0 10 11 10h14q10 0 10 -10v-14q0 -12 -10 -13h-14q-10 0 -11 13zM872 709v14q0 10 11 10h14q10 0 10 -10v-14q0 -10 -10 -11h-14q-10 0 -11 11zM872 752v14q0 10 11 10h14q10 0 10 -10v-14q0 -10 -10 -11h-14q-10 0 -11 11z " />
<glyph unicode="&#xa7;" horiz-adv-x="1013" d="M121 61v89q0 61 61 61h88q61 0 62 -61v-89q0 -61 -62 -61h-88q-61 0 -61 61zM121 356v88q0 61 61 62h88q61 0 62 -62v-88q0 -61 -62 -61h-88q-61 0 -61 61zM121 627v88q0 61 61 61h88q61 0 62 -61v-88q0 -61 -62 -62h-88q-61 0 -61 62zM360 43v61q0 43 43 43h62 q43 0 43 -43v-61q0 -43 -43 -43h-62q-43 0 -43 43zM360 256v61q0 43 43 43h62q43 0 43 -43v-61q0 -43 -43 -43h-62q-43 0 -43 43zM360 463v61q0 43 43 43h62q43 0 43 -43v-61q0 -43 -43 -43h-62q-43 0 -43 43zM360 672v61q0 43 43 43h62q43 0 43 -43v-61q0 -43 -43 -43h-62 q-43 0 -43 43zM551 31v43q0 29 31 28h43q31 0 30 -28v-43q0 -31 -30 -31h-43q-31 0 -31 31zM551 158v43q0 31 31 30h43q31 0 30 -30v-43q0 -29 -30 -29h-43q-31 0 -31 29zM551 303v43q0 31 31 31h43q31 0 30 -31v-43q0 -29 -30 -29h-43q-31 0 -31 29zM551 444v43q0 31 31 31 h43q31 0 30 -31v-43q0 -29 -30 -28h-43q-31 0 -31 28zM551 578v43q0 29 31 28h43q31 0 30 -28v-43q0 -31 -30 -31h-43q-31 0 -31 31zM551 702v43q0 31 31 31h43q31 0 30 -31v-43q0 -29 -30 -28h-43q-31 0 -31 28zM688 20v31q0 20 21 21h30q20 0 21 -21v-31q0 -20 -21 -20 h-30q-20 0 -21 20zM688 131v31q0 20 21 20h30q20 0 21 -20v-31q0 -20 -21 -20h-30q-20 0 -21 20zM688 233v31q0 20 21 21h30q20 0 21 -21v-31q0 -20 -21 -20h-30q-20 0 -21 20zM688 344v31q0 20 21 20h30q20 0 21 -20v-31q0 -20 -21 -20h-30q-20 0 -21 20zM688 446v29 q0 23 21 23h30q20 0 21 -23v-29q0 -23 -21 -22h-30q-20 0 -21 22zM688 545v30q0 20 21 21h30q20 0 21 -21v-30q0 -23 -21 -23h-30q-20 0 -21 23zM688 637v31q0 20 21 20h30q20 0 21 -20v-31q0 -23 -21 -23h-30q-20 0 -21 23zM688 725v31q0 20 21 20h30q20 0 21 -20v-31 q0 -20 -21 -20h-30q-20 0 -21 20zM793 14v23q0 14 16 14h20q14 0 15 -14v-23q0 -14 -15 -14h-20q-16 0 -16 14zM793 92v21q0 14 16 14h20q14 0 15 -14v-21q0 -14 -15 -14h-20q-16 0 -16 14zM793 164v20q0 14 16 15h20q14 0 15 -15v-20q0 -14 -15 -14h-20q-16 0 -16 14z M793 248v20q0 14 16 15h20q14 0 15 -15v-20q0 -14 -15 -15h-20q-16 0 -16 15zM793 326v20q0 14 16 14h20q14 0 15 -14v-20q0 -16 -15 -17h-20q-16 0 -16 17zM793 395v23q0 14 16 14h20q14 0 15 -14v-23q0 -14 -15 -14h-20q-16 0 -16 14zM793 473v21q0 16 16 16h20 q14 0 15 -16v-21q0 -14 -15 -14h-20q-16 0 -16 14zM793 545v20q0 16 16 17h20q14 0 15 -17v-20q0 -14 -15 -15h-20q-16 0 -16 15zM793 614v21q0 14 16 14h20q14 0 15 -14v-21q0 -14 -15 -14h-20q-16 0 -16 14zM793 678v22q0 14 16 15h20q14 0 15 -15v-22q0 -14 -15 -14h-20 q-16 0 -16 14zM793 739v23q0 14 16 14h20q14 0 15 -14v-23q0 -14 -15 -14h-20q-16 0 -16 14zM872 10v15q0 10 11 10h14q10 0 10 -10v-15q0 -10 -10 -10h-14q-10 0 -11 10zM872 59v17q0 10 11 10h14q10 0 10 -10v-17q0 -10 -10 -10h-14q-10 0 -11 10zM872 109v14q0 10 11 10 h14q10 0 10 -10v-14q0 -10 -10 -11h-14q-10 0 -11 11zM872 154v14q0 10 11 10h14q10 0 10 -10v-14q0 -10 -10 -11h-14q-10 0 -11 11zM872 197v14q0 12 11 12h14q10 0 10 -12v-14q0 -10 -10 -11h-14q-10 0 -11 11zM872 244v14q0 10 11 10h14q10 0 10 -10v-14q0 -10 -10 -11 h-14q-10 0 -11 11zM872 297v14q0 10 11 11h14q10 0 10 -11v-14q0 -10 -10 -10h-14q-10 0 -11 10zM872 348v14q0 10 11 11h14q10 0 10 -11v-14q0 -10 -10 -10h-14q-10 0 -11 10zM872 406v16q0 10 11 10h14q10 0 10 -10v-16q0 -10 -10 -11h-14q-10 0 -11 11zM872 461v14 q0 10 11 10h14q10 0 10 -10v-14q0 -10 -10 -10h-14q-10 0 -11 10zM872 510v14q0 10 11 11h14q10 0 10 -11v-14q0 -10 -10 -10h-14q-10 0 -11 10zM872 565v15q0 10 11 10h14q10 0 10 -10v-15q0 -12 -10 -12h-14q-10 0 -11 12zM872 614v15q0 10 11 10h14q10 0 10 -10v-15 q0 -10 -10 -10h-14q-10 0 -11 10zM872 664v14q0 10 11 10h14q10 0 10 -10v-14q0 -12 -10 -13h-14q-10 0 -11 13zM872 709v14q0 10 11 10h14q10 0 10 -10v-14q0 -10 -10 -11h-14q-10 0 -11 11zM872 752v14q0 10 11 10h14q10 0 10 -10v-14q0 -10 -10 -11h-14q-10 0 -11 11z " />
<glyph unicode="&#xa8;" horiz-adv-x="1013" d="M121 61v89q0 61 61 61h88q61 0 62 -61v-89q0 -61 -62 -61h-88q-61 0 -61 61zM121 356v88q0 61 61 62h88q61 0 62 -62v-88q0 -61 -62 -61h-88q-61 0 -61 61zM121 627v88q0 61 61 61h88q61 0 62 -61v-88q0 -61 -62 -62h-88q-61 0 -61 62zM360 43v61q0 43 43 43h62 q43 0 43 -43v-61q0 -43 -43 -43h-62q-43 0 -43 43zM360 256v61q0 43 43 43h62q43 0 43 -43v-61q0 -43 -43 -43h-62q-43 0 -43 43zM360 463v61q0 43 43 43h62q43 0 43 -43v-61q0 -43 -43 -43h-62q-43 0 -43 43zM360 672v61q0 43 43 43h62q43 0 43 -43v-61q0 -43 -43 -43h-62 q-43 0 -43 43zM551 31v43q0 29 31 28h43q31 0 30 -28v-43q0 -31 -30 -31h-43q-31 0 -31 31zM551 158v43q0 31 31 30h43q31 0 30 -30v-43q0 -29 -30 -29h-43q-31 0 -31 29zM551 303v43q0 31 31 31h43q31 0 30 -31v-43q0 -29 -30 -29h-43q-31 0 -31 29zM551 444v43q0 31 31 31 h43q31 0 30 -31v-43q0 -29 -30 -28h-43q-31 0 -31 28zM551 578v43q0 29 31 28h43q31 0 30 -28v-43q0 -31 -30 -31h-43q-31 0 -31 31zM551 702v43q0 31 31 31h43q31 0 30 -31v-43q0 -29 -30 -28h-43q-31 0 -31 28zM688 20v31q0 20 21 21h30q20 0 21 -21v-31q0 -20 -21 -20 h-30q-20 0 -21 20zM688 131v31q0 20 21 20h30q20 0 21 -20v-31q0 -20 -21 -20h-30q-20 0 -21 20zM688 233v31q0 20 21 21h30q20 0 21 -21v-31q0 -20 -21 -20h-30q-20 0 -21 20zM688 344v31q0 20 21 20h30q20 0 21 -20v-31q0 -20 -21 -20h-30q-20 0 -21 20zM688 446v29 q0 23 21 23h30q20 0 21 -23v-29q0 -23 -21 -22h-30q-20 0 -21 22zM688 545v30q0 20 21 21h30q20 0 21 -21v-30q0 -23 -21 -23h-30q-20 0 -21 23zM688 637v31q0 20 21 20h30q20 0 21 -20v-31q0 -23 -21 -23h-30q-20 0 -21 23zM688 725v31q0 20 21 20h30q20 0 21 -20v-31 q0 -20 -21 -20h-30q-20 0 -21 20zM793 14v23q0 14 16 14h20q14 0 15 -14v-23q0 -14 -15 -14h-20q-16 0 -16 14zM793 92v21q0 14 16 14h20q14 0 15 -14v-21q0 -14 -15 -14h-20q-16 0 -16 14zM793 164v20q0 14 16 15h20q14 0 15 -15v-20q0 -14 -15 -14h-20q-16 0 -16 14z M793 248v20q0 14 16 15h20q14 0 15 -15v-20q0 -14 -15 -15h-20q-16 0 -16 15zM793 326v20q0 14 16 14h20q14 0 15 -14v-20q0 -16 -15 -17h-20q-16 0 -16 17zM793 395v23q0 14 16 14h20q14 0 15 -14v-23q0 -14 -15 -14h-20q-16 0 -16 14zM793 473v21q0 16 16 16h20 q14 0 15 -16v-21q0 -14 -15 -14h-20q-16 0 -16 14zM793 545v20q0 16 16 17h20q14 0 15 -17v-20q0 -14 -15 -15h-20q-16 0 -16 15zM793 614v21q0 14 16 14h20q14 0 15 -14v-21q0 -14 -15 -14h-20q-16 0 -16 14zM793 678v22q0 14 16 15h20q14 0 15 -15v-22q0 -14 -15 -14h-20 q-16 0 -16 14zM793 739v23q0 14 16 14h20q14 0 15 -14v-23q0 -14 -15 -14h-20q-16 0 -16 14zM872 10v15q0 10 11 10h14q10 0 10 -10v-15q0 -10 -10 -10h-14q-10 0 -11 10zM872 59v17q0 10 11 10h14q10 0 10 -10v-17q0 -10 -10 -10h-14q-10 0 -11 10zM872 109v14q0 10 11 10 h14q10 0 10 -10v-14q0 -10 -10 -11h-14q-10 0 -11 11zM872 154v14q0 10 11 10h14q10 0 10 -10v-14q0 -10 -10 -11h-14q-10 0 -11 11zM872 197v14q0 12 11 12h14q10 0 10 -12v-14q0 -10 -10 -11h-14q-10 0 -11 11zM872 244v14q0 10 11 10h14q10 0 10 -10v-14q0 -10 -10 -11 h-14q-10 0 -11 11zM872 297v14q0 10 11 11h14q10 0 10 -11v-14q0 -10 -10 -10h-14q-10 0 -11 10zM872 348v14q0 10 11 11h14q10 0 10 -11v-14q0 -10 -10 -10h-14q-10 0 -11 10zM872 406v16q0 10 11 10h14q10 0 10 -10v-16q0 -10 -10 -11h-14q-10 0 -11 11zM872 461v14 q0 10 11 10h14q10 0 10 -10v-14q0 -10 -10 -10h-14q-10 0 -11 10zM872 510v14q0 10 11 11h14q10 0 10 -11v-14q0 -10 -10 -10h-14q-10 0 -11 10zM872 565v15q0 10 11 10h14q10 0 10 -10v-15q0 -12 -10 -12h-14q-10 0 -11 12zM872 614v15q0 10 11 10h14q10 0 10 -10v-15 q0 -10 -10 -10h-14q-10 0 -11 10zM872 664v14q0 10 11 10h14q10 0 10 -10v-14q0 -12 -10 -13h-14q-10 0 -11 13zM872 709v14q0 10 11 10h14q10 0 10 -10v-14q0 -10 -10 -11h-14q-10 0 -11 11zM872 752v14q0 10 11 10h14q10 0 10 -10v-14q0 -10 -10 -11h-14q-10 0 -11 11z " />
<glyph unicode="&#xa9;" horiz-adv-x="1073" d="M119 299v342q0 57 41 94t98 33q270 -27 381 -16l164 16q57 4 98 -33t41 -94v-342q0 -131 -122 -220t-290 -89t-289.5 89t-121.5 220zM147 299q0 -117 113 -199t270 -82q158 0 270.5 82t112.5 199v342q0 45 -31.5 73.5t-76.5 24.5l-162 -16q-115 -10 -227 0l-160 16 q-45 4 -77 -24.5t-32 -73.5v-342zM158 551q0 6 6 6t6 -6t-6 -6t-6 6zM158 627q0 6 8 6t8 -6q0 -8 -8 -9q-8 0 -8 9zM158 633q12 88 92 94q29 0 170 -12q121 -10 158 -6q-139 -23 -240 -9q-27 4 -51 5q-113 0 -129 -72zM162 590q0 27 24 26h7q-2 2 -3 7q0 12 13 12 q12 0 12 -12t-12 -13q10 -8 10 -20q0 -25 -27 -25q-25 0 -24 25zM178 528q0 10 10 11q9 -1 9 -11t-9 -10q-10 0 -10 10zM354 440q-2 37 37 37h176q10 23 23 21q10 -2 14 -21h66q39 0 37 -37l-7 -96q-2 -37 -36 -37h-123q-8 -16 -23 -16q-14 0 -22 16h-99q-35 0 -37 37z M381 174v47h301v-47h-301zM381 436q0 -14 2 -51h2q16 18 25 18q6 0 12 -6q8 18 18.5 39t22.5 19q10 0 20 -64q37 20 64 -6h4v4q6 25 20 72h-174q-16 -12 -16 -25zM383 160q0 4 6 4q4 0 4 -4t-4 -4q-6 0 -6 4zM383 383q0 -29 14 -57h101q-6 20 -15 57h-8q-2 -2 -6 -4 q-18 -12 -25 -10q-8 2 -16 14h-10l-2 -4q-8 -14 -13 -14q-8 -2 -18 18h-2zM387 383q10 -16 16 -16q2 0 11 14l2 2h-29zM387 385h29l4 8q-6 6 -10 8q-8 0 -23 -16zM391 199q0 -10 10 -11q11 1 11 11q0 8 -11 8q-10 0 -10 -8zM399 160q0 4 7 4q4 0 4 -4t-4 -4q-6 0 -7 4z M416 160q0 4 6 4q4 0 4 -4t-4 -4q-6 0 -6 4zM418 385h8q-2 4 -4 6zM422 395q2 -2 6 -8v-2h45q4 2 8 6q-2 31 -18 62q-10 2 -21 -17q-2 -6 -20 -41zM424 199q0 -10 8 -11q10 1 10 11q0 8 -10 8q-8 0 -8 -8zM430 383q8 -12 14 -12q6 -2 23 10q2 0 4 2h-41zM432 160q0 4 6 4 q4 0 4 -4t-4 -4q-6 0 -6 4zM449 160q0 4 6 4q4 0 4 -4t-4 -4q-6 0 -6 4zM455 199q0 -10 10 -11q10 1 10 11q0 8 -10 8t-10 -8zM465 160q0 4 4 4q6 0 6 -4t-6 -4q-4 0 -4 4zM477 385h6v4q-2 -2 -6 -4zM481 160q0 4 4 4q7 0 7 -4t-7 -4q-4 0 -4 4zM485 383q8 -39 17 -57h33 q4 12 14 53q0 2 -2 4h-62zM485 385h58q-27 23 -58 4v-4zM487 199q0 -10 11 -11q10 1 10 11q0 8 -10 8t-11 -8zM498 160q0 4 4 4q6 0 6 -4t-6 -4q-4 0 -4 4zM504 317q6 -14 14 -14t14 14h-28zM514 160q0 4 4 4q6 0 6 -4t-6 -4q-4 0 -4 4zM520 199q0 -10 10 -11q11 1 11 11 q0 8 -11 8q-10 0 -10 -8zM530 160q0 4 5 4q6 0 6 -4t-6 -4q-4 0 -5 4zM537 326h127q18 0 18 18l2 39h-35q-20 -55 -33 -51q-8 2 -14 51h-4q-10 -14 -23 -14q-12 -2 -24 10q-4 -18 -14 -53zM547 160q0 4 4 4q6 0 6 -4t-6 -4q-4 0 -4 4zM549 383h1h1h-2zM553 199q0 -10 10 -11 q10 1 10 11q0 8 -10 8t-10 -8zM553 381q12 -10 22 -10q11 2 21 12h-43v-2zM553 385h45q2 4 4 6q-2 23 -6 70h-23q-8 -33 -20 -76zM563 160q0 4 4 4q6 0 6 -4t-6 -4q-4 0 -4 4zM565 47q23 35 72 31q14 0 29 8q36 23 73 82q-16 -33 -39 -59q-55 -59 -135 -62zM575 467h19 q-2 16 -6 18q-6 -2 -13 -18zM580 160q0 4 4 4q6 0 6 -4t-6 -4q-4 0 -4 4zM586 199q0 -10 10 -11q10 1 10 11q0 8 -10 8t-10 -8zM596 160q0 4 4 4q6 0 6 -4t-6 -4q-4 0 -4 4zM598 461q2 -31 6 -68q10 14 27 17q10 0 22 -7q6 12 13 13q4 0 12 -27l2 -4h4l4 57q0 18 -18 19h-72 zM600 385h2v2zM604 383q2 -25 12 -49q12 -4 25 35q2 6 6 14h-43zM604 385h43q0 2 6 14v2q-12 6 -22 7q-14 -2 -27 -19v-4zM612 160q0 4 4 4q7 0 7 -4t-7 -4q-4 0 -4 4zM618 199q0 -10 11 -11q8 1 8 11q0 8 -8 8q-10 0 -11 -8zM629 160q0 4 4 4t4 -4t-4 -4t-4 4zM643 160 q0 4 6 4q4 0 4 -4t-4 -4q-6 0 -6 4zM649 199q0 -10 10 -11q11 1 11 11q0 8 -11 8q-10 0 -10 -8zM649 385h25q-12 12 -19 14v-2zM655 401q13 -6 23 -16l-2 2q-6 27 -10 27q-4 -2 -11 -13zM659 160q0 4 7 4q4 0 4 -4t-4 -4q-6 0 -7 4zM770 147q0 14 14 15q13 -1 13 -15 q0 -12 -13 -12q-14 0 -14 12zM772 125q0 4 4 4t4 -4t-4 -4t-4 4zM786 127q0 6 5 6q6 0 6 -6t-6 -6q-4 0 -5 6zM797 137q0 10 10 10t10 -10l-2 -2q78 94 78 211v256q-2 16 -8 35q-14 43 -54 88q72 -14 72 -123v-309q-2 -31 -12 -57q-23 -66 -80 -107l2 2q-4 -2 -6 -2 q-10 0 -10 8zM805 172q0 12 12 12q10 0 10 -12q0 -10 -10 -10q-12 0 -12 10z" />
<glyph unicode="&#xaa;" horiz-adv-x="1073" d="M119 299v342q0 57 41 94t98 33q270 -27 381 -16l164 16q57 4 98 -33t41 -94v-342q0 -131 -122 -220t-290 -89t-289.5 89t-121.5 220zM147 299q0 -117 113 -199t270 -82q158 0 270.5 82t112.5 199v342q0 45 -31.5 73.5t-76.5 24.5l-162 -16q-115 -10 -227 0l-160 16 q-45 4 -77 -24.5t-32 -73.5v-342zM158 551q0 6 6 6t6 -6t-6 -6t-6 6zM158 627q0 6 8 6t8 -6q0 -8 -8 -9q-8 0 -8 9zM158 633q12 88 92 94q29 0 170 -12q121 -10 158 -6q-139 -23 -240 -9q-27 4 -51 5q-113 0 -129 -72zM162 590q0 27 24 26h7q-2 2 -3 7q0 12 13 12 q12 0 12 -12t-12 -13q10 -8 10 -20q0 -25 -27 -25q-25 0 -24 25zM178 528q0 10 10 11q9 -1 9 -11t-9 -10q-10 0 -10 10zM354 440q-2 37 37 37h176q10 23 23 21q10 -2 14 -21h66q39 0 37 -37l-7 -96q-2 -37 -36 -37h-123q-8 -16 -23 -16q-14 0 -22 16h-99q-35 0 -37 37z M381 174v47h301v-47h-301zM381 436q0 -14 2 -51h2q16 18 25 18q6 0 12 -6q8 18 18.5 39t22.5 19q10 0 20 -64q37 20 64 -6h4v4q6 25 20 72h-174q-16 -12 -16 -25zM383 160q0 4 6 4q4 0 4 -4t-4 -4q-6 0 -6 4zM383 383q0 -29 14 -57h101q-6 20 -15 57h-8q-2 -2 -6 -4 q-18 -12 -25 -10q-8 2 -16 14h-10l-2 -4q-8 -14 -13 -14q-8 -2 -18 18h-2zM387 383q10 -16 16 -16q2 0 11 14l2 2h-29zM387 385h29l4 8q-6 6 -10 8q-8 0 -23 -16zM391 199q0 -10 10 -11q11 1 11 11q0 8 -11 8q-10 0 -10 -8zM399 160q0 4 7 4q4 0 4 -4t-4 -4q-6 0 -7 4z M416 160q0 4 6 4q4 0 4 -4t-4 -4q-6 0 -6 4zM418 385h8q-2 4 -4 6zM422 395q2 -2 6 -8v-2h45q4 2 8 6q-2 31 -18 62q-10 2 -21 -17q-2 -6 -20 -41zM424 199q0 -10 8 -11q10 1 10 11q0 8 -10 8q-8 0 -8 -8zM430 383q8 -12 14 -12q6 -2 23 10q2 0 4 2h-41zM432 160q0 4 6 4 q4 0 4 -4t-4 -4q-6 0 -6 4zM449 160q0 4 6 4q4 0 4 -4t-4 -4q-6 0 -6 4zM455 199q0 -10 10 -11q10 1 10 11q0 8 -10 8t-10 -8zM465 160q0 4 4 4q6 0 6 -4t-6 -4q-4 0 -4 4zM477 385h6v4q-2 -2 -6 -4zM481 160q0 4 4 4q7 0 7 -4t-7 -4q-4 0 -4 4zM485 383q8 -39 17 -57h33 q4 12 14 53q0 2 -2 4h-62zM485 385h58q-27 23 -58 4v-4zM487 199q0 -10 11 -11q10 1 10 11q0 8 -10 8t-11 -8zM498 160q0 4 4 4q6 0 6 -4t-6 -4q-4 0 -4 4zM504 317q6 -14 14 -14t14 14h-28zM514 160q0 4 4 4q6 0 6 -4t-6 -4q-4 0 -4 4zM520 199q0 -10 10 -11q11 1 11 11 q0 8 -11 8q-10 0 -10 -8zM530 160q0 4 5 4q6 0 6 -4t-6 -4q-4 0 -5 4zM537 326h127q18 0 18 18l2 39h-35q-20 -55 -33 -51q-8 2 -14 51h-4q-10 -14 -23 -14q-12 -2 -24 10q-4 -18 -14 -53zM547 160q0 4 4 4q6 0 6 -4t-6 -4q-4 0 -4 4zM549 383h1h1h-2zM553 199q0 -10 10 -11 q10 1 10 11q0 8 -10 8t-10 -8zM553 381q12 -10 22 -10q11 2 21 12h-43v-2zM553 385h45q2 4 4 6q-2 23 -6 70h-23q-8 -33 -20 -76zM563 160q0 4 4 4q6 0 6 -4t-6 -4q-4 0 -4 4zM565 47q23 35 72 31q14 0 29 8q36 23 73 82q-16 -33 -39 -59q-55 -59 -135 -62zM575 467h19 q-2 16 -6 18q-6 -2 -13 -18zM580 160q0 4 4 4q6 0 6 -4t-6 -4q-4 0 -4 4zM586 199q0 -10 10 -11q10 1 10 11q0 8 -10 8t-10 -8zM596 160q0 4 4 4q6 0 6 -4t-6 -4q-4 0 -4 4zM598 461q2 -31 6 -68q10 14 27 17q10 0 22 -7q6 12 13 13q4 0 12 -27l2 -4h4l4 57q0 18 -18 19h-72 zM600 385h2v2zM604 383q2 -25 12 -49q12 -4 25 35q2 6 6 14h-43zM604 385h43q0 2 6 14v2q-12 6 -22 7q-14 -2 -27 -19v-4zM612 160q0 4 4 4q7 0 7 -4t-7 -4q-4 0 -4 4zM618 199q0 -10 11 -11q8 1 8 11q0 8 -8 8q-10 0 -11 -8zM629 160q0 4 4 4t4 -4t-4 -4t-4 4zM643 160 q0 4 6 4q4 0 4 -4t-4 -4q-6 0 -6 4zM649 199q0 -10 10 -11q11 1 11 11q0 8 -11 8q-10 0 -10 -8zM649 385h25q-12 12 -19 14v-2zM655 401q13 -6 23 -16l-2 2q-6 27 -10 27q-4 -2 -11 -13zM659 160q0 4 7 4q4 0 4 -4t-4 -4q-6 0 -7 4zM770 147q0 14 14 15q13 -1 13 -15 q0 -12 -13 -12q-14 0 -14 12zM772 125q0 4 4 4t4 -4t-4 -4t-4 4zM786 127q0 6 5 6q6 0 6 -6t-6 -6q-4 0 -5 6zM797 137q0 10 10 10t10 -10l-2 -2q78 94 78 211v256q-2 16 -8 35q-14 43 -54 88q72 -14 72 -123v-309q-2 -31 -12 -57q-23 -66 -80 -107l2 2q-4 -2 -6 -2 q-10 0 -10 8zM805 172q0 12 12 12q10 0 10 -12q0 -10 -10 -10q-12 0 -12 10z" />
<glyph unicode="&#xad;" horiz-adv-x="708" d="M121 313q0 84 83 143.5t199 59.5h302q0 -84 -83 -143.5t-200 -59.5h-301z" />
<glyph unicode="&#xae;" horiz-adv-x="1013" d="M121 61v89q0 61 61 61h88q61 0 62 -61v-89q0 -61 -62 -61h-88q-61 0 -61 61zM121 356v88q0 61 61 62h88q61 0 62 -62v-88q0 -61 -62 -61h-88q-61 0 -61 61zM121 627v88q0 61 61 61h88q61 0 62 -61v-88q0 -61 -62 -62h-88q-61 0 -61 62zM360 43v61q0 43 43 43h62 q43 0 43 -43v-61q0 -43 -43 -43h-62q-43 0 -43 43zM360 256v61q0 43 43 43h62q43 0 43 -43v-61q0 -43 -43 -43h-62q-43 0 -43 43zM360 463v61q0 43 43 43h62q43 0 43 -43v-61q0 -43 -43 -43h-62q-43 0 -43 43zM360 672v61q0 43 43 43h62q43 0 43 -43v-61q0 -43 -43 -43h-62 q-43 0 -43 43zM551 31v43q0 29 31 28h43q31 0 30 -28v-43q0 -31 -30 -31h-43q-31 0 -31 31zM551 158v43q0 31 31 30h43q31 0 30 -30v-43q0 -29 -30 -29h-43q-31 0 -31 29zM551 303v43q0 31 31 31h43q31 0 30 -31v-43q0 -29 -30 -29h-43q-31 0 -31 29zM551 444v43q0 31 31 31 h43q31 0 30 -31v-43q0 -29 -30 -28h-43q-31 0 -31 28zM551 578v43q0 29 31 28h43q31 0 30 -28v-43q0 -31 -30 -31h-43q-31 0 -31 31zM551 702v43q0 31 31 31h43q31 0 30 -31v-43q0 -29 -30 -28h-43q-31 0 -31 28zM688 20v31q0 20 21 21h30q20 0 21 -21v-31q0 -20 -21 -20 h-30q-20 0 -21 20zM688 131v31q0 20 21 20h30q20 0 21 -20v-31q0 -20 -21 -20h-30q-20 0 -21 20zM688 233v31q0 20 21 21h30q20 0 21 -21v-31q0 -20 -21 -20h-30q-20 0 -21 20zM688 344v31q0 20 21 20h30q20 0 21 -20v-31q0 -20 -21 -20h-30q-20 0 -21 20zM688 446v29 q0 23 21 23h30q20 0 21 -23v-29q0 -23 -21 -22h-30q-20 0 -21 22zM688 545v30q0 20 21 21h30q20 0 21 -21v-30q0 -23 -21 -23h-30q-20 0 -21 23zM688 637v31q0 20 21 20h30q20 0 21 -20v-31q0 -23 -21 -23h-30q-20 0 -21 23zM688 725v31q0 20 21 20h30q20 0 21 -20v-31 q0 -20 -21 -20h-30q-20 0 -21 20zM793 14v23q0 14 16 14h20q14 0 15 -14v-23q0 -14 -15 -14h-20q-16 0 -16 14zM793 92v21q0 14 16 14h20q14 0 15 -14v-21q0 -14 -15 -14h-20q-16 0 -16 14zM793 164v20q0 14 16 15h20q14 0 15 -15v-20q0 -14 -15 -14h-20q-16 0 -16 14z M793 248v20q0 14 16 15h20q14 0 15 -15v-20q0 -14 -15 -15h-20q-16 0 -16 15zM793 326v20q0 14 16 14h20q14 0 15 -14v-20q0 -16 -15 -17h-20q-16 0 -16 17zM793 395v23q0 14 16 14h20q14 0 15 -14v-23q0 -14 -15 -14h-20q-16 0 -16 14zM793 473v21q0 16 16 16h20 q14 0 15 -16v-21q0 -14 -15 -14h-20q-16 0 -16 14zM793 545v20q0 16 16 17h20q14 0 15 -17v-20q0 -14 -15 -15h-20q-16 0 -16 15zM793 614v21q0 14 16 14h20q14 0 15 -14v-21q0 -14 -15 -14h-20q-16 0 -16 14zM793 678v22q0 14 16 15h20q14 0 15 -15v-22q0 -14 -15 -14h-20 q-16 0 -16 14zM793 739v23q0 14 16 14h20q14 0 15 -14v-23q0 -14 -15 -14h-20q-16 0 -16 14zM872 10v15q0 10 11 10h14q10 0 10 -10v-15q0 -10 -10 -10h-14q-10 0 -11 10zM872 59v17q0 10 11 10h14q10 0 10 -10v-17q0 -10 -10 -10h-14q-10 0 -11 10zM872 109v14q0 10 11 10 h14q10 0 10 -10v-14q0 -10 -10 -11h-14q-10 0 -11 11zM872 154v14q0 10 11 10h14q10 0 10 -10v-14q0 -10 -10 -11h-14q-10 0 -11 11zM872 197v14q0 12 11 12h14q10 0 10 -12v-14q0 -10 -10 -11h-14q-10 0 -11 11zM872 244v14q0 10 11 10h14q10 0 10 -10v-14q0 -10 -10 -11 h-14q-10 0 -11 11zM872 297v14q0 10 11 11h14q10 0 10 -11v-14q0 -10 -10 -10h-14q-10 0 -11 10zM872 348v14q0 10 11 11h14q10 0 10 -11v-14q0 -10 -10 -10h-14q-10 0 -11 10zM872 406v16q0 10 11 10h14q10 0 10 -10v-16q0 -10 -10 -11h-14q-10 0 -11 11zM872 461v14 q0 10 11 10h14q10 0 10 -10v-14q0 -10 -10 -10h-14q-10 0 -11 10zM872 510v14q0 10 11 11h14q10 0 10 -11v-14q0 -10 -10 -10h-14q-10 0 -11 10zM872 565v15q0 10 11 10h14q10 0 10 -10v-15q0 -12 -10 -12h-14q-10 0 -11 12zM872 614v15q0 10 11 10h14q10 0 10 -10v-15 q0 -10 -10 -10h-14q-10 0 -11 10zM872 664v14q0 10 11 10h14q10 0 10 -10v-14q0 -12 -10 -13h-14q-10 0 -11 13zM872 709v14q0 10 11 10h14q10 0 10 -10v-14q0 -10 -10 -11h-14q-10 0 -11 11zM872 752v14q0 10 11 10h14q10 0 10 -10v-14q0 -10 -10 -11h-14q-10 0 -11 11z " />
<glyph unicode="&#xb0;" horiz-adv-x="1073" d="M119 299v342q0 57 41 94t98 33q270 -27 381 -16l164 16q57 4 98 -33t41 -94v-342q0 -131 -122 -220t-290 -89t-289.5 89t-121.5 220zM147 299q0 -117 113 -199t270 -82q158 0 270.5 82t112.5 199v342q0 45 -31.5 73.5t-76.5 24.5l-162 -16q-115 -10 -227 0l-160 16 q-45 4 -77 -24.5t-32 -73.5v-342zM158 551q0 6 6 6t6 -6t-6 -6t-6 6zM158 627q0 6 8 6t8 -6q0 -8 -8 -9q-8 0 -8 9zM158 633q12 88 92 94q29 0 170 -12q121 -10 158 -6q-139 -23 -240 -9q-27 4 -51 5q-113 0 -129 -72zM162 590q0 27 24 26h7q-2 2 -3 7q0 12 13 12 q12 0 12 -12t-12 -13q10 -8 10 -20q0 -25 -27 -25q-25 0 -24 25zM178 528q0 10 10 11q9 -1 9 -11t-9 -10q-10 0 -10 10zM354 440q-2 37 37 37h176q10 23 23 21q10 -2 14 -21h66q39 0 37 -37l-7 -96q-2 -37 -36 -37h-123q-8 -16 -23 -16q-14 0 -22 16h-99q-35 0 -37 37z M381 174v47h301v-47h-301zM381 436q0 -14 2 -51h2q16 18 25 18q6 0 12 -6q8 18 18.5 39t22.5 19q10 0 20 -64q37 20 64 -6h4v4q6 25 20 72h-174q-16 -12 -16 -25zM383 160q0 4 6 4q4 0 4 -4t-4 -4q-6 0 -6 4zM383 383q0 -29 14 -57h101q-6 20 -15 57h-8q-2 -2 -6 -4 q-18 -12 -25 -10q-8 2 -16 14h-10l-2 -4q-8 -14 -13 -14q-8 -2 -18 18h-2zM387 383q10 -16 16 -16q2 0 11 14l2 2h-29zM387 385h29l4 8q-6 6 -10 8q-8 0 -23 -16zM391 199q0 -10 10 -11q11 1 11 11q0 8 -11 8q-10 0 -10 -8zM399 160q0 4 7 4q4 0 4 -4t-4 -4q-6 0 -7 4z M416 160q0 4 6 4q4 0 4 -4t-4 -4q-6 0 -6 4zM418 385h8q-2 4 -4 6zM422 395q2 -2 6 -8v-2h45q4 2 8 6q-2 31 -18 62q-10 2 -21 -17q-2 -6 -20 -41zM424 199q0 -10 8 -11q10 1 10 11q0 8 -10 8q-8 0 -8 -8zM430 383q8 -12 14 -12q6 -2 23 10q2 0 4 2h-41zM432 160q0 4 6 4 q4 0 4 -4t-4 -4q-6 0 -6 4zM449 160q0 4 6 4q4 0 4 -4t-4 -4q-6 0 -6 4zM455 199q0 -10 10 -11q10 1 10 11q0 8 -10 8t-10 -8zM465 160q0 4 4 4q6 0 6 -4t-6 -4q-4 0 -4 4zM477 385h6v4q-2 -2 -6 -4zM481 160q0 4 4 4q7 0 7 -4t-7 -4q-4 0 -4 4zM485 383q8 -39 17 -57h33 q4 12 14 53q0 2 -2 4h-62zM485 385h58q-27 23 -58 4v-4zM487 199q0 -10 11 -11q10 1 10 11q0 8 -10 8t-11 -8zM498 160q0 4 4 4q6 0 6 -4t-6 -4q-4 0 -4 4zM504 317q6 -14 14 -14t14 14h-28zM514 160q0 4 4 4q6 0 6 -4t-6 -4q-4 0 -4 4zM520 199q0 -10 10 -11q11 1 11 11 q0 8 -11 8q-10 0 -10 -8zM530 160q0 4 5 4q6 0 6 -4t-6 -4q-4 0 -5 4zM537 326h127q18 0 18 18l2 39h-35q-20 -55 -33 -51q-8 2 -14 51h-4q-10 -14 -23 -14q-12 -2 -24 10q-4 -18 -14 -53zM547 160q0 4 4 4q6 0 6 -4t-6 -4q-4 0 -4 4zM549 383h1h1h-2zM553 199q0 -10 10 -11 q10 1 10 11q0 8 -10 8t-10 -8zM553 381q12 -10 22 -10q11 2 21 12h-43v-2zM553 385h45q2 4 4 6q-2 23 -6 70h-23q-8 -33 -20 -76zM563 160q0 4 4 4q6 0 6 -4t-6 -4q-4 0 -4 4zM565 47q23 35 72 31q14 0 29 8q36 23 73 82q-16 -33 -39 -59q-55 -59 -135 -62zM575 467h19 q-2 16 -6 18q-6 -2 -13 -18zM580 160q0 4 4 4q6 0 6 -4t-6 -4q-4 0 -4 4zM586 199q0 -10 10 -11q10 1 10 11q0 8 -10 8t-10 -8zM596 160q0 4 4 4q6 0 6 -4t-6 -4q-4 0 -4 4zM598 461q2 -31 6 -68q10 14 27 17q10 0 22 -7q6 12 13 13q4 0 12 -27l2 -4h4l4 57q0 18 -18 19h-72 zM600 385h2v2zM604 383q2 -25 12 -49q12 -4 25 35q2 6 6 14h-43zM604 385h43q0 2 6 14v2q-12 6 -22 7q-14 -2 -27 -19v-4zM612 160q0 4 4 4q7 0 7 -4t-7 -4q-4 0 -4 4zM618 199q0 -10 11 -11q8 1 8 11q0 8 -8 8q-10 0 -11 -8zM629 160q0 4 4 4t4 -4t-4 -4t-4 4zM643 160 q0 4 6 4q4 0 4 -4t-4 -4q-6 0 -6 4zM649 199q0 -10 10 -11q11 1 11 11q0 8 -11 8q-10 0 -10 -8zM649 385h25q-12 12 -19 14v-2zM655 401q13 -6 23 -16l-2 2q-6 27 -10 27q-4 -2 -11 -13zM659 160q0 4 7 4q4 0 4 -4t-4 -4q-6 0 -7 4zM770 147q0 14 14 15q13 -1 13 -15 q0 -12 -13 -12q-14 0 -14 12zM772 125q0 4 4 4t4 -4t-4 -4t-4 4zM786 127q0 6 5 6q6 0 6 -6t-6 -6q-4 0 -5 6zM797 137q0 10 10 10t10 -10l-2 -2q78 94 78 211v256q-2 16 -8 35q-14 43 -54 88q72 -14 72 -123v-309q-2 -31 -12 -57q-23 -66 -80 -107l2 2q-4 -2 -6 -2 q-10 0 -10 8zM805 172q0 12 12 12q10 0 10 -12q0 -10 -10 -10q-12 0 -12 10z" />
<glyph unicode="&#xb1;" horiz-adv-x="1073" d="M119 299v342q0 57 41 94t98 33q270 -27 381 -16l164 16q57 4 98 -33t41 -94v-342q0 -131 -122 -220t-290 -89t-289.5 89t-121.5 220zM147 299q0 -117 113 -199t270 -82q158 0 270.5 82t112.5 199v342q0 45 -31.5 73.5t-76.5 24.5l-162 -16q-115 -10 -227 0l-160 16 q-45 4 -77 -24.5t-32 -73.5v-342zM158 551q0 6 6 6t6 -6t-6 -6t-6 6zM158 627q0 6 8 6t8 -6q0 -8 -8 -9q-8 0 -8 9zM158 633q12 88 92 94q29 0 170 -12q121 -10 158 -6q-139 -23 -240 -9q-27 4 -51 5q-113 0 -129 -72zM162 590q0 27 24 26h7q-2 2 -3 7q0 12 13 12 q12 0 12 -12t-12 -13q10 -8 10 -20q0 -25 -27 -25q-25 0 -24 25zM178 528q0 10 10 11q9 -1 9 -11t-9 -10q-10 0 -10 10zM354 440q-2 37 37 37h176q10 23 23 21q10 -2 14 -21h66q39 0 37 -37l-7 -96q-2 -37 -36 -37h-123q-8 -16 -23 -16q-14 0 -22 16h-99q-35 0 -37 37z M381 174v47h301v-47h-301zM381 436q0 -14 2 -51h2q16 18 25 18q6 0 12 -6q8 18 18.5 39t22.5 19q10 0 20 -64q37 20 64 -6h4v4q6 25 20 72h-174q-16 -12 -16 -25zM383 160q0 4 6 4q4 0 4 -4t-4 -4q-6 0 -6 4zM383 383q0 -29 14 -57h101q-6 20 -15 57h-8q-2 -2 -6 -4 q-18 -12 -25 -10q-8 2 -16 14h-10l-2 -4q-8 -14 -13 -14q-8 -2 -18 18h-2zM387 383q10 -16 16 -16q2 0 11 14l2 2h-29zM387 385h29l4 8q-6 6 -10 8q-8 0 -23 -16zM391 199q0 -10 10 -11q11 1 11 11q0 8 -11 8q-10 0 -10 -8zM399 160q0 4 7 4q4 0 4 -4t-4 -4q-6 0 -7 4z M416 160q0 4 6 4q4 0 4 -4t-4 -4q-6 0 -6 4zM418 385h8q-2 4 -4 6zM422 395q2 -2 6 -8v-2h45q4 2 8 6q-2 31 -18 62q-10 2 -21 -17q-2 -6 -20 -41zM424 199q0 -10 8 -11q10 1 10 11q0 8 -10 8q-8 0 -8 -8zM430 383q8 -12 14 -12q6 -2 23 10q2 0 4 2h-41zM432 160q0 4 6 4 q4 0 4 -4t-4 -4q-6 0 -6 4zM449 160q0 4 6 4q4 0 4 -4t-4 -4q-6 0 -6 4zM455 199q0 -10 10 -11q10 1 10 11q0 8 -10 8t-10 -8zM465 160q0 4 4 4q6 0 6 -4t-6 -4q-4 0 -4 4zM477 385h6v4q-2 -2 -6 -4zM481 160q0 4 4 4q7 0 7 -4t-7 -4q-4 0 -4 4zM485 383q8 -39 17 -57h33 q4 12 14 53q0 2 -2 4h-62zM485 385h58q-27 23 -58 4v-4zM487 199q0 -10 11 -11q10 1 10 11q0 8 -10 8t-11 -8zM498 160q0 4 4 4q6 0 6 -4t-6 -4q-4 0 -4 4zM504 317q6 -14 14 -14t14 14h-28zM514 160q0 4 4 4q6 0 6 -4t-6 -4q-4 0 -4 4zM520 199q0 -10 10 -11q11 1 11 11 q0 8 -11 8q-10 0 -10 -8zM530 160q0 4 5 4q6 0 6 -4t-6 -4q-4 0 -5 4zM537 326h127q18 0 18 18l2 39h-35q-20 -55 -33 -51q-8 2 -14 51h-4q-10 -14 -23 -14q-12 -2 -24 10q-4 -18 -14 -53zM547 160q0 4 4 4q6 0 6 -4t-6 -4q-4 0 -4 4zM549 383h1h1h-2zM553 199q0 -10 10 -11 q10 1 10 11q0 8 -10 8t-10 -8zM553 381q12 -10 22 -10q11 2 21 12h-43v-2zM553 385h45q2 4 4 6q-2 23 -6 70h-23q-8 -33 -20 -76zM563 160q0 4 4 4q6 0 6 -4t-6 -4q-4 0 -4 4zM565 47q23 35 72 31q14 0 29 8q36 23 73 82q-16 -33 -39 -59q-55 -59 -135 -62zM575 467h19 q-2 16 -6 18q-6 -2 -13 -18zM580 160q0 4 4 4q6 0 6 -4t-6 -4q-4 0 -4 4zM586 199q0 -10 10 -11q10 1 10 11q0 8 -10 8t-10 -8zM596 160q0 4 4 4q6 0 6 -4t-6 -4q-4 0 -4 4zM598 461q2 -31 6 -68q10 14 27 17q10 0 22 -7q6 12 13 13q4 0 12 -27l2 -4h4l4 57q0 18 -18 19h-72 zM600 385h2v2zM604 383q2 -25 12 -49q12 -4 25 35q2 6 6 14h-43zM604 385h43q0 2 6 14v2q-12 6 -22 7q-14 -2 -27 -19v-4zM612 160q0 4 4 4q7 0 7 -4t-7 -4q-4 0 -4 4zM618 199q0 -10 11 -11q8 1 8 11q0 8 -8 8q-10 0 -11 -8zM629 160q0 4 4 4t4 -4t-4 -4t-4 4zM643 160 q0 4 6 4q4 0 4 -4t-4 -4q-6 0 -6 4zM649 199q0 -10 10 -11q11 1 11 11q0 8 -11 8q-10 0 -10 -8zM649 385h25q-12 12 -19 14v-2zM655 401q13 -6 23 -16l-2 2q-6 27 -10 27q-4 -2 -11 -13zM659 160q0 4 7 4q4 0 4 -4t-4 -4q-6 0 -7 4zM770 147q0 14 14 15q13 -1 13 -15 q0 -12 -13 -12q-14 0 -14 12zM772 125q0 4 4 4t4 -4t-4 -4t-4 4zM786 127q0 6 5 6q6 0 6 -6t-6 -6q-4 0 -5 6zM797 137q0 10 10 10t10 -10l-2 -2q78 94 78 211v256q-2 16 -8 35q-14 43 -54 88q72 -14 72 -123v-309q-2 -31 -12 -57q-23 -66 -80 -107l2 2q-4 -2 -6 -2 q-10 0 -10 8zM805 172q0 12 12 12q10 0 10 -12q0 -10 -10 -10q-12 0 -12 10z" />
<glyph unicode="&#xb4;" horiz-adv-x="1073" d="M119 299v342q0 57 41 94t98 33q270 -27 381 -16l164 16q57 4 98 -33t41 -94v-342q0 -131 -122 -220t-290 -89t-289.5 89t-121.5 220zM147 299q0 -117 113 -199t270 -82q158 0 270.5 82t112.5 199v342q0 45 -31.5 73.5t-76.5 24.5l-162 -16q-115 -10 -227 0l-160 16 q-45 4 -77 -24.5t-32 -73.5v-342zM158 551q0 6 6 6t6 -6t-6 -6t-6 6zM158 627q0 6 8 6t8 -6q0 -8 -8 -9q-8 0 -8 9zM158 633q12 88 92 94q29 0 170 -12q121 -10 158 -6q-139 -23 -240 -9q-27 4 -51 5q-113 0 -129 -72zM162 590q0 27 24 26h7q-2 2 -3 7q0 12 13 12 q12 0 12 -12t-12 -13q10 -8 10 -20q0 -25 -27 -25q-25 0 -24 25zM178 528q0 10 10 11q9 -1 9 -11t-9 -10q-10 0 -10 10zM354 440q-2 37 37 37h176q10 23 23 21q10 -2 14 -21h66q39 0 37 -37l-7 -96q-2 -37 -36 -37h-123q-8 -16 -23 -16q-14 0 -22 16h-99q-35 0 -37 37z M381 174v47h301v-47h-301zM381 436q0 -14 2 -51h2q16 18 25 18q6 0 12 -6q8 18 18.5 39t22.5 19q10 0 20 -64q37 20 64 -6h4v4q6 25 20 72h-174q-16 -12 -16 -25zM383 160q0 4 6 4q4 0 4 -4t-4 -4q-6 0 -6 4zM383 383q0 -29 14 -57h101q-6 20 -15 57h-8q-2 -2 -6 -4 q-18 -12 -25 -10q-8 2 -16 14h-10l-2 -4q-8 -14 -13 -14q-8 -2 -18 18h-2zM387 383q10 -16 16 -16q2 0 11 14l2 2h-29zM387 385h29l4 8q-6 6 -10 8q-8 0 -23 -16zM391 199q0 -10 10 -11q11 1 11 11q0 8 -11 8q-10 0 -10 -8zM399 160q0 4 7 4q4 0 4 -4t-4 -4q-6 0 -7 4z M416 160q0 4 6 4q4 0 4 -4t-4 -4q-6 0 -6 4zM418 385h8q-2 4 -4 6zM422 395q2 -2 6 -8v-2h45q4 2 8 6q-2 31 -18 62q-10 2 -21 -17q-2 -6 -20 -41zM424 199q0 -10 8 -11q10 1 10 11q0 8 -10 8q-8 0 -8 -8zM430 383q8 -12 14 -12q6 -2 23 10q2 0 4 2h-41zM432 160q0 4 6 4 q4 0 4 -4t-4 -4q-6 0 -6 4zM449 160q0 4 6 4q4 0 4 -4t-4 -4q-6 0 -6 4zM455 199q0 -10 10 -11q10 1 10 11q0 8 -10 8t-10 -8zM465 160q0 4 4 4q6 0 6 -4t-6 -4q-4 0 -4 4zM477 385h6v4q-2 -2 -6 -4zM481 160q0 4 4 4q7 0 7 -4t-7 -4q-4 0 -4 4zM485 383q8 -39 17 -57h33 q4 12 14 53q0 2 -2 4h-62zM485 385h58q-27 23 -58 4v-4zM487 199q0 -10 11 -11q10 1 10 11q0 8 -10 8t-11 -8zM498 160q0 4 4 4q6 0 6 -4t-6 -4q-4 0 -4 4zM504 317q6 -14 14 -14t14 14h-28zM514 160q0 4 4 4q6 0 6 -4t-6 -4q-4 0 -4 4zM520 199q0 -10 10 -11q11 1 11 11 q0 8 -11 8q-10 0 -10 -8zM530 160q0 4 5 4q6 0 6 -4t-6 -4q-4 0 -5 4zM537 326h127q18 0 18 18l2 39h-35q-20 -55 -33 -51q-8 2 -14 51h-4q-10 -14 -23 -14q-12 -2 -24 10q-4 -18 -14 -53zM547 160q0 4 4 4q6 0 6 -4t-6 -4q-4 0 -4 4zM549 383h1h1h-2zM553 199q0 -10 10 -11 q10 1 10 11q0 8 -10 8t-10 -8zM553 381q12 -10 22 -10q11 2 21 12h-43v-2zM553 385h45q2 4 4 6q-2 23 -6 70h-23q-8 -33 -20 -76zM563 160q0 4 4 4q6 0 6 -4t-6 -4q-4 0 -4 4zM565 47q23 35 72 31q14 0 29 8q36 23 73 82q-16 -33 -39 -59q-55 -59 -135 -62zM575 467h19 q-2 16 -6 18q-6 -2 -13 -18zM580 160q0 4 4 4q6 0 6 -4t-6 -4q-4 0 -4 4zM586 199q0 -10 10 -11q10 1 10 11q0 8 -10 8t-10 -8zM596 160q0 4 4 4q6 0 6 -4t-6 -4q-4 0 -4 4zM598 461q2 -31 6 -68q10 14 27 17q10 0 22 -7q6 12 13 13q4 0 12 -27l2 -4h4l4 57q0 18 -18 19h-72 zM600 385h2v2zM604 383q2 -25 12 -49q12 -4 25 35q2 6 6 14h-43zM604 385h43q0 2 6 14v2q-12 6 -22 7q-14 -2 -27 -19v-4zM612 160q0 4 4 4q7 0 7 -4t-7 -4q-4 0 -4 4zM618 199q0 -10 11 -11q8 1 8 11q0 8 -8 8q-10 0 -11 -8zM629 160q0 4 4 4t4 -4t-4 -4t-4 4zM643 160 q0 4 6 4q4 0 4 -4t-4 -4q-6 0 -6 4zM649 199q0 -10 10 -11q11 1 11 11q0 8 -11 8q-10 0 -10 -8zM649 385h25q-12 12 -19 14v-2zM655 401q13 -6 23 -16l-2 2q-6 27 -10 27q-4 -2 -11 -13zM659 160q0 4 7 4q4 0 4 -4t-4 -4q-6 0 -7 4zM770 147q0 14 14 15q13 -1 13 -15 q0 -12 -13 -12q-14 0 -14 12zM772 125q0 4 4 4t4 -4t-4 -4t-4 4zM786 127q0 6 5 6q6 0 6 -6t-6 -6q-4 0 -5 6zM797 137q0 10 10 10t10 -10l-2 -2q78 94 78 211v256q-2 16 -8 35q-14 43 -54 88q72 -14 72 -123v-309q-2 -31 -12 -57q-23 -66 -80 -107l2 2q-4 -2 -6 -2 q-10 0 -10 8zM805 172q0 12 12 12q10 0 10 -12q0 -10 -10 -10q-12 0 -12 10z" />
<glyph unicode="&#xb5;" horiz-adv-x="1073" d="M119 299v342q0 57 41 94t98 33q270 -27 381 -16l164 16q57 4 98 -33t41 -94v-342q0 -131 -122 -220t-290 -89t-289.5 89t-121.5 220zM147 299q0 -117 113 -199t270 -82q158 0 270.5 82t112.5 199v342q0 45 -31.5 73.5t-76.5 24.5l-162 -16q-115 -10 -227 0l-160 16 q-45 4 -77 -24.5t-32 -73.5v-342zM158 551q0 6 6 6t6 -6t-6 -6t-6 6zM158 627q0 6 8 6t8 -6q0 -8 -8 -9q-8 0 -8 9zM158 633q12 88 92 94q29 0 170 -12q121 -10 158 -6q-139 -23 -240 -9q-27 4 -51 5q-113 0 -129 -72zM162 590q0 27 24 26h7q-2 2 -3 7q0 12 13 12 q12 0 12 -12t-12 -13q10 -8 10 -20q0 -25 -27 -25q-25 0 -24 25zM178 528q0 10 10 11q9 -1 9 -11t-9 -10q-10 0 -10 10zM354 440q-2 37 37 37h176q10 23 23 21q10 -2 14 -21h66q39 0 37 -37l-7 -96q-2 -37 -36 -37h-123q-8 -16 -23 -16q-14 0 -22 16h-99q-35 0 -37 37z M381 174v47h301v-47h-301zM381 436q0 -14 2 -51h2q16 18 25 18q6 0 12 -6q8 18 18.5 39t22.5 19q10 0 20 -64q37 20 64 -6h4v4q6 25 20 72h-174q-16 -12 -16 -25zM383 160q0 4 6 4q4 0 4 -4t-4 -4q-6 0 -6 4zM383 383q0 -29 14 -57h101q-6 20 -15 57h-8q-2 -2 -6 -4 q-18 -12 -25 -10q-8 2 -16 14h-10l-2 -4q-8 -14 -13 -14q-8 -2 -18 18h-2zM387 383q10 -16 16 -16q2 0 11 14l2 2h-29zM387 385h29l4 8q-6 6 -10 8q-8 0 -23 -16zM391 199q0 -10 10 -11q11 1 11 11q0 8 -11 8q-10 0 -10 -8zM399 160q0 4 7 4q4 0 4 -4t-4 -4q-6 0 -7 4z M416 160q0 4 6 4q4 0 4 -4t-4 -4q-6 0 -6 4zM418 385h8q-2 4 -4 6zM422 395q2 -2 6 -8v-2h45q4 2 8 6q-2 31 -18 62q-10 2 -21 -17q-2 -6 -20 -41zM424 199q0 -10 8 -11q10 1 10 11q0 8 -10 8q-8 0 -8 -8zM430 383q8 -12 14 -12q6 -2 23 10q2 0 4 2h-41zM432 160q0 4 6 4 q4 0 4 -4t-4 -4q-6 0 -6 4zM449 160q0 4 6 4q4 0 4 -4t-4 -4q-6 0 -6 4zM455 199q0 -10 10 -11q10 1 10 11q0 8 -10 8t-10 -8zM465 160q0 4 4 4q6 0 6 -4t-6 -4q-4 0 -4 4zM477 385h6v4q-2 -2 -6 -4zM481 160q0 4 4 4q7 0 7 -4t-7 -4q-4 0 -4 4zM485 383q8 -39 17 -57h33 q4 12 14 53q0 2 -2 4h-62zM485 385h58q-27 23 -58 4v-4zM487 199q0 -10 11 -11q10 1 10 11q0 8 -10 8t-11 -8zM498 160q0 4 4 4q6 0 6 -4t-6 -4q-4 0 -4 4zM504 317q6 -14 14 -14t14 14h-28zM514 160q0 4 4 4q6 0 6 -4t-6 -4q-4 0 -4 4zM520 199q0 -10 10 -11q11 1 11 11 q0 8 -11 8q-10 0 -10 -8zM530 160q0 4 5 4q6 0 6 -4t-6 -4q-4 0 -5 4zM537 326h127q18 0 18 18l2 39h-35q-20 -55 -33 -51q-8 2 -14 51h-4q-10 -14 -23 -14q-12 -2 -24 10q-4 -18 -14 -53zM547 160q0 4 4 4q6 0 6 -4t-6 -4q-4 0 -4 4zM549 383h1h1h-2zM553 199q0 -10 10 -11 q10 1 10 11q0 8 -10 8t-10 -8zM553 381q12 -10 22 -10q11 2 21 12h-43v-2zM553 385h45q2 4 4 6q-2 23 -6 70h-23q-8 -33 -20 -76zM563 160q0 4 4 4q6 0 6 -4t-6 -4q-4 0 -4 4zM565 47q23 35 72 31q14 0 29 8q36 23 73 82q-16 -33 -39 -59q-55 -59 -135 -62zM575 467h19 q-2 16 -6 18q-6 -2 -13 -18zM580 160q0 4 4 4q6 0 6 -4t-6 -4q-4 0 -4 4zM586 199q0 -10 10 -11q10 1 10 11q0 8 -10 8t-10 -8zM596 160q0 4 4 4q6 0 6 -4t-6 -4q-4 0 -4 4zM598 461q2 -31 6 -68q10 14 27 17q10 0 22 -7q6 12 13 13q4 0 12 -27l2 -4h4l4 57q0 18 -18 19h-72 zM600 385h2v2zM604 383q2 -25 12 -49q12 -4 25 35q2 6 6 14h-43zM604 385h43q0 2 6 14v2q-12 6 -22 7q-14 -2 -27 -19v-4zM612 160q0 4 4 4q7 0 7 -4t-7 -4q-4 0 -4 4zM618 199q0 -10 11 -11q8 1 8 11q0 8 -8 8q-10 0 -11 -8zM629 160q0 4 4 4t4 -4t-4 -4t-4 4zM643 160 q0 4 6 4q4 0 4 -4t-4 -4q-6 0 -6 4zM649 199q0 -10 10 -11q11 1 11 11q0 8 -11 8q-10 0 -10 -8zM649 385h25q-12 12 -19 14v-2zM655 401q13 -6 23 -16l-2 2q-6 27 -10 27q-4 -2 -11 -13zM659 160q0 4 7 4q4 0 4 -4t-4 -4q-6 0 -7 4zM770 147q0 14 14 15q13 -1 13 -15 q0 -12 -13 -12q-14 0 -14 12zM772 125q0 4 4 4t4 -4t-4 -4t-4 4zM786 127q0 6 5 6q6 0 6 -6t-6 -6q-4 0 -5 6zM797 137q0 10 10 10t10 -10l-2 -2q78 94 78 211v256q-2 16 -8 35q-14 43 -54 88q72 -14 72 -123v-309q-2 -31 -12 -57q-23 -66 -80 -107l2 2q-4 -2 -6 -2 q-10 0 -10 8zM805 172q0 12 12 12q10 0 10 -12q0 -10 -10 -10q-12 0 -12 10z" />
<glyph unicode="&#xb6;" horiz-adv-x="1013" d="M121 61v89q0 61 61 61h88q61 0 62 -61v-89q0 -61 -62 -61h-88q-61 0 -61 61zM121 356v88q0 61 61 62h88q61 0 62 -62v-88q0 -61 -62 -61h-88q-61 0 -61 61zM121 627v88q0 61 61 61h88q61 0 62 -61v-88q0 -61 -62 -62h-88q-61 0 -61 62zM360 43v61q0 43 43 43h62 q43 0 43 -43v-61q0 -43 -43 -43h-62q-43 0 -43 43zM360 256v61q0 43 43 43h62q43 0 43 -43v-61q0 -43 -43 -43h-62q-43 0 -43 43zM360 463v61q0 43 43 43h62q43 0 43 -43v-61q0 -43 -43 -43h-62q-43 0 -43 43zM360 672v61q0 43 43 43h62q43 0 43 -43v-61q0 -43 -43 -43h-62 q-43 0 -43 43zM551 31v43q0 29 31 28h43q31 0 30 -28v-43q0 -31 -30 -31h-43q-31 0 -31 31zM551 158v43q0 31 31 30h43q31 0 30 -30v-43q0 -29 -30 -29h-43q-31 0 -31 29zM551 303v43q0 31 31 31h43q31 0 30 -31v-43q0 -29 -30 -29h-43q-31 0 -31 29zM551 444v43q0 31 31 31 h43q31 0 30 -31v-43q0 -29 -30 -28h-43q-31 0 -31 28zM551 578v43q0 29 31 28h43q31 0 30 -28v-43q0 -31 -30 -31h-43q-31 0 -31 31zM551 702v43q0 31 31 31h43q31 0 30 -31v-43q0 -29 -30 -28h-43q-31 0 -31 28zM688 20v31q0 20 21 21h30q20 0 21 -21v-31q0 -20 -21 -20 h-30q-20 0 -21 20zM688 131v31q0 20 21 20h30q20 0 21 -20v-31q0 -20 -21 -20h-30q-20 0 -21 20zM688 233v31q0 20 21 21h30q20 0 21 -21v-31q0 -20 -21 -20h-30q-20 0 -21 20zM688 344v31q0 20 21 20h30q20 0 21 -20v-31q0 -20 -21 -20h-30q-20 0 -21 20zM688 446v29 q0 23 21 23h30q20 0 21 -23v-29q0 -23 -21 -22h-30q-20 0 -21 22zM688 545v30q0 20 21 21h30q20 0 21 -21v-30q0 -23 -21 -23h-30q-20 0 -21 23zM688 637v31q0 20 21 20h30q20 0 21 -20v-31q0 -23 -21 -23h-30q-20 0 -21 23zM688 725v31q0 20 21 20h30q20 0 21 -20v-31 q0 -20 -21 -20h-30q-20 0 -21 20zM793 14v23q0 14 16 14h20q14 0 15 -14v-23q0 -14 -15 -14h-20q-16 0 -16 14zM793 92v21q0 14 16 14h20q14 0 15 -14v-21q0 -14 -15 -14h-20q-16 0 -16 14zM793 164v20q0 14 16 15h20q14 0 15 -15v-20q0 -14 -15 -14h-20q-16 0 -16 14z M793 248v20q0 14 16 15h20q14 0 15 -15v-20q0 -14 -15 -15h-20q-16 0 -16 15zM793 326v20q0 14 16 14h20q14 0 15 -14v-20q0 -16 -15 -17h-20q-16 0 -16 17zM793 395v23q0 14 16 14h20q14 0 15 -14v-23q0 -14 -15 -14h-20q-16 0 -16 14zM793 473v21q0 16 16 16h20 q14 0 15 -16v-21q0 -14 -15 -14h-20q-16 0 -16 14zM793 545v20q0 16 16 17h20q14 0 15 -17v-20q0 -14 -15 -15h-20q-16 0 -16 15zM793 614v21q0 14 16 14h20q14 0 15 -14v-21q0 -14 -15 -14h-20q-16 0 -16 14zM793 678v22q0 14 16 15h20q14 0 15 -15v-22q0 -14 -15 -14h-20 q-16 0 -16 14zM793 739v23q0 14 16 14h20q14 0 15 -14v-23q0 -14 -15 -14h-20q-16 0 -16 14zM872 10v15q0 10 11 10h14q10 0 10 -10v-15q0 -10 -10 -10h-14q-10 0 -11 10zM872 59v17q0 10 11 10h14q10 0 10 -10v-17q0 -10 -10 -10h-14q-10 0 -11 10zM872 109v14q0 10 11 10 h14q10 0 10 -10v-14q0 -10 -10 -11h-14q-10 0 -11 11zM872 154v14q0 10 11 10h14q10 0 10 -10v-14q0 -10 -10 -11h-14q-10 0 -11 11zM872 197v14q0 12 11 12h14q10 0 10 -12v-14q0 -10 -10 -11h-14q-10 0 -11 11zM872 244v14q0 10 11 10h14q10 0 10 -10v-14q0 -10 -10 -11 h-14q-10 0 -11 11zM872 297v14q0 10 11 11h14q10 0 10 -11v-14q0 -10 -10 -10h-14q-10 0 -11 10zM872 348v14q0 10 11 11h14q10 0 10 -11v-14q0 -10 -10 -10h-14q-10 0 -11 10zM872 406v16q0 10 11 10h14q10 0 10 -10v-16q0 -10 -10 -11h-14q-10 0 -11 11zM872 461v14 q0 10 11 10h14q10 0 10 -10v-14q0 -10 -10 -10h-14q-10 0 -11 10zM872 510v14q0 10 11 11h14q10 0 10 -11v-14q0 -10 -10 -10h-14q-10 0 -11 10zM872 565v15q0 10 11 10h14q10 0 10 -10v-15q0 -12 -10 -12h-14q-10 0 -11 12zM872 614v15q0 10 11 10h14q10 0 10 -10v-15 q0 -10 -10 -10h-14q-10 0 -11 10zM872 664v14q0 10 11 10h14q10 0 10 -10v-14q0 -12 -10 -13h-14q-10 0 -11 13zM872 709v14q0 10 11 10h14q10 0 10 -10v-14q0 -10 -10 -11h-14q-10 0 -11 11zM872 752v14q0 10 11 10h14q10 0 10 -10v-14q0 -10 -10 -11h-14q-10 0 -11 11z " />
<glyph unicode="&#xba;" horiz-adv-x="1013" d="M121 61v89q0 61 61 61h88q61 0 62 -61v-89q0 -61 -62 -61h-88q-61 0 -61 61zM121 356v88q0 61 61 62h88q61 0 62 -62v-88q0 -61 -62 -61h-88q-61 0 -61 61zM121 627v88q0 61 61 61h88q61 0 62 -61v-88q0 -61 -62 -62h-88q-61 0 -61 62zM360 43v61q0 43 43 43h62 q43 0 43 -43v-61q0 -43 -43 -43h-62q-43 0 -43 43zM360 256v61q0 43 43 43h62q43 0 43 -43v-61q0 -43 -43 -43h-62q-43 0 -43 43zM360 463v61q0 43 43 43h62q43 0 43 -43v-61q0 -43 -43 -43h-62q-43 0 -43 43zM360 672v61q0 43 43 43h62q43 0 43 -43v-61q0 -43 -43 -43h-62 q-43 0 -43 43zM551 31v43q0 29 31 28h43q31 0 30 -28v-43q0 -31 -30 -31h-43q-31 0 -31 31zM551 158v43q0 31 31 30h43q31 0 30 -30v-43q0 -29 -30 -29h-43q-31 0 -31 29zM551 303v43q0 31 31 31h43q31 0 30 -31v-43q0 -29 -30 -29h-43q-31 0 -31 29zM551 444v43q0 31 31 31 h43q31 0 30 -31v-43q0 -29 -30 -28h-43q-31 0 -31 28zM551 578v43q0 29 31 28h43q31 0 30 -28v-43q0 -31 -30 -31h-43q-31 0 -31 31zM551 702v43q0 31 31 31h43q31 0 30 -31v-43q0 -29 -30 -28h-43q-31 0 -31 28zM688 20v31q0 20 21 21h30q20 0 21 -21v-31q0 -20 -21 -20 h-30q-20 0 -21 20zM688 131v31q0 20 21 20h30q20 0 21 -20v-31q0 -20 -21 -20h-30q-20 0 -21 20zM688 233v31q0 20 21 21h30q20 0 21 -21v-31q0 -20 -21 -20h-30q-20 0 -21 20zM688 344v31q0 20 21 20h30q20 0 21 -20v-31q0 -20 -21 -20h-30q-20 0 -21 20zM688 446v29 q0 23 21 23h30q20 0 21 -23v-29q0 -23 -21 -22h-30q-20 0 -21 22zM688 545v30q0 20 21 21h30q20 0 21 -21v-30q0 -23 -21 -23h-30q-20 0 -21 23zM688 637v31q0 20 21 20h30q20 0 21 -20v-31q0 -23 -21 -23h-30q-20 0 -21 23zM688 725v31q0 20 21 20h30q20 0 21 -20v-31 q0 -20 -21 -20h-30q-20 0 -21 20zM793 14v23q0 14 16 14h20q14 0 15 -14v-23q0 -14 -15 -14h-20q-16 0 -16 14zM793 92v21q0 14 16 14h20q14 0 15 -14v-21q0 -14 -15 -14h-20q-16 0 -16 14zM793 164v20q0 14 16 15h20q14 0 15 -15v-20q0 -14 -15 -14h-20q-16 0 -16 14z M793 248v20q0 14 16 15h20q14 0 15 -15v-20q0 -14 -15 -15h-20q-16 0 -16 15zM793 326v20q0 14 16 14h20q14 0 15 -14v-20q0 -16 -15 -17h-20q-16 0 -16 17zM793 395v23q0 14 16 14h20q14 0 15 -14v-23q0 -14 -15 -14h-20q-16 0 -16 14zM793 473v21q0 16 16 16h20 q14 0 15 -16v-21q0 -14 -15 -14h-20q-16 0 -16 14zM793 545v20q0 16 16 17h20q14 0 15 -17v-20q0 -14 -15 -15h-20q-16 0 -16 15zM793 614v21q0 14 16 14h20q14 0 15 -14v-21q0 -14 -15 -14h-20q-16 0 -16 14zM793 678v22q0 14 16 15h20q14 0 15 -15v-22q0 -14 -15 -14h-20 q-16 0 -16 14zM793 739v23q0 14 16 14h20q14 0 15 -14v-23q0 -14 -15 -14h-20q-16 0 -16 14zM872 10v15q0 10 11 10h14q10 0 10 -10v-15q0 -10 -10 -10h-14q-10 0 -11 10zM872 59v17q0 10 11 10h14q10 0 10 -10v-17q0 -10 -10 -10h-14q-10 0 -11 10zM872 109v14q0 10 11 10 h14q10 0 10 -10v-14q0 -10 -10 -11h-14q-10 0 -11 11zM872 154v14q0 10 11 10h14q10 0 10 -10v-14q0 -10 -10 -11h-14q-10 0 -11 11zM872 197v14q0 12 11 12h14q10 0 10 -12v-14q0 -10 -10 -11h-14q-10 0 -11 11zM872 244v14q0 10 11 10h14q10 0 10 -10v-14q0 -10 -10 -11 h-14q-10 0 -11 11zM872 297v14q0 10 11 11h14q10 0 10 -11v-14q0 -10 -10 -10h-14q-10 0 -11 10zM872 348v14q0 10 11 11h14q10 0 10 -11v-14q0 -10 -10 -10h-14q-10 0 -11 10zM872 406v16q0 10 11 10h14q10 0 10 -10v-16q0 -10 -10 -11h-14q-10 0 -11 11zM872 461v14 q0 10 11 10h14q10 0 10 -10v-14q0 -10 -10 -10h-14q-10 0 -11 10zM872 510v14q0 10 11 11h14q10 0 10 -11v-14q0 -10 -10 -10h-14q-10 0 -11 10zM872 565v15q0 10 11 10h14q10 0 10 -10v-15q0 -12 -10 -12h-14q-10 0 -11 12zM872 614v15q0 10 11 10h14q10 0 10 -10v-15 q0 -10 -10 -10h-14q-10 0 -11 10zM872 664v14q0 10 11 10h14q10 0 10 -10v-14q0 -12 -10 -13h-14q-10 0 -11 13zM872 709v14q0 10 11 10h14q10 0 10 -10v-14q0 -10 -10 -11h-14q-10 0 -11 11zM872 752v14q0 10 11 10h14q10 0 10 -10v-14q0 -10 -10 -11h-14q-10 0 -11 11z " />
<glyph unicode="&#xc6;" horiz-adv-x="1013" d="M121 61v89q0 61 61 61h88q61 0 62 -61v-89q0 -61 -62 -61h-88q-61 0 -61 61zM121 356v88q0 61 61 62h88q61 0 62 -62v-88q0 -61 -62 -61h-88q-61 0 -61 61zM121 627v88q0 61 61 61h88q61 0 62 -61v-88q0 -61 -62 -62h-88q-61 0 -61 62zM360 43v61q0 43 43 43h62 q43 0 43 -43v-61q0 -43 -43 -43h-62q-43 0 -43 43zM360 256v61q0 43 43 43h62q43 0 43 -43v-61q0 -43 -43 -43h-62q-43 0 -43 43zM360 463v61q0 43 43 43h62q43 0 43 -43v-61q0 -43 -43 -43h-62q-43 0 -43 43zM360 672v61q0 43 43 43h62q43 0 43 -43v-61q0 -43 -43 -43h-62 q-43 0 -43 43zM551 31v43q0 29 31 28h43q31 0 30 -28v-43q0 -31 -30 -31h-43q-31 0 -31 31zM551 158v43q0 31 31 30h43q31 0 30 -30v-43q0 -29 -30 -29h-43q-31 0 -31 29zM551 303v43q0 31 31 31h43q31 0 30 -31v-43q0 -29 -30 -29h-43q-31 0 -31 29zM551 444v43q0 31 31 31 h43q31 0 30 -31v-43q0 -29 -30 -28h-43q-31 0 -31 28zM551 578v43q0 29 31 28h43q31 0 30 -28v-43q0 -31 -30 -31h-43q-31 0 -31 31zM551 702v43q0 31 31 31h43q31 0 30 -31v-43q0 -29 -30 -28h-43q-31 0 -31 28zM688 20v31q0 20 21 21h30q20 0 21 -21v-31q0 -20 -21 -20 h-30q-20 0 -21 20zM688 131v31q0 20 21 20h30q20 0 21 -20v-31q0 -20 -21 -20h-30q-20 0 -21 20zM688 233v31q0 20 21 21h30q20 0 21 -21v-31q0 -20 -21 -20h-30q-20 0 -21 20zM688 344v31q0 20 21 20h30q20 0 21 -20v-31q0 -20 -21 -20h-30q-20 0 -21 20zM688 446v29 q0 23 21 23h30q20 0 21 -23v-29q0 -23 -21 -22h-30q-20 0 -21 22zM688 545v30q0 20 21 21h30q20 0 21 -21v-30q0 -23 -21 -23h-30q-20 0 -21 23zM688 637v31q0 20 21 20h30q20 0 21 -20v-31q0 -23 -21 -23h-30q-20 0 -21 23zM688 725v31q0 20 21 20h30q20 0 21 -20v-31 q0 -20 -21 -20h-30q-20 0 -21 20zM793 14v23q0 14 16 14h20q14 0 15 -14v-23q0 -14 -15 -14h-20q-16 0 -16 14zM793 92v21q0 14 16 14h20q14 0 15 -14v-21q0 -14 -15 -14h-20q-16 0 -16 14zM793 164v20q0 14 16 15h20q14 0 15 -15v-20q0 -14 -15 -14h-20q-16 0 -16 14z M793 248v20q0 14 16 15h20q14 0 15 -15v-20q0 -14 -15 -15h-20q-16 0 -16 15zM793 326v20q0 14 16 14h20q14 0 15 -14v-20q0 -16 -15 -17h-20q-16 0 -16 17zM793 395v23q0 14 16 14h20q14 0 15 -14v-23q0 -14 -15 -14h-20q-16 0 -16 14zM793 473v21q0 16 16 16h20 q14 0 15 -16v-21q0 -14 -15 -14h-20q-16 0 -16 14zM793 545v20q0 16 16 17h20q14 0 15 -17v-20q0 -14 -15 -15h-20q-16 0 -16 15zM793 614v21q0 14 16 14h20q14 0 15 -14v-21q0 -14 -15 -14h-20q-16 0 -16 14zM793 678v22q0 14 16 15h20q14 0 15 -15v-22q0 -14 -15 -14h-20 q-16 0 -16 14zM793 739v23q0 14 16 14h20q14 0 15 -14v-23q0 -14 -15 -14h-20q-16 0 -16 14zM872 10v15q0 10 11 10h14q10 0 10 -10v-15q0 -10 -10 -10h-14q-10 0 -11 10zM872 59v17q0 10 11 10h14q10 0 10 -10v-17q0 -10 -10 -10h-14q-10 0 -11 10zM872 109v14q0 10 11 10 h14q10 0 10 -10v-14q0 -10 -10 -11h-14q-10 0 -11 11zM872 154v14q0 10 11 10h14q10 0 10 -10v-14q0 -10 -10 -11h-14q-10 0 -11 11zM872 197v14q0 12 11 12h14q10 0 10 -12v-14q0 -10 -10 -11h-14q-10 0 -11 11zM872 244v14q0 10 11 10h14q10 0 10 -10v-14q0 -10 -10 -11 h-14q-10 0 -11 11zM872 297v14q0 10 11 11h14q10 0 10 -11v-14q0 -10 -10 -10h-14q-10 0 -11 10zM872 348v14q0 10 11 11h14q10 0 10 -11v-14q0 -10 -10 -10h-14q-10 0 -11 10zM872 406v16q0 10 11 10h14q10 0 10 -10v-16q0 -10 -10 -11h-14q-10 0 -11 11zM872 461v14 q0 10 11 10h14q10 0 10 -10v-14q0 -10 -10 -10h-14q-10 0 -11 10zM872 510v14q0 10 11 11h14q10 0 10 -11v-14q0 -10 -10 -10h-14q-10 0 -11 10zM872 565v15q0 10 11 10h14q10 0 10 -10v-15q0 -12 -10 -12h-14q-10 0 -11 12zM872 614v15q0 10 11 10h14q10 0 10 -10v-15 q0 -10 -10 -10h-14q-10 0 -11 10zM872 664v14q0 10 11 10h14q10 0 10 -10v-14q0 -12 -10 -13h-14q-10 0 -11 13zM872 709v14q0 10 11 10h14q10 0 10 -10v-14q0 -10 -10 -11h-14q-10 0 -11 11zM872 752v14q0 10 11 10h14q10 0 10 -10v-14q0 -10 -10 -11h-14q-10 0 -11 11z " />
<glyph unicode="&#xd8;" horiz-adv-x="1073" d="M119 299v342q0 57 41 94t98 33q270 -27 381 -16l164 16q57 4 98 -33t41 -94v-342q0 -131 -122 -220t-290 -89t-289.5 89t-121.5 220zM147 299q0 -117 113 -199t270 -82q158 0 270.5 82t112.5 199v342q0 45 -31.5 73.5t-76.5 24.5l-162 -16q-115 -10 -227 0l-160 16 q-45 4 -77 -24.5t-32 -73.5v-342zM158 551q0 6 6 6t6 -6t-6 -6t-6 6zM158 627q0 6 8 6t8 -6q0 -8 -8 -9q-8 0 -8 9zM158 633q12 88 92 94q29 0 170 -12q121 -10 158 -6q-139 -23 -240 -9q-27 4 -51 5q-113 0 -129 -72zM162 590q0 27 24 26h7q-2 2 -3 7q0 12 13 12 q12 0 12 -12t-12 -13q10 -8 10 -20q0 -25 -27 -25q-25 0 -24 25zM178 528q0 10 10 11q9 -1 9 -11t-9 -10q-10 0 -10 10zM354 440q-2 37 37 37h176q10 23 23 21q10 -2 14 -21h66q39 0 37 -37l-7 -96q-2 -37 -36 -37h-123q-8 -16 -23 -16q-14 0 -22 16h-99q-35 0 -37 37z M381 174v47h301v-47h-301zM381 436q0 -14 2 -51h2q16 18 25 18q6 0 12 -6q8 18 18.5 39t22.5 19q10 0 20 -64q37 20 64 -6h4v4q6 25 20 72h-174q-16 -12 -16 -25zM383 160q0 4 6 4q4 0 4 -4t-4 -4q-6 0 -6 4zM383 383q0 -29 14 -57h101q-6 20 -15 57h-8q-2 -2 -6 -4 q-18 -12 -25 -10q-8 2 -16 14h-10l-2 -4q-8 -14 -13 -14q-8 -2 -18 18h-2zM387 383q10 -16 16 -16q2 0 11 14l2 2h-29zM387 385h29l4 8q-6 6 -10 8q-8 0 -23 -16zM391 199q0 -10 10 -11q11 1 11 11q0 8 -11 8q-10 0 -10 -8zM399 160q0 4 7 4q4 0 4 -4t-4 -4q-6 0 -7 4z M416 160q0 4 6 4q4 0 4 -4t-4 -4q-6 0 -6 4zM418 385h8q-2 4 -4 6zM422 395q2 -2 6 -8v-2h45q4 2 8 6q-2 31 -18 62q-10 2 -21 -17q-2 -6 -20 -41zM424 199q0 -10 8 -11q10 1 10 11q0 8 -10 8q-8 0 -8 -8zM430 383q8 -12 14 -12q6 -2 23 10q2 0 4 2h-41zM432 160q0 4 6 4 q4 0 4 -4t-4 -4q-6 0 -6 4zM449 160q0 4 6 4q4 0 4 -4t-4 -4q-6 0 -6 4zM455 199q0 -10 10 -11q10 1 10 11q0 8 -10 8t-10 -8zM465 160q0 4 4 4q6 0 6 -4t-6 -4q-4 0 -4 4zM477 385h6v4q-2 -2 -6 -4zM481 160q0 4 4 4q7 0 7 -4t-7 -4q-4 0 -4 4zM485 383q8 -39 17 -57h33 q4 12 14 53q0 2 -2 4h-62zM485 385h58q-27 23 -58 4v-4zM487 199q0 -10 11 -11q10 1 10 11q0 8 -10 8t-11 -8zM498 160q0 4 4 4q6 0 6 -4t-6 -4q-4 0 -4 4zM504 317q6 -14 14 -14t14 14h-28zM514 160q0 4 4 4q6 0 6 -4t-6 -4q-4 0 -4 4zM520 199q0 -10 10 -11q11 1 11 11 q0 8 -11 8q-10 0 -10 -8zM530 160q0 4 5 4q6 0 6 -4t-6 -4q-4 0 -5 4zM537 326h127q18 0 18 18l2 39h-35q-20 -55 -33 -51q-8 2 -14 51h-4q-10 -14 -23 -14q-12 -2 -24 10q-4 -18 -14 -53zM547 160q0 4 4 4q6 0 6 -4t-6 -4q-4 0 -4 4zM549 383h1h1h-2zM553 199q0 -10 10 -11 q10 1 10 11q0 8 -10 8t-10 -8zM553 381q12 -10 22 -10q11 2 21 12h-43v-2zM553 385h45q2 4 4 6q-2 23 -6 70h-23q-8 -33 -20 -76zM563 160q0 4 4 4q6 0 6 -4t-6 -4q-4 0 -4 4zM565 47q23 35 72 31q14 0 29 8q36 23 73 82q-16 -33 -39 -59q-55 -59 -135 -62zM575 467h19 q-2 16 -6 18q-6 -2 -13 -18zM580 160q0 4 4 4q6 0 6 -4t-6 -4q-4 0 -4 4zM586 199q0 -10 10 -11q10 1 10 11q0 8 -10 8t-10 -8zM596 160q0 4 4 4q6 0 6 -4t-6 -4q-4 0 -4 4zM598 461q2 -31 6 -68q10 14 27 17q10 0 22 -7q6 12 13 13q4 0 12 -27l2 -4h4l4 57q0 18 -18 19h-72 zM600 385h2v2zM604 383q2 -25 12 -49q12 -4 25 35q2 6 6 14h-43zM604 385h43q0 2 6 14v2q-12 6 -22 7q-14 -2 -27 -19v-4zM612 160q0 4 4 4q7 0 7 -4t-7 -4q-4 0 -4 4zM618 199q0 -10 11 -11q8 1 8 11q0 8 -8 8q-10 0 -11 -8zM629 160q0 4 4 4t4 -4t-4 -4t-4 4zM643 160 q0 4 6 4q4 0 4 -4t-4 -4q-6 0 -6 4zM649 199q0 -10 10 -11q11 1 11 11q0 8 -11 8q-10 0 -10 -8zM649 385h25q-12 12 -19 14v-2zM655 401q13 -6 23 -16l-2 2q-6 27 -10 27q-4 -2 -11 -13zM659 160q0 4 7 4q4 0 4 -4t-4 -4q-6 0 -7 4zM770 147q0 14 14 15q13 -1 13 -15 q0 -12 -13 -12q-14 0 -14 12zM772 125q0 4 4 4t4 -4t-4 -4t-4 4zM786 127q0 6 5 6q6 0 6 -6t-6 -6q-4 0 -5 6zM797 137q0 10 10 10t10 -10l-2 -2q78 94 78 211v256q-2 16 -8 35q-14 43 -54 88q72 -14 72 -123v-309q-2 -31 -12 -57q-23 -66 -80 -107l2 2q-4 -2 -6 -2 q-10 0 -10 8zM805 172q0 12 12 12q10 0 10 -12q0 -10 -10 -10q-12 0 -12 10z" />
<glyph unicode="&#xdf;" horiz-adv-x="1073" d="M119 299v342q0 57 41 94t98 33q270 -27 381 -16l164 16q57 4 98 -33t41 -94v-342q0 -131 -122 -220t-290 -89t-289.5 89t-121.5 220zM147 299q0 -117 113 -199t270 -82q158 0 270.5 82t112.5 199v342q0 45 -31.5 73.5t-76.5 24.5l-162 -16q-115 -10 -227 0l-160 16 q-45 4 -77 -24.5t-32 -73.5v-342zM158 551q0 6 6 6t6 -6t-6 -6t-6 6zM158 627q0 6 8 6t8 -6q0 -8 -8 -9q-8 0 -8 9zM158 633q12 88 92 94q29 0 170 -12q121 -10 158 -6q-139 -23 -240 -9q-27 4 -51 5q-113 0 -129 -72zM162 590q0 27 24 26h7q-2 2 -3 7q0 12 13 12 q12 0 12 -12t-12 -13q10 -8 10 -20q0 -25 -27 -25q-25 0 -24 25zM178 528q0 10 10 11q9 -1 9 -11t-9 -10q-10 0 -10 10zM354 440q-2 37 37 37h176q10 23 23 21q10 -2 14 -21h66q39 0 37 -37l-7 -96q-2 -37 -36 -37h-123q-8 -16 -23 -16q-14 0 -22 16h-99q-35 0 -37 37z M381 174v47h301v-47h-301zM381 436q0 -14 2 -51h2q16 18 25 18q6 0 12 -6q8 18 18.5 39t22.5 19q10 0 20 -64q37 20 64 -6h4v4q6 25 20 72h-174q-16 -12 -16 -25zM383 160q0 4 6 4q4 0 4 -4t-4 -4q-6 0 -6 4zM383 383q0 -29 14 -57h101q-6 20 -15 57h-8q-2 -2 -6 -4 q-18 -12 -25 -10q-8 2 -16 14h-10l-2 -4q-8 -14 -13 -14q-8 -2 -18 18h-2zM387 383q10 -16 16 -16q2 0 11 14l2 2h-29zM387 385h29l4 8q-6 6 -10 8q-8 0 -23 -16zM391 199q0 -10 10 -11q11 1 11 11q0 8 -11 8q-10 0 -10 -8zM399 160q0 4 7 4q4 0 4 -4t-4 -4q-6 0 -7 4z M416 160q0 4 6 4q4 0 4 -4t-4 -4q-6 0 -6 4zM418 385h8q-2 4 -4 6zM422 395q2 -2 6 -8v-2h45q4 2 8 6q-2 31 -18 62q-10 2 -21 -17q-2 -6 -20 -41zM424 199q0 -10 8 -11q10 1 10 11q0 8 -10 8q-8 0 -8 -8zM430 383q8 -12 14 -12q6 -2 23 10q2 0 4 2h-41zM432 160q0 4 6 4 q4 0 4 -4t-4 -4q-6 0 -6 4zM449 160q0 4 6 4q4 0 4 -4t-4 -4q-6 0 -6 4zM455 199q0 -10 10 -11q10 1 10 11q0 8 -10 8t-10 -8zM465 160q0 4 4 4q6 0 6 -4t-6 -4q-4 0 -4 4zM477 385h6v4q-2 -2 -6 -4zM481 160q0 4 4 4q7 0 7 -4t-7 -4q-4 0 -4 4zM485 383q8 -39 17 -57h33 q4 12 14 53q0 2 -2 4h-62zM485 385h58q-27 23 -58 4v-4zM487 199q0 -10 11 -11q10 1 10 11q0 8 -10 8t-11 -8zM498 160q0 4 4 4q6 0 6 -4t-6 -4q-4 0 -4 4zM504 317q6 -14 14 -14t14 14h-28zM514 160q0 4 4 4q6 0 6 -4t-6 -4q-4 0 -4 4zM520 199q0 -10 10 -11q11 1 11 11 q0 8 -11 8q-10 0 -10 -8zM530 160q0 4 5 4q6 0 6 -4t-6 -4q-4 0 -5 4zM537 326h127q18 0 18 18l2 39h-35q-20 -55 -33 -51q-8 2 -14 51h-4q-10 -14 -23 -14q-12 -2 -24 10q-4 -18 -14 -53zM547 160q0 4 4 4q6 0 6 -4t-6 -4q-4 0 -4 4zM549 383h1h1h-2zM553 199q0 -10 10 -11 q10 1 10 11q0 8 -10 8t-10 -8zM553 381q12 -10 22 -10q11 2 21 12h-43v-2zM553 385h45q2 4 4 6q-2 23 -6 70h-23q-8 -33 -20 -76zM563 160q0 4 4 4q6 0 6 -4t-6 -4q-4 0 -4 4zM565 47q23 35 72 31q14 0 29 8q36 23 73 82q-16 -33 -39 -59q-55 -59 -135 -62zM575 467h19 q-2 16 -6 18q-6 -2 -13 -18zM580 160q0 4 4 4q6 0 6 -4t-6 -4q-4 0 -4 4zM586 199q0 -10 10 -11q10 1 10 11q0 8 -10 8t-10 -8zM596 160q0 4 4 4q6 0 6 -4t-6 -4q-4 0 -4 4zM598 461q2 -31 6 -68q10 14 27 17q10 0 22 -7q6 12 13 13q4 0 12 -27l2 -4h4l4 57q0 18 -18 19h-72 zM600 385h2v2zM604 383q2 -25 12 -49q12 -4 25 35q2 6 6 14h-43zM604 385h43q0 2 6 14v2q-12 6 -22 7q-14 -2 -27 -19v-4zM612 160q0 4 4 4q7 0 7 -4t-7 -4q-4 0 -4 4zM618 199q0 -10 11 -11q8 1 8 11q0 8 -8 8q-10 0 -11 -8zM629 160q0 4 4 4t4 -4t-4 -4t-4 4zM643 160 q0 4 6 4q4 0 4 -4t-4 -4q-6 0 -6 4zM649 199q0 -10 10 -11q11 1 11 11q0 8 -11 8q-10 0 -10 -8zM649 385h25q-12 12 -19 14v-2zM655 401q13 -6 23 -16l-2 2q-6 27 -10 27q-4 -2 -11 -13zM659 160q0 4 7 4q4 0 4 -4t-4 -4q-6 0 -7 4zM770 147q0 14 14 15q13 -1 13 -15 q0 -12 -13 -12q-14 0 -14 12zM772 125q0 4 4 4t4 -4t-4 -4t-4 4zM786 127q0 6 5 6q6 0 6 -6t-6 -6q-4 0 -5 6zM797 137q0 10 10 10t10 -10l-2 -2q78 94 78 211v256q-2 16 -8 35q-14 43 -54 88q72 -14 72 -123v-309q-2 -31 -12 -57q-23 -66 -80 -107l2 2q-4 -2 -6 -2 q-10 0 -10 8zM805 172q0 12 12 12q10 0 10 -12q0 -10 -10 -10q-12 0 -12 10z" />
<glyph unicode="&#xe6;" horiz-adv-x="1013" d="M121 61v89q0 61 61 61h88q61 0 62 -61v-89q0 -61 -62 -61h-88q-61 0 -61 61zM121 356v88q0 61 61 62h88q61 0 62 -62v-88q0 -61 -62 -61h-88q-61 0 -61 61zM121 627v88q0 61 61 61h88q61 0 62 -61v-88q0 -61 -62 -62h-88q-61 0 -61 62zM360 43v61q0 43 43 43h62 q43 0 43 -43v-61q0 -43 -43 -43h-62q-43 0 -43 43zM360 256v61q0 43 43 43h62q43 0 43 -43v-61q0 -43 -43 -43h-62q-43 0 -43 43zM360 463v61q0 43 43 43h62q43 0 43 -43v-61q0 -43 -43 -43h-62q-43 0 -43 43zM360 672v61q0 43 43 43h62q43 0 43 -43v-61q0 -43 -43 -43h-62 q-43 0 -43 43zM551 31v43q0 29 31 28h43q31 0 30 -28v-43q0 -31 -30 -31h-43q-31 0 -31 31zM551 158v43q0 31 31 30h43q31 0 30 -30v-43q0 -29 -30 -29h-43q-31 0 -31 29zM551 303v43q0 31 31 31h43q31 0 30 -31v-43q0 -29 -30 -29h-43q-31 0 -31 29zM551 444v43q0 31 31 31 h43q31 0 30 -31v-43q0 -29 -30 -28h-43q-31 0 -31 28zM551 578v43q0 29 31 28h43q31 0 30 -28v-43q0 -31 -30 -31h-43q-31 0 -31 31zM551 702v43q0 31 31 31h43q31 0 30 -31v-43q0 -29 -30 -28h-43q-31 0 -31 28zM688 20v31q0 20 21 21h30q20 0 21 -21v-31q0 -20 -21 -20 h-30q-20 0 -21 20zM688 131v31q0 20 21 20h30q20 0 21 -20v-31q0 -20 -21 -20h-30q-20 0 -21 20zM688 233v31q0 20 21 21h30q20 0 21 -21v-31q0 -20 -21 -20h-30q-20 0 -21 20zM688 344v31q0 20 21 20h30q20 0 21 -20v-31q0 -20 -21 -20h-30q-20 0 -21 20zM688 446v29 q0 23 21 23h30q20 0 21 -23v-29q0 -23 -21 -22h-30q-20 0 -21 22zM688 545v30q0 20 21 21h30q20 0 21 -21v-30q0 -23 -21 -23h-30q-20 0 -21 23zM688 637v31q0 20 21 20h30q20 0 21 -20v-31q0 -23 -21 -23h-30q-20 0 -21 23zM688 725v31q0 20 21 20h30q20 0 21 -20v-31 q0 -20 -21 -20h-30q-20 0 -21 20zM793 14v23q0 14 16 14h20q14 0 15 -14v-23q0 -14 -15 -14h-20q-16 0 -16 14zM793 92v21q0 14 16 14h20q14 0 15 -14v-21q0 -14 -15 -14h-20q-16 0 -16 14zM793 164v20q0 14 16 15h20q14 0 15 -15v-20q0 -14 -15 -14h-20q-16 0 -16 14z M793 248v20q0 14 16 15h20q14 0 15 -15v-20q0 -14 -15 -15h-20q-16 0 -16 15zM793 326v20q0 14 16 14h20q14 0 15 -14v-20q0 -16 -15 -17h-20q-16 0 -16 17zM793 395v23q0 14 16 14h20q14 0 15 -14v-23q0 -14 -15 -14h-20q-16 0 -16 14zM793 473v21q0 16 16 16h20 q14 0 15 -16v-21q0 -14 -15 -14h-20q-16 0 -16 14zM793 545v20q0 16 16 17h20q14 0 15 -17v-20q0 -14 -15 -15h-20q-16 0 -16 15zM793 614v21q0 14 16 14h20q14 0 15 -14v-21q0 -14 -15 -14h-20q-16 0 -16 14zM793 678v22q0 14 16 15h20q14 0 15 -15v-22q0 -14 -15 -14h-20 q-16 0 -16 14zM793 739v23q0 14 16 14h20q14 0 15 -14v-23q0 -14 -15 -14h-20q-16 0 -16 14zM872 10v15q0 10 11 10h14q10 0 10 -10v-15q0 -10 -10 -10h-14q-10 0 -11 10zM872 59v17q0 10 11 10h14q10 0 10 -10v-17q0 -10 -10 -10h-14q-10 0 -11 10zM872 109v14q0 10 11 10 h14q10 0 10 -10v-14q0 -10 -10 -11h-14q-10 0 -11 11zM872 154v14q0 10 11 10h14q10 0 10 -10v-14q0 -10 -10 -11h-14q-10 0 -11 11zM872 197v14q0 12 11 12h14q10 0 10 -12v-14q0 -10 -10 -11h-14q-10 0 -11 11zM872 244v14q0 10 11 10h14q10 0 10 -10v-14q0 -10 -10 -11 h-14q-10 0 -11 11zM872 297v14q0 10 11 11h14q10 0 10 -11v-14q0 -10 -10 -10h-14q-10 0 -11 10zM872 348v14q0 10 11 11h14q10 0 10 -11v-14q0 -10 -10 -10h-14q-10 0 -11 10zM872 406v16q0 10 11 10h14q10 0 10 -10v-16q0 -10 -10 -11h-14q-10 0 -11 11zM872 461v14 q0 10 11 10h14q10 0 10 -10v-14q0 -10 -10 -10h-14q-10 0 -11 10zM872 510v14q0 10 11 11h14q10 0 10 -11v-14q0 -10 -10 -10h-14q-10 0 -11 10zM872 565v15q0 10 11 10h14q10 0 10 -10v-15q0 -12 -10 -12h-14q-10 0 -11 12zM872 614v15q0 10 11 10h14q10 0 10 -10v-15 q0 -10 -10 -10h-14q-10 0 -11 10zM872 664v14q0 10 11 10h14q10 0 10 -10v-14q0 -12 -10 -13h-14q-10 0 -11 13zM872 709v14q0 10 11 10h14q10 0 10 -10v-14q0 -10 -10 -11h-14q-10 0 -11 11zM872 752v14q0 10 11 10h14q10 0 10 -10v-14q0 -10 -10 -11h-14q-10 0 -11 11z " />
<glyph unicode="&#xf8;" horiz-adv-x="1073" d="M119 299v342q0 57 41 94t98 33q270 -27 381 -16l164 16q57 4 98 -33t41 -94v-342q0 -131 -122 -220t-290 -89t-289.5 89t-121.5 220zM147 299q0 -117 113 -199t270 -82q158 0 270.5 82t112.5 199v342q0 45 -31.5 73.5t-76.5 24.5l-162 -16q-115 -10 -227 0l-160 16 q-45 4 -77 -24.5t-32 -73.5v-342zM158 551q0 6 6 6t6 -6t-6 -6t-6 6zM158 627q0 6 8 6t8 -6q0 -8 -8 -9q-8 0 -8 9zM158 633q12 88 92 94q29 0 170 -12q121 -10 158 -6q-139 -23 -240 -9q-27 4 -51 5q-113 0 -129 -72zM162 590q0 27 24 26h7q-2 2 -3 7q0 12 13 12 q12 0 12 -12t-12 -13q10 -8 10 -20q0 -25 -27 -25q-25 0 -24 25zM178 528q0 10 10 11q9 -1 9 -11t-9 -10q-10 0 -10 10zM354 440q-2 37 37 37h176q10 23 23 21q10 -2 14 -21h66q39 0 37 -37l-7 -96q-2 -37 -36 -37h-123q-8 -16 -23 -16q-14 0 -22 16h-99q-35 0 -37 37z M381 174v47h301v-47h-301zM381 436q0 -14 2 -51h2q16 18 25 18q6 0 12 -6q8 18 18.5 39t22.5 19q10 0 20 -64q37 20 64 -6h4v4q6 25 20 72h-174q-16 -12 -16 -25zM383 160q0 4 6 4q4 0 4 -4t-4 -4q-6 0 -6 4zM383 383q0 -29 14 -57h101q-6 20 -15 57h-8q-2 -2 -6 -4 q-18 -12 -25 -10q-8 2 -16 14h-10l-2 -4q-8 -14 -13 -14q-8 -2 -18 18h-2zM387 383q10 -16 16 -16q2 0 11 14l2 2h-29zM387 385h29l4 8q-6 6 -10 8q-8 0 -23 -16zM391 199q0 -10 10 -11q11 1 11 11q0 8 -11 8q-10 0 -10 -8zM399 160q0 4 7 4q4 0 4 -4t-4 -4q-6 0 -7 4z M416 160q0 4 6 4q4 0 4 -4t-4 -4q-6 0 -6 4zM418 385h8q-2 4 -4 6zM422 395q2 -2 6 -8v-2h45q4 2 8 6q-2 31 -18 62q-10 2 -21 -17q-2 -6 -20 -41zM424 199q0 -10 8 -11q10 1 10 11q0 8 -10 8q-8 0 -8 -8zM430 383q8 -12 14 -12q6 -2 23 10q2 0 4 2h-41zM432 160q0 4 6 4 q4 0 4 -4t-4 -4q-6 0 -6 4zM449 160q0 4 6 4q4 0 4 -4t-4 -4q-6 0 -6 4zM455 199q0 -10 10 -11q10 1 10 11q0 8 -10 8t-10 -8zM465 160q0 4 4 4q6 0 6 -4t-6 -4q-4 0 -4 4zM477 385h6v4q-2 -2 -6 -4zM481 160q0 4 4 4q7 0 7 -4t-7 -4q-4 0 -4 4zM485 383q8 -39 17 -57h33 q4 12 14 53q0 2 -2 4h-62zM485 385h58q-27 23 -58 4v-4zM487 199q0 -10 11 -11q10 1 10 11q0 8 -10 8t-11 -8zM498 160q0 4 4 4q6 0 6 -4t-6 -4q-4 0 -4 4zM504 317q6 -14 14 -14t14 14h-28zM514 160q0 4 4 4q6 0 6 -4t-6 -4q-4 0 -4 4zM520 199q0 -10 10 -11q11 1 11 11 q0 8 -11 8q-10 0 -10 -8zM530 160q0 4 5 4q6 0 6 -4t-6 -4q-4 0 -5 4zM537 326h127q18 0 18 18l2 39h-35q-20 -55 -33 -51q-8 2 -14 51h-4q-10 -14 -23 -14q-12 -2 -24 10q-4 -18 -14 -53zM547 160q0 4 4 4q6 0 6 -4t-6 -4q-4 0 -4 4zM549 383h1h1h-2zM553 199q0 -10 10 -11 q10 1 10 11q0 8 -10 8t-10 -8zM553 381q12 -10 22 -10q11 2 21 12h-43v-2zM553 385h45q2 4 4 6q-2 23 -6 70h-23q-8 -33 -20 -76zM563 160q0 4 4 4q6 0 6 -4t-6 -4q-4 0 -4 4zM565 47q23 35 72 31q14 0 29 8q36 23 73 82q-16 -33 -39 -59q-55 -59 -135 -62zM575 467h19 q-2 16 -6 18q-6 -2 -13 -18zM580 160q0 4 4 4q6 0 6 -4t-6 -4q-4 0 -4 4zM586 199q0 -10 10 -11q10 1 10 11q0 8 -10 8t-10 -8zM596 160q0 4 4 4q6 0 6 -4t-6 -4q-4 0 -4 4zM598 461q2 -31 6 -68q10 14 27 17q10 0 22 -7q6 12 13 13q4 0 12 -27l2 -4h4l4 57q0 18 -18 19h-72 zM600 385h2v2zM604 383q2 -25 12 -49q12 -4 25 35q2 6 6 14h-43zM604 385h43q0 2 6 14v2q-12 6 -22 7q-14 -2 -27 -19v-4zM612 160q0 4 4 4q7 0 7 -4t-7 -4q-4 0 -4 4zM618 199q0 -10 11 -11q8 1 8 11q0 8 -8 8q-10 0 -11 -8zM629 160q0 4 4 4t4 -4t-4 -4t-4 4zM643 160 q0 4 6 4q4 0 4 -4t-4 -4q-6 0 -6 4zM649 199q0 -10 10 -11q11 1 11 11q0 8 -11 8q-10 0 -10 -8zM649 385h25q-12 12 -19 14v-2zM655 401q13 -6 23 -16l-2 2q-6 27 -10 27q-4 -2 -11 -13zM659 160q0 4 7 4q4 0 4 -4t-4 -4q-6 0 -7 4zM770 147q0 14 14 15q13 -1 13 -15 q0 -12 -13 -12q-14 0 -14 12zM772 125q0 4 4 4t4 -4t-4 -4t-4 4zM786 127q0 6 5 6q6 0 6 -6t-6 -6q-4 0 -5 6zM797 137q0 10 10 10t10 -10l-2 -2q78 94 78 211v256q-2 16 -8 35q-14 43 -54 88q72 -14 72 -123v-309q-2 -31 -12 -57q-23 -66 -80 -107l2 2q-4 -2 -6 -2 q-10 0 -10 8zM805 172q0 12 12 12q10 0 10 -12q0 -10 -10 -10q-12 0 -12 10z" />
<glyph unicode="&#x2000;" horiz-adv-x="682" />
<glyph unicode="&#x2001;" horiz-adv-x="1365" />
<glyph unicode="&#x2002;" horiz-adv-x="682" />
<glyph unicode="&#x2003;" horiz-adv-x="1365" />
<glyph unicode="&#x2004;" horiz-adv-x="455" />
<glyph unicode="&#x2005;" horiz-adv-x="341" />
<glyph unicode="&#x2006;" horiz-adv-x="227" />
<glyph unicode="&#x2007;" horiz-adv-x="227" />
<glyph unicode="&#x2008;" horiz-adv-x="170" />
<glyph unicode="&#x2009;" horiz-adv-x="273" />
<glyph unicode="&#x200a;" horiz-adv-x="75" />
<glyph unicode="&#x2010;" horiz-adv-x="708" d="M121 313q0 84 83 143.5t199 59.5h302q0 -84 -83 -143.5t-200 -59.5h-301z" />
<glyph unicode="&#x2011;" horiz-adv-x="708" d="M121 313q0 84 83 143.5t199 59.5h302q0 -84 -83 -143.5t-200 -59.5h-301z" />
<glyph unicode="&#x2012;" horiz-adv-x="708" d="M121 313q0 84 83 143.5t199 59.5h302q0 -84 -83 -143.5t-200 -59.5h-301z" />
<glyph unicode="&#x2013;" horiz-adv-x="1148" d="M121 313q0 84 145.5 143.5t348.5 59.5h530q0 -84 -145.5 -143.5t-350.5 -59.5h-528z" />
<glyph unicode="&#x2014;" horiz-adv-x="2172" d="M121 313q0 84 291 143.5t698 59.5h1059q0 -84 -291 -143.5t-701 -59.5h-1056z" />
<glyph unicode="&#x2022;" horiz-adv-x="1073" d="M119 299v342q0 57 41 94t98 33q270 -27 381 -16l164 16q57 4 98 -33t41 -94v-342q0 -131 -122 -220t-290 -89t-289.5 89t-121.5 220zM147 299q0 -117 113 -199t270 -82q158 0 270.5 82t112.5 199v342q0 45 -31.5 73.5t-76.5 24.5l-162 -16q-115 -10 -227 0l-160 16 q-45 4 -77 -24.5t-32 -73.5v-342zM158 551q0 6 6 6t6 -6t-6 -6t-6 6zM158 627q0 6 8 6t8 -6q0 -8 -8 -9q-8 0 -8 9zM158 633q12 88 92 94q29 0 170 -12q121 -10 158 -6q-139 -23 -240 -9q-27 4 -51 5q-113 0 -129 -72zM162 590q0 27 24 26h7q-2 2 -3 7q0 12 13 12 q12 0 12 -12t-12 -13q10 -8 10 -20q0 -25 -27 -25q-25 0 -24 25zM178 528q0 10 10 11q9 -1 9 -11t-9 -10q-10 0 -10 10zM354 440q-2 37 37 37h176q10 23 23 21q10 -2 14 -21h66q39 0 37 -37l-7 -96q-2 -37 -36 -37h-123q-8 -16 -23 -16q-14 0 -22 16h-99q-35 0 -37 37z M381 174v47h301v-47h-301zM381 436q0 -14 2 -51h2q16 18 25 18q6 0 12 -6q8 18 18.5 39t22.5 19q10 0 20 -64q37 20 64 -6h4v4q6 25 20 72h-174q-16 -12 -16 -25zM383 160q0 4 6 4q4 0 4 -4t-4 -4q-6 0 -6 4zM383 383q0 -29 14 -57h101q-6 20 -15 57h-8q-2 -2 -6 -4 q-18 -12 -25 -10q-8 2 -16 14h-10l-2 -4q-8 -14 -13 -14q-8 -2 -18 18h-2zM387 383q10 -16 16 -16q2 0 11 14l2 2h-29zM387 385h29l4 8q-6 6 -10 8q-8 0 -23 -16zM391 199q0 -10 10 -11q11 1 11 11q0 8 -11 8q-10 0 -10 -8zM399 160q0 4 7 4q4 0 4 -4t-4 -4q-6 0 -7 4z M416 160q0 4 6 4q4 0 4 -4t-4 -4q-6 0 -6 4zM418 385h8q-2 4 -4 6zM422 395q2 -2 6 -8v-2h45q4 2 8 6q-2 31 -18 62q-10 2 -21 -17q-2 -6 -20 -41zM424 199q0 -10 8 -11q10 1 10 11q0 8 -10 8q-8 0 -8 -8zM430 383q8 -12 14 -12q6 -2 23 10q2 0 4 2h-41zM432 160q0 4 6 4 q4 0 4 -4t-4 -4q-6 0 -6 4zM449 160q0 4 6 4q4 0 4 -4t-4 -4q-6 0 -6 4zM455 199q0 -10 10 -11q10 1 10 11q0 8 -10 8t-10 -8zM465 160q0 4 4 4q6 0 6 -4t-6 -4q-4 0 -4 4zM477 385h6v4q-2 -2 -6 -4zM481 160q0 4 4 4q7 0 7 -4t-7 -4q-4 0 -4 4zM485 383q8 -39 17 -57h33 q4 12 14 53q0 2 -2 4h-62zM485 385h58q-27 23 -58 4v-4zM487 199q0 -10 11 -11q10 1 10 11q0 8 -10 8t-11 -8zM498 160q0 4 4 4q6 0 6 -4t-6 -4q-4 0 -4 4zM504 317q6 -14 14 -14t14 14h-28zM514 160q0 4 4 4q6 0 6 -4t-6 -4q-4 0 -4 4zM520 199q0 -10 10 -11q11 1 11 11 q0 8 -11 8q-10 0 -10 -8zM530 160q0 4 5 4q6 0 6 -4t-6 -4q-4 0 -5 4zM537 326h127q18 0 18 18l2 39h-35q-20 -55 -33 -51q-8 2 -14 51h-4q-10 -14 -23 -14q-12 -2 -24 10q-4 -18 -14 -53zM547 160q0 4 4 4q6 0 6 -4t-6 -4q-4 0 -4 4zM549 383h1h1h-2zM553 199q0 -10 10 -11 q10 1 10 11q0 8 -10 8t-10 -8zM553 381q12 -10 22 -10q11 2 21 12h-43v-2zM553 385h45q2 4 4 6q-2 23 -6 70h-23q-8 -33 -20 -76zM563 160q0 4 4 4q6 0 6 -4t-6 -4q-4 0 -4 4zM565 47q23 35 72 31q14 0 29 8q36 23 73 82q-16 -33 -39 -59q-55 -59 -135 -62zM575 467h19 q-2 16 -6 18q-6 -2 -13 -18zM580 160q0 4 4 4q6 0 6 -4t-6 -4q-4 0 -4 4zM586 199q0 -10 10 -11q10 1 10 11q0 8 -10 8t-10 -8zM596 160q0 4 4 4q6 0 6 -4t-6 -4q-4 0 -4 4zM598 461q2 -31 6 -68q10 14 27 17q10 0 22 -7q6 12 13 13q4 0 12 -27l2 -4h4l4 57q0 18 -18 19h-72 zM600 385h2v2zM604 383q2 -25 12 -49q12 -4 25 35q2 6 6 14h-43zM604 385h43q0 2 6 14v2q-12 6 -22 7q-14 -2 -27 -19v-4zM612 160q0 4 4 4q7 0 7 -4t-7 -4q-4 0 -4 4zM618 199q0 -10 11 -11q8 1 8 11q0 8 -8 8q-10 0 -11 -8zM629 160q0 4 4 4t4 -4t-4 -4t-4 4zM643 160 q0 4 6 4q4 0 4 -4t-4 -4q-6 0 -6 4zM649 199q0 -10 10 -11q11 1 11 11q0 8 -11 8q-10 0 -10 -8zM649 385h25q-12 12 -19 14v-2zM655 401q13 -6 23 -16l-2 2q-6 27 -10 27q-4 -2 -11 -13zM659 160q0 4 7 4q4 0 4 -4t-4 -4q-6 0 -7 4zM770 147q0 14 14 15q13 -1 13 -15 q0 -12 -13 -12q-14 0 -14 12zM772 125q0 4 4 4t4 -4t-4 -4t-4 4zM786 127q0 6 5 6q6 0 6 -6t-6 -6q-4 0 -5 6zM797 137q0 10 10 10t10 -10l-2 -2q78 94 78 211v256q-2 16 -8 35q-14 43 -54 88q72 -14 72 -123v-309q-2 -31 -12 -57q-23 -66 -80 -107l2 2q-4 -2 -6 -2 q-10 0 -10 8zM805 172q0 12 12 12q10 0 10 -12q0 -10 -10 -10q-12 0 -12 10z" />
<glyph unicode="&#x202f;" horiz-adv-x="273" />
<glyph unicode="&#x205f;" horiz-adv-x="341" />
<glyph unicode="&#x2122;" horiz-adv-x="1013" d="M121 61v89q0 61 61 61h88q61 0 62 -61v-89q0 -61 -62 -61h-88q-61 0 -61 61zM121 356v88q0 61 61 62h88q61 0 62 -62v-88q0 -61 -62 -61h-88q-61 0 -61 61zM121 627v88q0 61 61 61h88q61 0 62 -61v-88q0 -61 -62 -62h-88q-61 0 -61 62zM360 43v61q0 43 43 43h62 q43 0 43 -43v-61q0 -43 -43 -43h-62q-43 0 -43 43zM360 256v61q0 43 43 43h62q43 0 43 -43v-61q0 -43 -43 -43h-62q-43 0 -43 43zM360 463v61q0 43 43 43h62q43 0 43 -43v-61q0 -43 -43 -43h-62q-43 0 -43 43zM360 672v61q0 43 43 43h62q43 0 43 -43v-61q0 -43 -43 -43h-62 q-43 0 -43 43zM551 31v43q0 29 31 28h43q31 0 30 -28v-43q0 -31 -30 -31h-43q-31 0 -31 31zM551 158v43q0 31 31 30h43q31 0 30 -30v-43q0 -29 -30 -29h-43q-31 0 -31 29zM551 303v43q0 31 31 31h43q31 0 30 -31v-43q0 -29 -30 -29h-43q-31 0 -31 29zM551 444v43q0 31 31 31 h43q31 0 30 -31v-43q0 -29 -30 -28h-43q-31 0 -31 28zM551 578v43q0 29 31 28h43q31 0 30 -28v-43q0 -31 -30 -31h-43q-31 0 -31 31zM551 702v43q0 31 31 31h43q31 0 30 -31v-43q0 -29 -30 -28h-43q-31 0 -31 28zM688 20v31q0 20 21 21h30q20 0 21 -21v-31q0 -20 -21 -20 h-30q-20 0 -21 20zM688 131v31q0 20 21 20h30q20 0 21 -20v-31q0 -20 -21 -20h-30q-20 0 -21 20zM688 233v31q0 20 21 21h30q20 0 21 -21v-31q0 -20 -21 -20h-30q-20 0 -21 20zM688 344v31q0 20 21 20h30q20 0 21 -20v-31q0 -20 -21 -20h-30q-20 0 -21 20zM688 446v29 q0 23 21 23h30q20 0 21 -23v-29q0 -23 -21 -22h-30q-20 0 -21 22zM688 545v30q0 20 21 21h30q20 0 21 -21v-30q0 -23 -21 -23h-30q-20 0 -21 23zM688 637v31q0 20 21 20h30q20 0 21 -20v-31q0 -23 -21 -23h-30q-20 0 -21 23zM688 725v31q0 20 21 20h30q20 0 21 -20v-31 q0 -20 -21 -20h-30q-20 0 -21 20zM793 14v23q0 14 16 14h20q14 0 15 -14v-23q0 -14 -15 -14h-20q-16 0 -16 14zM793 92v21q0 14 16 14h20q14 0 15 -14v-21q0 -14 -15 -14h-20q-16 0 -16 14zM793 164v20q0 14 16 15h20q14 0 15 -15v-20q0 -14 -15 -14h-20q-16 0 -16 14z M793 248v20q0 14 16 15h20q14 0 15 -15v-20q0 -14 -15 -15h-20q-16 0 -16 15zM793 326v20q0 14 16 14h20q14 0 15 -14v-20q0 -16 -15 -17h-20q-16 0 -16 17zM793 395v23q0 14 16 14h20q14 0 15 -14v-23q0 -14 -15 -14h-20q-16 0 -16 14zM793 473v21q0 16 16 16h20 q14 0 15 -16v-21q0 -14 -15 -14h-20q-16 0 -16 14zM793 545v20q0 16 16 17h20q14 0 15 -17v-20q0 -14 -15 -15h-20q-16 0 -16 15zM793 614v21q0 14 16 14h20q14 0 15 -14v-21q0 -14 -15 -14h-20q-16 0 -16 14zM793 678v22q0 14 16 15h20q14 0 15 -15v-22q0 -14 -15 -14h-20 q-16 0 -16 14zM793 739v23q0 14 16 14h20q14 0 15 -14v-23q0 -14 -15 -14h-20q-16 0 -16 14zM872 10v15q0 10 11 10h14q10 0 10 -10v-15q0 -10 -10 -10h-14q-10 0 -11 10zM872 59v17q0 10 11 10h14q10 0 10 -10v-17q0 -10 -10 -10h-14q-10 0 -11 10zM872 109v14q0 10 11 10 h14q10 0 10 -10v-14q0 -10 -10 -11h-14q-10 0 -11 11zM872 154v14q0 10 11 10h14q10 0 10 -10v-14q0 -10 -10 -11h-14q-10 0 -11 11zM872 197v14q0 12 11 12h14q10 0 10 -12v-14q0 -10 -10 -11h-14q-10 0 -11 11zM872 244v14q0 10 11 10h14q10 0 10 -10v-14q0 -10 -10 -11 h-14q-10 0 -11 11zM872 297v14q0 10 11 11h14q10 0 10 -11v-14q0 -10 -10 -10h-14q-10 0 -11 10zM872 348v14q0 10 11 11h14q10 0 10 -11v-14q0 -10 -10 -10h-14q-10 0 -11 10zM872 406v16q0 10 11 10h14q10 0 10 -10v-16q0 -10 -10 -11h-14q-10 0 -11 11zM872 461v14 q0 10 11 10h14q10 0 10 -10v-14q0 -10 -10 -10h-14q-10 0 -11 10zM872 510v14q0 10 11 11h14q10 0 10 -11v-14q0 -10 -10 -10h-14q-10 0 -11 10zM872 565v15q0 10 11 10h14q10 0 10 -10v-15q0 -12 -10 -12h-14q-10 0 -11 12zM872 614v15q0 10 11 10h14q10 0 10 -10v-15 q0 -10 -10 -10h-14q-10 0 -11 10zM872 664v14q0 10 11 10h14q10 0 10 -10v-14q0 -12 -10 -13h-14q-10 0 -11 13zM872 709v14q0 10 11 10h14q10 0 10 -10v-14q0 -10 -10 -11h-14q-10 0 -11 11zM872 752v14q0 10 11 10h14q10 0 10 -10v-14q0 -10 -10 -11h-14q-10 0 -11 11z " />
<glyph unicode="&#x25fc;" horiz-adv-x="778" d="M0 0v778h778v-778h-778z" />
</font>
</defs>
</svg>
